<svg width="900" height="350" xmlns="http://www.w3.org/2000/svg" preserveAspectRatio="xMidYMid meet">

 <g>
  <title>background</title>
  <rect fill="none" id="canvas_background" height="402" width="582" y="-1" x="-1"/>
 </g>
 <g>
  <title>Layer 1</title>
  <path id="svg_2" d="m631,227c-3,-1 -7,-7 -7,-11c-1,-2 -2,-6 -2,-10c-1,-6 -1,-14 1,-18c2,-5 1,-5 -3,0c-3,3 -5,5 -6,5c0,0 -4,-2 -8,-5c-4,-3 -9,-7 -12,-9c-4,-2 -6,-4 -6,-4c0,-3 5,-1 12,4c11,7 14,8 15,7c2,-2 10,-13 15,-20c5,-8 5,-9 -2,-6c-2,0 -5,1 -7,1c-2,0 -7,-2 -10,-5c-1,-1 -3,-2 -5,-3c-4,-2 -4,-3 -1,-6c2,-2 8,-3 24,-5c16,-2 16,-2 18,-6c2,-5 1,-5 -2,-3c-4,3 -9,3 -12,1c-2,-1 -5,-2 -8,-3c-5,-1 -7,-4 -5,-9c2,-4 7,-8 10,-8c1,0 3,-1 4,-1c3,-2 26,-5 34,-5c7,0 20,2 25,5l5,2l-10,0c-11,-1 -18,1 -18,4c0,0 0,1 1,1c3,0 0,2 -6,4c-9,3 -9,4 -7,11c1,4 1,4 4,4c1,-1 6,-1 10,-2c4,-1 11,-2 16,-3c8,-2 9,-2 8,-4c0,-2 2,-3 4,0c2,2 -2,6 -8,7c-3,1 -6,2 -6,2c-1,0 -5,2 -8,3c-9,3 -12,4 -7,4c2,0 8,2 15,6c9,5 13,7 19,13c7,7 11,13 9,15c0,1 -1,0 -1,-1c-1,-2 -8,-8 -11,-8c-1,0 -1,0 0,2c1,1 1,1 0,1c-1,-1 -2,0 -2,1c0,1 -1,1 -4,-1c-5,-4 -14,-7 -19,-8c-10,-1 -17,-4 -18,-9c-1,-1 -1,1 -1,5c-1,3 -1,7 -2,8c0,3 0,3 3,3c2,-1 5,-1 7,-1c2,0 4,-1 5,-2c3,-3 5,-2 10,4c5,5 5,5 5,10c-1,3 -1,10 -2,16c-1,7 -1,11 0,12c1,2 0,7 -1,7c0,0 -1,-1 -2,-1c-2,-2 -18,-2 -26,-1c-8,2 -18,6 -20,9c-1,1 -2,2 -4,1zm17,-19c2,0 2,0 -1,-1c-1,0 -4,-1 -5,-2c-3,-2 -3,-2 -4,-1c-1,1 -1,2 -1,3c0,0 0,2 -1,2c0,2 0,2 5,0c2,0 5,-1 7,-1zm23,-3c-1,-1 -1,-4 -2,-6c0,-3 0,-4 -2,-3c0,1 -2,2 -2,2c-1,1 -1,1 0,2c2,3 1,3 -8,5l-6,2l8,0c5,0 9,1 10,1c2,0 2,-1 2,-3zm-4,-13c1,0 2,-1 1,-2c0,-1 -3,0 -8,1c-10,3 -14,2 -18,-2c-3,-2 -4,-3 -3,-1c0,1 0,3 0,4l1,3l13,-1c7,0 13,-1 14,-2zm-36,-13c2,0 3,-1 4,-2c1,-2 3,-3 8,-3l5,0l0,-9c1,-5 0,-9 0,-9c-1,0 -15,14 -17,19c-2,2 -4,5 -4,5c-1,1 -1,1 1,0c1,0 2,0 3,-1zm161,46c-1,-2 -1,-2 1,-4c1,-1 4,-6 6,-11c2,-4 6,-11 7,-13c2,-3 2,-5 2,-5c-1,0 -13,12 -22,22l-5,6l-2,-3c-1,-5 -1,-7 0,-5c2,2 2,1 10,-9c5,-6 9,-13 11,-14c2,-3 1,-4 -2,-2c-1,1 -5,5 -8,9c-6,8 -9,10 -8,6c1,-3 -1,-3 -3,0c-1,2 -1,2 -1,1c0,-2 0,-2 -1,1c-2,2 -2,2 -3,1c-1,-4 1,-14 4,-20l4,-6l-2,-3c-2,-1 -4,-5 -5,-8c-3,-9 -3,-9 3,-8c3,0 5,0 5,-1c0,0 -1,-1 -2,-3c-2,-2 -2,-3 -2,-10c0,-4 0,-9 1,-12c1,-3 1,-4 -1,-3c-4,4 -10,27 -11,43c-1,5 1,26 2,27c1,0 0,1 0,3c-1,1 -1,2 0,1c1,0 1,1 1,3c-1,1 0,3 0,4c2,2 1,2 -3,0c-3,-1 -3,-1 -3,-5c0,-2 -1,-6 -1,-9c-1,-4 -2,-9 -2,-11c0,-3 0,-6 0,-6c-1,0 -3,1 -5,3c-5,3 -7,4 -10,2c-2,-1 -2,0 -2,4c-1,3 -1,10 0,15c1,11 1,13 -2,10c-2,-2 -2,-2 -5,1l-3,3l-2,-3c-1,-2 -2,-5 -2,-5c0,-1 -1,-2 -1,-3c-2,-3 -3,-11 -3,-21c0,-7 1,-22 2,-23c0,-1 1,-6 3,-13c2,-14 7,-25 14,-33c4,-5 7,-5 10,-2c2,3 6,3 15,1c2,0 3,0 5,3c1,1 3,4 4,5l2,2l3,-6c5,-9 9,-15 11,-15c2,-1 4,1 6,4c2,2 2,2 10,0c11,-4 15,-4 20,1c5,5 5,7 2,12c-3,6 -4,19 -2,21c3,2 -1,5 -14,11c-11,4 -13,6 -11,6c1,0 12,1 23,0c19,0 22,1 10,2c-2,0 -4,1 -5,1c-1,1 -3,2 -5,2c-4,2 -4,2 -4,4c0,2 0,3 -2,4c-1,0 -2,1 -2,1c0,1 -3,1 -7,2c-7,0 -9,1 -5,2c4,1 16,1 16,0c0,-2 5,-1 6,1c1,1 2,2 2,2c0,1 1,3 3,4l2,3l-5,5c-3,3 -6,9 -8,13c-4,6 -4,8 -4,13c0,4 -1,7 -1,7c0,0 -3,-2 -5,-5c-5,-5 -6,-6 -1,-3l3,2l0,-10c1,-6 1,-12 2,-13c1,-5 -3,-4 -5,2c-2,3 -4,5 -5,6c-1,0 -5,6 -9,11c-3,6 -7,11 -7,11c0,0 -1,-1 -2,-3zm-6,-32c0,-1 -1,0 -1,1c-1,1 -2,3 -2,4c0,0 1,-1 2,-2c0,-1 1,-3 1,-3zm-25,-21l0,-4l-2,2c-2,2 -2,2 0,4c1,1 2,2 2,2c0,0 0,-2 0,-4zm-1,-8c1,-3 1,-3 -4,1c-2,1 -5,2 -6,2c-2,-1 -2,-1 -3,3l-1,3l7,-4c3,-2 7,-4 7,-5zm1,-21c1,-9 0,-9 -5,-1c-4,7 -4,8 1,7c2,0 3,0 3,2c0,3 1,-1 1,-8zm44,0c4,0 14,-5 16,-7c1,-3 0,-3 -10,1c-6,2 -8,2 -10,1c-2,-1 -2,0 -3,2c-3,5 -2,6 1,4c2,0 5,-1 6,-1zm14,-19c1,0 2,0 2,-1c0,-1 -1,-1 -3,0c-3,1 -7,1 -9,0c-1,-1 -1,-1 -2,1c-1,2 -1,2 4,1c3,0 7,0 8,-1zm-402,101c-1,-1 -4,-3 -7,-5c-5,-3 -11,-7 -10,-7c0,0 3,1 7,3c3,1 6,2 7,2c0,0 -1,-4 -2,-8c-2,-5 -2,-9 -2,-23l0,-17l-3,1c-1,0 -4,1 -5,2c-3,1 -3,2 -3,5c0,4 -1,5 -6,6c-1,1 -1,1 1,1c1,0 4,2 6,5c7,6 7,8 1,15l-3,5l-5,-1c-9,0 -25,4 -25,8c0,1 -3,0 -6,-3c-1,-1 -3,-2 -3,-2c-1,1 -1,-12 0,-16c0,-2 1,-5 1,-5c0,0 -2,0 -3,0c-3,-1 -4,-1 -5,2c-2,5 -5,18 -5,22c0,3 -1,5 -2,6c-1,1 -2,2 -2,3c0,2 -3,1 -5,-2c-2,-1 -4,-5 -5,-8c-5,-11 -3,-39 3,-41c1,-1 7,0 8,1c0,1 7,1 7,0c0,-1 0,-1 -1,-1c0,0 -1,-3 -1,-7c-1,-8 0,-12 5,-17c3,-4 3,-4 1,-3c-6,2 -11,1 -20,-4c-10,-5 -10,-6 -6,-11c3,-4 9,-6 24,-8c9,-1 10,-2 10,-3c0,-6 8,-18 12,-18c0,0 4,2 8,3c8,4 11,7 11,12c0,3 2,4 10,4c15,0 31,3 37,7c3,2 1,4 -3,2c-3,-1 -31,-1 -32,0c-1,0 0,1 1,1c2,2 2,2 -2,2c-2,1 -4,1 -4,2c0,0 2,3 4,5c5,8 5,10 0,18l-5,8l-11,0c-9,0 -12,0 -16,2c-3,1 -6,3 -7,4c-2,1 0,1 18,-1c22,-2 26,-3 29,-6c1,-2 2,-2 4,-1c2,0 3,2 3,3c0,1 1,3 3,6c2,4 2,5 1,7c-7,19 -9,32 -4,40c1,2 2,4 2,5c0,2 -4,1 -5,0zm-35,-19c4,0 6,-1 6,-1c0,-1 -1,-1 -3,-1c-2,0 -5,0 -6,-1c-2,-1 -3,0 -6,4c0,1 0,1 2,1c1,-1 4,-1 7,-2zm3,-44c5,0 6,0 6,-2c-1,0 -1,-2 -1,-2c0,-1 -2,-1 -5,-1c-2,0 -6,0 -7,0c-1,-1 -2,-1 -2,0c0,1 -1,3 -3,4l-2,3l4,-1c2,-1 6,-1 10,-1zm3,-24c5,-1 9,-1 9,-2c1,-1 0,-1 -4,0c-7,0 -17,3 -18,4c0,0 1,0 2,0c2,-1 7,-2 11,-2zm90,83c-4,-4 -4,-5 -1,-2c2,0 3,1 3,1c1,0 9,-10 10,-13c1,-1 0,-1 -4,-1c-6,0 -10,-2 -11,-5c-1,-2 -3,-13 -3,-15c0,-2 5,-3 21,-2l16,0l1,-2c1,-2 1,-4 1,-6c0,-2 1,-4 1,-5c1,-3 2,-3 5,-3l4,0l0,7l-1,8l9,-1c5,0 14,-1 19,-1c6,-1 12,-1 14,-1l4,0l-5,3c-2,1 -4,3 -4,4c0,0 0,1 -1,1c0,0 -1,1 -1,3c-1,2 -5,4 -10,6l-4,1l3,4c6,6 7,13 4,13c-1,0 -2,0 -2,1c0,1 -14,0 -17,-2c-2,-1 -4,-7 -3,-11c0,-2 0,-2 -2,-2c-1,1 -3,1 -4,1c-2,0 -2,1 -2,12c1,7 1,12 0,12c-1,0 -16,-8 -16,-9c1,0 3,1 5,2c3,1 5,1 5,1c1,0 0,-4 -1,-9c-1,-7 -2,-8 -3,-7c-5,1 -7,2 -7,3c0,1 0,1 0,2c-1,2 -6,8 -7,8c0,-1 -3,1 -5,4c-3,3 -5,5 -6,5c-1,0 -3,-2 -5,-5zm-407,2c0,0 -1,-1 -1,-1c0,-1 -2,-3 -4,-4c-4,-3 -14,-15 -20,-25c-3,-6 -4,-10 -2,-10c2,0 4,2 6,8c2,2 5,7 8,10c5,6 6,6 8,-2c1,-2 3,-10 5,-17c2,-7 3,-13 3,-14c-1,0 0,-2 1,-5l2,-3l-6,-1c-6,0 -6,0 -9,-4c-2,-3 -4,-5 -4,-6c0,0 -1,-3 -2,-6l-3,-5l2,-2c2,-1 4,-1 11,-1c5,0 11,0 13,0c3,0 4,0 5,-4c3,-11 4,-13 10,-19c6,-6 7,-7 9,-6c1,0 3,2 3,3c1,1 3,3 5,5c3,4 6,11 4,13c0,1 -3,4 -5,7c-4,5 -5,6 -4,7c1,1 2,1 3,1c0,0 3,2 5,4c4,3 5,4 6,9c1,8 1,10 -2,15c-5,7 -15,35 -15,41c0,2 0,2 4,2c5,0 25,-3 35,-6c8,-2 24,-7 25,-8c1,0 0,-3 -2,-6c-3,-6 -4,-9 -2,-7c4,4 9,12 9,13c-2,6 -30,14 -58,17c-15,2 -14,3 -17,-1c-2,-3 -2,-3 -1,-12c1,-5 4,-17 6,-25c3,-9 5,-17 5,-17c-1,0 -3,0 -5,-1c-3,0 -4,0 -5,1c0,1 -1,2 -1,2c-1,-1 -4,6 -7,14c0,3 -3,10 -5,15c-2,4 -4,11 -5,13c-1,3 -2,5 -2,6c-1,0 -1,1 -1,1c0,1 -1,3 -1,5c-1,1 -1,3 -1,4c-1,2 -1,3 -3,2zm29,-16c-1,-1 -1,0 -1,1c0,1 0,2 1,1c0,0 0,-2 0,-2zm2,1c-1,-1 -1,-1 -1,0c0,1 0,2 1,2c0,-1 0,-1 0,-2zm1,-4c-1,-1 -1,-1 -1,0c0,1 0,2 1,2c0,-1 0,-1 0,-2zm-2,-1c-1,-1 -1,-1 -1,0c0,1 0,2 1,2c0,-1 0,-1 0,-2zm4,-13c0,-1 0,-1 -1,1c0,1 -1,2 -1,3c0,1 0,1 1,0c0,-2 1,-3 1,-4zm94,33c-1,-1 -4,-3 -5,-5c-3,-3 -3,-4 -3,-10c1,-7 3,-12 5,-14c1,0 1,0 0,1c-3,4 0,3 3,0c4,-6 5,-6 10,-6c5,0 9,2 14,9c5,7 4,15 -2,21c-3,4 -5,4 -2,0c3,-3 4,-5 2,-5c0,0 -2,2 -3,4c-3,4 -5,5 -9,5c-1,0 -3,0 -5,0c-1,1 -3,0 -5,0zm13,-6c2,-1 4,-7 3,-10c0,-2 -2,-4 -3,-5c-3,-2 -3,-2 -7,0c-5,2 -6,6 -4,11c3,4 7,6 11,4zm-81,-19c-5,-4 -6,-12 -6,-29c0,-14 0,-15 3,-23c3,-9 7,-14 10,-14c2,0 6,3 6,5c0,2 1,2 4,1c2,-1 4,-1 6,0c2,1 3,2 3,2c0,0 2,3 4,5c1,2 3,5 4,7c0,1 -1,7 -1,13c-1,6 -2,13 -2,15c0,4 -1,6 -3,3c-1,0 -2,-1 -2,0c0,0 0,1 1,2c2,1 1,2 -6,5c-8,3 -14,6 -15,9c-2,3 -2,3 -6,-1zm21,-13c2,-1 2,-1 1,-4c-1,-2 -2,-3 -4,-2c-1,1 -4,1 -6,0c-2,-1 -4,-1 -4,-1c-1,1 -3,10 -3,12c0,2 1,2 7,-1c4,-2 8,-4 9,-4zm-3,-19c0,0 -1,-1 -1,-3c-2,-1 -2,-1 -3,0c-3,3 -2,4 1,4c2,0 3,0 3,-1zm348,16c-1,0 -1,-2 -1,-3c-1,-3 5,-14 17,-32c4,-7 8,-12 8,-13c0,0 -2,0 -4,0c-6,0 -9,-3 -9,-12c-1,-5 -1,-8 0,-9c1,-1 4,-1 12,0c6,0 16,0 22,0c6,1 11,1 11,1c0,0 1,3 1,6c2,7 2,11 -2,11c0,0 -2,2 -3,4l-2,4l5,0c3,1 10,2 16,3c10,3 14,5 9,5c-3,0 -5,2 -5,5c1,2 -3,6 -9,8c-5,1 -15,2 -16,0c-2,-1 -2,-10 -1,-16l1,-3l-2,3c-2,4 -9,21 -11,28c-1,3 -1,6 -2,6c0,0 -1,-1 -2,-2c-2,-1 -4,-5 -6,-10l0,-2l2,2l3,2l0,-2c0,-4 5,-26 8,-33c0,-2 -4,-1 -6,1c-7,8 -11,12 -18,23c-4,7 -9,15 -11,18c-4,7 -5,8 -5,7zm-28,-2c-3,-2 -9,-10 -9,-12c1,-2 5,-5 17,-9c6,-2 11,-4 12,-4c0,-1 1,-4 2,-7c3,-8 7,-14 12,-15c6,-2 7,0 7,8l1,7l-6,6c-6,5 -7,7 -8,11c0,5 -3,7 -12,12c-9,4 -12,5 -16,3zm-4,-24c-1,0 -2,-1 -3,-2c-2,-2 -4,-17 -2,-18c1,-1 34,-3 35,-2c0,1 -3,2 -5,2c-2,0 -2,0 -2,3c1,6 -6,14 -14,16c-5,2 -6,2 -9,1zm3,-28c-4,-2 -5,-7 -4,-14c0,-4 1,-6 2,-7c3,-1 21,2 24,4c1,1 4,2 5,3c2,1 4,2 5,4c3,2 3,2 2,4c-1,2 -2,3 -3,3c-1,0 -2,0 -2,1c-1,1 -13,3 -18,3c-2,0 -5,0 -6,0c-2,1 -3,1 -5,-1z" fill="#d1d1d1"/>
  <path id="svg_3" d="m792,225c-1,-2 -1,-2 0,-3c1,-1 4,-6 8,-12c3,-7 6,-13 7,-15c1,-2 2,-3 1,-3c-2,0 -9,7 -13,11c-2,3 -6,7 -9,10l-5,6l-2,-3c-1,-4 -1,-5 0,-3c2,1 4,-1 12,-13c8,-10 10,-14 9,-14c-2,0 -8,7 -15,16c-3,4 -3,1 -1,-4c2,-6 2,-7 0,-3c-3,6 -5,8 -6,7c-1,-1 -1,0 -2,1c-1,5 -2,2 -2,-3c0,-5 1,-7 4,-14l4,-7l-3,-4c-2,-2 -3,-4 -3,-5c0,-1 -1,-4 -2,-5c-2,-5 -1,-7 5,-5c3,0 5,1 5,1c0,-1 -1,-2 -2,-4c-4,-5 -5,-12 -3,-20c1,-4 2,-7 2,-7c-1,-1 -6,8 -8,14c-1,3 -3,12 -4,19c-2,13 -2,14 -1,27c1,7 2,14 1,15c0,2 0,2 1,2c1,-1 1,0 0,1c0,2 0,3 1,3c1,1 1,2 1,2c0,1 -6,-1 -6,-2c0,0 0,-1 0,-3c-1,-2 -2,-11 -3,-13c0,-1 0,-4 -1,-6c0,-10 0,-10 -5,-6c-4,4 -7,5 -10,3c-2,-1 -2,-1 -3,3c0,3 0,18 2,24c0,2 0,3 -1,3c-1,0 -3,-1 -3,-2c-2,-2 -2,-2 -3,1c-1,1 -2,3 -3,3c-1,0 -3,-4 -5,-7l-3,-7l-1,-16c0,-13 0,-16 3,-31c4,-19 7,-26 12,-34c6,-9 10,-11 14,-7c2,2 3,3 8,2c3,0 6,0 8,0c1,-1 2,0 4,2c1,2 3,4 4,4c0,1 1,2 1,3c0,1 2,-2 5,-7c5,-9 8,-14 11,-14c2,0 3,1 5,4c2,2 2,2 9,0c3,-1 9,-2 12,-3c4,0 5,0 9,4c2,3 4,6 4,6c0,1 -1,4 -2,7c-2,4 -3,7 -3,13c0,4 0,7 1,8c2,2 -2,4 -15,10c-7,3 -13,6 -12,6c1,1 11,1 23,1c20,-1 21,-1 15,0c-8,2 -16,5 -18,7c-1,1 -1,1 0,1c0,0 1,1 1,1c0,2 -6,5 -13,6c-6,0 -8,1 -4,2c4,1 17,1 17,0c0,0 1,-1 2,-1c3,0 6,3 6,5c0,0 1,2 2,3c3,2 2,4 -2,9c-3,2 -6,8 -9,12c-3,6 -3,8 -3,14c0,3 -1,6 -1,6c0,0 -9,-9 -9,-10c0,0 1,1 3,2l3,2l0,-7c0,-3 1,-10 1,-13c1,-4 2,-7 1,-7c-2,0 -4,3 -6,7c-1,2 -3,4 -4,5c-1,0 -5,6 -9,11c-3,6 -7,11 -7,11c0,0 -1,-1 -2,-3zm-31,-53c1,-5 -1,-5 -3,-2c-1,2 -1,3 0,4c1,0 2,2 2,3c0,2 1,0 1,-5zm0,-9l0,-2l-3,2c-3,2 -5,3 -7,3c-3,0 -4,0 -4,2c-2,5 -1,5 7,1c6,-3 7,-4 7,-6zm0,-20c1,-8 1,-8 -1,-7c-1,1 -3,5 -5,8l-3,6l4,-1c3,0 4,0 4,2c0,4 1,0 1,-8zm45,0c5,0 16,-6 16,-9c0,-1 -5,0 -9,2c-6,2 -10,3 -12,2c-2,-1 -2,-1 -4,2c-2,6 -1,6 2,4c2,0 5,-1 7,-1zm12,-18c2,0 3,-1 3,-2c0,0 0,-1 -1,0c-2,1 -9,1 -11,0c-1,-1 -1,-1 -2,1c-1,2 -1,2 4,2c2,-1 6,-1 7,-1zm-190,99c-4,-4 -5,-7 -6,-17c-1,-10 -1,-14 1,-20c1,-3 6,-8 9,-8c0,0 2,-1 3,-2c1,-2 3,-2 8,-3l6,0l0,-10l0,-9l-6,5c-6,6 -10,10 -14,16c-3,6 -13,16 -15,16c-1,0 -4,-2 -7,-4c-2,-2 -8,-5 -12,-8c-5,-3 -7,-5 -6,-5c1,-2 4,0 15,6c12,7 10,8 19,-5c11,-16 12,-18 10,-18c-1,0 -4,1 -6,2c-6,2 -8,1 -12,-1c-2,-2 -5,-4 -7,-5c-5,-2 -5,-5 -2,-7c3,-2 17,-5 31,-6l8,0l2,-5c2,-5 2,-6 -2,-3c-4,3 -8,3 -14,0c-4,-2 -7,-3 -8,-3c0,0 -1,-1 -2,-2c-2,-2 -2,-2 -1,-5c1,-4 7,-9 10,-9c1,0 3,-1 6,-1c2,-1 10,-3 18,-3c12,-2 15,-2 23,-1c15,2 26,7 12,6c-8,-1 -17,0 -19,3c-1,1 -1,1 0,2c3,1 2,1 -2,3c-2,1 -5,2 -7,3l-4,1l0,5c1,3 1,6 2,6c1,1 22,-2 34,-5c3,-1 4,-2 4,-3c-1,-3 2,-3 3,0c2,3 -1,5 -24,12c-8,3 -10,4 -5,4c1,0 8,3 15,6c10,5 12,7 20,14c6,7 8,10 8,12l0,2l-3,-3c-4,-5 -11,-8 -9,-4c0,1 0,1 -1,1c0,-1 -1,0 -1,1c0,1 -1,1 -4,-2c-4,-2 -13,-6 -18,-7c-12,-2 -19,-5 -19,-9c0,-3 -2,3 -2,10c-1,6 -1,6 1,6c5,0 13,-2 14,-3c2,-3 5,-1 9,4c5,5 6,10 4,15c-2,5 -2,19 -1,23c2,5 0,6 -7,4c-5,-1 -7,-1 -14,0c-11,1 -22,5 -26,8c-5,4 -6,4 -9,0zm14,-15c6,-2 21,-3 25,-1c5,1 5,1 3,-8c-1,-4 -1,-5 -3,-4c0,1 -2,2 -2,2c-1,1 -1,1 0,2c1,1 1,2 1,3c0,0 -5,1 -10,2l-10,2l-4,-2l-3,-3l-2,3c-1,3 -1,6 -1,6c0,0 3,-1 6,-2zm21,-15c5,0 6,-1 6,-3c0,-2 -1,-2 -7,0c-3,0 -8,1 -11,1c-5,0 -6,0 -10,-3c-3,-3 -3,-3 -3,-1c1,1 1,4 1,5c0,2 0,2 9,1c5,0 12,0 15,0zm-247,30c-1,-1 -4,-4 -7,-5c-3,-2 -6,-3 -7,-4c0,-1 0,-1 1,-1c1,1 4,2 7,3l5,2l-3,-8c-2,-7 -2,-11 -2,-25c0,-9 -1,-16 -1,-16c-1,0 -3,1 -6,2c-5,2 -5,2 -5,6c1,4 -1,5 -8,7c-3,1 -5,1 -5,2c1,0 3,0 5,-1l5,-1l5,5c6,6 7,9 2,15l-4,4l-9,0c-9,1 -20,4 -21,7c-1,2 -3,1 -6,-2c-3,-2 -3,-3 -3,-9c0,-3 0,-7 0,-10c1,-4 1,-4 -2,-4c-2,-1 -4,-1 -4,0c-2,3 -5,15 -6,23c-1,4 -3,8 -4,9l-2,2l-3,-3c-8,-8 -10,-33 -4,-46c1,-3 2,-3 5,-3c2,0 4,1 4,1c0,1 9,1 9,0c0,-1 -1,-1 -1,-1c-1,0 -2,-2 -2,-6c-1,-8 1,-14 6,-19l4,-4l-5,2c-5,1 -6,1 -11,0c-5,-2 -16,-8 -16,-10c-1,0 0,-2 1,-4c3,-4 9,-7 24,-9l11,-1l1,-4c0,-5 3,-10 7,-13c4,-3 5,-4 8,-2c1,1 3,2 5,3c6,2 9,6 9,11l0,4l17,1c18,1 26,3 30,6c3,2 2,4 -2,2c-3,-1 -28,-1 -32,0c-2,0 -2,0 0,2l3,1l-5,0l-5,1l3,4c2,2 4,4 5,5c3,4 2,7 -3,15l-4,8l-8,-1c-5,0 -10,0 -13,1c-6,1 -14,5 -15,7c-1,1 46,-4 48,-5c0,0 0,-1 1,-3c2,-4 5,-2 9,6l3,7l-3,8c-6,16 -7,27 -2,35c1,2 2,4 2,4c0,2 -4,1 -6,-1zm-33,-18c7,0 8,-3 1,-2c-2,0 -4,0 -4,-1c-1,-2 -3,-1 -5,1c-3,3 -3,4 0,4c1,-1 5,-1 8,-2zm0,-44l9,0l-1,-3c-1,-2 -2,-2 -5,-2c-3,0 -6,0 -7,0c-2,-1 -3,-1 -3,0c0,0 -1,2 -3,4c-2,3 -2,3 0,3c1,-1 5,-1 10,-2zm-9,-22c-1,0 -1,0 -2,0c-1,1 -1,1 0,1c1,0 2,0 2,-1zm15,-2c4,0 8,-1 8,-2c2,-2 -2,-1 -12,1c-8,1 -14,4 -6,2c2,0 7,-1 10,-1zm89,84c-3,-3 -3,-4 -1,-4c4,2 5,2 9,-5l5,-6l-6,-1c-8,0 -10,-2 -12,-12c-2,-11 -2,-10 20,-10l18,0l0,-6c1,-9 2,-10 6,-10l4,0l-1,8l0,7l13,-1c7,0 15,-1 18,-1c3,-1 7,-1 10,-1l4,0l-4,3c-4,3 -5,4 -6,7c-1,2 -2,4 -8,6l-6,2l3,4c4,5 6,11 5,12c-1,2 -15,2 -18,1c-3,-1 -5,-6 -5,-11c0,-3 0,-3 -4,-3c-2,1 -4,1 -4,2c-1,0 0,8 1,17c0,3 0,6 -1,6c-1,0 -16,-8 -16,-9c1,0 3,1 5,2c3,1 5,1 6,1c0,0 0,-3 -1,-5c0,-3 -1,-6 -1,-8c-1,-4 -1,-4 -4,-3c-4,1 -7,3 -7,5c0,1 -2,3 -4,6c-2,2 -3,3 -2,2c0,-1 -2,1 -5,4c-3,3 -6,5 -7,5c0,0 -2,-2 -4,-4zm-408,0c0,-1 -2,-3 -4,-5c-4,-3 -13,-13 -19,-24c-4,-6 -5,-10 -3,-10c2,0 3,2 6,7c1,3 5,8 8,11l5,5l1,-2c1,-2 2,-5 3,-8c1,-5 5,-21 7,-25c0,-2 1,-4 0,-4c0,-1 1,-3 1,-4c3,-4 2,-4 -3,-4c-8,0 -11,-3 -15,-13c-4,-7 -4,-8 -2,-10c2,-1 3,-1 12,-1c5,0 11,0 13,0c2,0 3,0 4,-5c3,-9 4,-12 10,-18c4,-5 6,-6 8,-6c2,0 3,1 4,2c1,1 3,4 4,6c3,3 4,5 5,10c1,2 0,4 -4,9c-4,4 -6,7 -6,7c0,0 1,1 3,2c1,1 4,2 6,4c1,2 3,3 3,2c1,0 1,1 3,10l1,7l-3,6c-2,3 -5,8 -6,11c-4,11 -9,26 -9,29c0,2 0,2 5,2c10,0 45,-8 56,-12l4,-2l-2,-5c-2,-2 -3,-6 -3,-7c-1,-2 -1,-2 0,0c5,5 9,11 9,12c0,2 -7,5 -15,8c-11,4 -29,8 -45,9l-12,2l-2,-2c-3,-4 -2,-14 4,-36c4,-14 5,-19 4,-19c-2,-1 -8,-1 -10,0c-1,2 -6,12 -6,14c0,0 -2,7 -5,15c-3,7 -6,15 -7,17c0,1 -1,3 -1,4c-1,1 -3,8 -3,9c0,1 0,1 -1,1c-1,0 -1,0 0,1c0,1 -1,1 -1,1c-1,0 -2,-1 -2,-1zm31,-17c1,-5 1,-6 2,-4c1,1 1,0 1,-2c0,-3 0,-6 0,-7c1,-2 0,-1 -1,1c-1,4 -2,5 -2,4c-1,-1 -1,-1 0,1c0,1 -1,4 -1,7c-1,3 -1,6 -1,6c0,0 1,-3 2,-6zm1,3c-1,-1 -1,0 -1,1c0,1 0,2 1,1c0,0 0,-2 0,-2zm1,-4c-1,-1 -1,-1 -1,0c0,1 0,2 1,2c0,-1 0,-1 0,-2zm5,-15c0,-1 -1,0 -1,1c-1,1 -2,3 -2,5c0,1 1,0 2,-2c0,-2 1,-4 1,-4zm89,32c-5,-3 -6,-7 -6,-13c1,-7 3,-11 4,-11c0,1 3,-1 5,-3c4,-4 5,-5 8,-5c6,0 10,3 15,9c2,4 3,6 3,9c0,4 -3,11 -6,13c-1,1 -1,1 0,-1c1,-2 2,-3 2,-4c0,-2 -2,-1 -4,2c-3,5 -4,5 -12,6c-6,0 -7,0 -9,-2zm16,-5c4,-4 3,-13 -2,-15c-5,-2 -12,4 -11,9c2,7 9,10 13,6zm-82,-18c-4,-4 -4,-6 -6,-18c-2,-12 -1,-22 3,-33c3,-10 5,-13 9,-14c3,-1 7,1 7,4c0,2 1,2 5,1c3,-1 7,0 9,4c1,1 3,4 5,6c2,3 2,4 2,8c-1,2 -3,22 -4,28c0,0 -1,0 -1,0c-1,0 -2,-1 -3,-3c-1,-3 -1,-1 1,4c0,1 -1,2 -6,4c-9,4 -16,9 -16,11c0,2 -1,1 -5,-2zm10,-8c3,-2 6,-3 9,-4c3,-1 4,-2 3,-3c0,-1 0,-2 -1,-3c0,-2 -1,-2 -2,-1c-2,1 -8,0 -10,-1c-1,-2 -1,-2 -3,5c-1,3 -1,6 -2,7c0,3 1,2 6,0zm8,-25c0,-2 -4,-4 -5,-2c-2,3 -1,4 2,4c2,0 3,0 3,-2zm347,15c-1,-3 -1,-4 4,-12c3,-5 9,-15 14,-22l8,-12l-4,0c-7,0 -9,-3 -10,-14c-1,-5 -1,-6 1,-7c1,-1 43,0 43,1c1,0 1,3 2,6c2,7 2,9 -1,11c-2,1 -4,5 -8,13c-3,7 -6,13 -6,14c0,0 -1,2 -2,4c-1,3 -2,7 -3,10c-1,3 -2,6 -2,6c-2,0 -6,-6 -7,-10l-1,-4l2,2l3,2l1,-9c1,-6 3,-13 5,-18c1,-4 2,-8 2,-9c-2,-1 -6,2 -11,7c-6,7 -19,26 -22,33c-2,3 -4,6 -5,8l-2,3l-1,-3zm-27,0c-3,-2 -9,-9 -9,-11c0,-3 4,-5 17,-9l12,-4l3,-8c3,-9 7,-14 12,-15c5,-1 6,0 6,8l1,7l-7,6c-5,5 -6,7 -7,11c0,5 -2,6 -10,11c-9,5 -14,6 -18,4zm78,-20c-1,-2 -1,-8 0,-15c0,-4 1,-5 2,-6c2,0 23,4 28,6l3,1l-3,1c-4,0 -5,2 -5,5c0,3 -3,6 -9,8c-4,1 -14,1 -16,0zm-83,-5c-3,-2 -4,-4 -4,-15l0,-4l7,-1c3,0 11,-1 18,-1c9,0 10,0 7,1c-4,1 -6,3 -4,5c3,3 -6,13 -14,15c-6,2 -6,2 -10,0zm5,-26c-4,-2 -5,-5 -5,-13c0,-9 0,-9 13,-8c10,1 14,3 22,9c3,3 4,3 3,5c-2,4 -10,6 -21,6c-3,1 -7,1 -8,1c-1,1 -2,0 -4,0z" fill="#b0b0b0"/>
  <path id="svg_4" d="m792,225c-1,-2 -1,-3 0,-3c1,-1 2,-3 4,-4c3,-5 13,-26 12,-26c-2,0 -8,6 -16,14c-12,14 -11,14 -13,9c0,-2 0,-3 1,-2c1,1 1,2 14,-16c6,-9 8,-11 6,-11c-2,0 -10,8 -14,14c-4,7 -5,5 -2,-3c2,-3 3,-6 3,-6c-1,0 -2,2 -3,4c-1,2 -3,5 -4,6c-1,2 -2,2 -2,0c-1,-1 -1,-1 -2,2c0,4 -2,2 -2,-3c0,-4 3,-12 7,-19c1,-2 1,-3 -1,-4c-1,-2 -3,-6 -5,-10c-3,-8 -2,-9 7,-6c2,0 2,0 -1,-5c-2,-3 -4,-12 -2,-16c0,-2 1,-5 1,-7c1,-3 1,-3 -1,-2c-3,3 -6,11 -9,23c-2,13 -3,25 -2,37c1,4 1,10 1,14c1,4 1,7 2,7c1,1 1,1 -1,0c-4,0 -4,0 -5,-5c0,-2 -1,-6 -1,-9c-1,-6 -2,-16 -2,-24c-1,-6 -2,-8 -4,-4c-1,2 -1,2 0,3c1,1 2,3 2,5c0,5 -9,11 -12,8c-1,-1 -2,-1 -3,-1c-1,1 -1,20 0,25c1,3 1,5 0,5c-1,1 -2,1 -3,-1c-2,-2 -3,-3 -3,0c0,1 -1,2 -2,3c-1,1 -1,1 -3,0c0,-2 -2,-4 -2,-6c-1,-2 -2,-3 -2,-3c-2,0 -3,-14 -3,-25c1,-6 1,-12 1,-12c0,0 0,-1 0,-1c0,-1 1,-8 3,-16c4,-20 7,-27 16,-36c4,-5 5,-5 9,-1c2,2 3,2 8,2c4,-1 7,-1 8,-2c2,0 4,3 9,10c0,2 1,1 5,-6c4,-10 8,-15 11,-15c1,0 3,1 4,3l3,3l7,-2c4,-1 9,-2 12,-3c4,0 5,0 9,4c2,3 4,6 4,6c0,1 -1,4 -3,6c-2,4 -2,7 -2,14c0,5 0,8 1,8c1,0 0,1 0,2c-2,2 -16,9 -26,12c-1,1 -2,1 -2,2c0,1 6,1 22,1c13,-1 21,-1 20,0c-2,0 -5,1 -7,1c-2,0 -4,0 -5,1c0,0 -2,1 -4,2c-5,1 -6,3 -5,5c1,0 1,1 1,1c-4,3 -7,4 -13,5c-6,0 -8,1 -4,3c3,0 17,0 20,-1c1,-1 2,0 5,4l4,6l-4,5c-3,3 -7,9 -9,12c-3,6 -3,9 -3,14c0,4 -1,7 -1,7c0,0 -2,-2 -4,-5c-3,-3 -4,-4 -2,-3l3,2l0,-10c1,-5 1,-11 2,-13c1,-2 1,-4 1,-4c-2,-1 -5,3 -7,7c-2,3 -4,5 -5,5c-1,1 -2,2 -2,3c-1,2 -12,19 -13,19c0,0 -1,-1 -2,-3zm-38,-56c6,-3 7,-4 7,-6c0,-2 0,-2 -2,-1c-1,0 -2,2 -3,2c-1,1 -3,2 -5,2c-3,0 -4,0 -4,2c-1,3 -1,5 0,5c0,0 4,-2 7,-4zm7,-21c0,-2 0,-6 1,-9l0,-4l-3,3c-2,2 -4,6 -5,8l-2,4l4,-1c4,0 4,0 4,1c-1,1 -1,2 0,2c1,0 1,-2 1,-4zm46,-5c2,0 13,-5 14,-6c3,-4 -2,-4 -10,0c-3,0 -6,1 -8,1c-4,0 -4,0 -6,2c0,1 -1,3 -1,4c0,2 0,2 4,0c2,0 5,-1 7,-1zm11,-18c2,0 3,-1 3,-1c0,-1 -1,-2 -1,-1c-3,0 -9,1 -10,0c-2,-1 -4,1 -4,2c0,1 2,1 5,1c2,-1 6,-1 7,-1zm-190,99c-6,-6 -8,-29 -4,-39c1,-1 3,-3 5,-4c3,-2 5,-3 5,-4c2,-2 7,-3 11,-3l4,0l0,-10l0,-9l-6,6c-4,3 -9,8 -11,11c-7,10 -16,20 -18,20c-1,0 -4,-2 -7,-4c-2,-2 -8,-6 -12,-8c-6,-4 -8,-6 -5,-6c1,0 6,3 12,7c6,3 11,6 12,6c1,0 5,-5 14,-18c8,-11 8,-12 -1,-10c-6,3 -8,2 -14,-2c-2,-2 -5,-4 -7,-4c-3,-2 -3,-5 0,-6c2,-2 25,-6 35,-6c4,0 4,-1 6,-5c2,-5 2,-6 -2,-3c-4,2 -9,3 -12,1c-1,-1 -4,-2 -7,-3c-4,-1 -7,-4 -7,-5c0,-2 3,-8 6,-9c3,-3 14,-6 29,-8c11,-1 15,-1 22,0c8,1 20,4 20,6c0,0 -3,0 -7,-1c-7,0 -16,1 -19,3c-1,1 -1,1 0,2c2,2 2,2 -1,3c-1,1 -5,2 -7,3c-4,1 -5,2 -5,5c0,2 0,5 1,6c1,3 1,3 6,3c7,-1 23,-5 29,-6c2,-1 4,-2 4,-3c0,0 1,-1 2,-1c1,0 1,3 0,5c-2,1 -13,5 -22,8c-3,0 -7,2 -8,2c-2,2 -2,2 2,2c2,1 9,4 15,7c9,4 13,7 18,12c7,6 10,10 10,13c0,1 -2,0 -5,-3c-4,-4 -9,-6 -7,-2c0,1 0,1 -1,1c-1,-1 -1,0 -1,0c0,2 -1,1 -4,-1c-3,-2 -6,-3 -8,-4c-1,0 -3,-1 -4,-1c0,-1 -3,-1 -5,-2c-2,0 -7,-1 -11,-2c-5,-2 -7,-3 -8,-6l-2,-3l0,4c-1,3 -1,7 -2,9c0,5 0,5 3,5c6,0 12,-2 13,-3c2,-3 5,-2 10,4c4,5 4,6 4,10c-1,3 -1,8 -2,11c-1,6 -1,16 0,18c0,1 0,2 0,3c-1,2 -1,2 -7,0c-6,-1 -8,-1 -17,0c-11,2 -20,5 -24,9c-4,3 -5,3 -8,-1zm15,-15c5,-1 23,-2 26,-1l2,1l0,-6c-1,-8 -2,-8 -5,-6c-2,2 -2,2 -1,3c2,2 0,3 -11,5l-8,2l-4,-2c-4,-3 -4,-3 -5,3c-1,3 -1,3 0,3c1,-1 4,-1 6,-2zm23,-15c3,0 3,-1 3,-3l0,-3l-6,2c-11,3 -20,2 -23,-3c-1,-2 -2,-1 -1,4l0,4l12,-1c6,0 13,0 15,0zm-248,31c0,-1 -4,-3 -8,-5c-8,-5 -9,-7 -1,-3c3,1 5,2 5,2c1,0 0,-3 -1,-8c-3,-9 -4,-27 -3,-35c0,-4 1,-7 0,-7c0,0 -3,1 -7,3c-4,2 -6,3 -5,4c2,4 0,7 -8,9c-3,1 -5,2 -4,2c0,0 3,0 5,-1c3,-1 3,-1 9,4c5,6 6,7 4,12c-3,5 -6,7 -15,7c-9,1 -19,4 -21,7c-1,2 -4,1 -7,-3c-3,-4 -3,-10 -2,-18c1,-4 1,-4 -2,-5c-2,0 -4,0 -4,1c-2,2 -5,15 -6,23c-1,4 -3,8 -4,9l-2,2l-3,-3c-6,-5 -10,-25 -7,-38c3,-10 4,-12 8,-11c1,0 3,1 4,1c1,1 8,1 9,0c0,0 0,-1 -1,-1c-1,-1 -2,-4 -2,-7c-1,-7 0,-12 6,-18c3,-2 4,-4 4,-4c0,0 -3,1 -5,2c-4,1 -6,1 -9,0c-5,-1 -17,-8 -18,-9c-1,-2 2,-7 5,-9c2,-1 12,-4 22,-5c9,-1 9,-1 10,-4c1,-8 7,-16 11,-16c1,0 5,1 8,3c8,3 11,7 10,12l0,3l14,0c15,1 25,3 31,6c4,2 6,5 2,3c-2,-1 -36,-1 -36,0c0,1 1,1 2,2c1,0 2,1 1,1c-7,0 -37,7 -36,8c1,0 4,-1 9,-1c4,-1 9,-2 11,-2c2,0 4,-1 6,-1c1,-1 2,-2 2,-2c1,0 10,12 10,14c0,1 -2,5 -5,9l-4,8l-9,-1c-10,0 -20,2 -25,6l-3,3l3,0c1,-1 8,-1 16,-2c20,-2 29,-4 31,-6c2,-4 5,-2 9,5c3,6 3,7 2,10c-2,4 -4,12 -6,19c-2,6 -1,16 2,21c2,3 2,5 0,5c0,0 -1,-1 -2,-1zm-34,-19c3,0 5,-1 5,-1c-1,-1 -2,-1 -4,-1c-1,0 -4,0 -5,-1c-3,-1 -3,-1 -5,1c-3,3 -2,4 1,4c1,-1 5,-1 8,-2zm0,-44l8,0l-1,-3c-1,-2 -2,-3 -5,-2c-2,0 -5,0 -6,0c-3,-1 -3,-1 -4,0c0,1 -2,3 -3,4l-3,3l3,0c1,-1 6,-1 11,-2zm97,63c0,0 -1,-2 -3,-4c-3,-2 -3,-3 -1,-3c4,2 5,2 9,-4c3,-4 5,-7 5,-7c0,-1 -2,-1 -5,-1c-8,0 -11,-2 -13,-12c0,-4 -1,-8 -1,-8c0,0 1,0 2,-1c2,-1 8,-1 20,-1l17,0l0,-5c0,-7 2,-10 6,-11l3,0l0,5c0,3 0,7 0,8l0,2l13,-1c8,0 16,-1 18,-1c3,-1 7,-1 9,-1c4,0 4,0 3,2c-6,4 -9,7 -9,9c0,2 -2,3 -10,6l-3,1l3,4c8,10 7,14 -5,14c-9,0 -12,-2 -13,-10l0,-5l-4,0c-5,1 -5,1 -3,20c0,3 0,5 -1,5c-1,0 -14,-7 -15,-8c0,-1 2,0 4,1c3,1 5,1 5,1c1,-1 -2,-16 -2,-17c-1,0 -7,2 -9,4c-1,0 -2,2 -1,2c0,1 -2,3 -4,6c-2,2 -3,3 -2,2c3,-4 -1,-2 -5,4c-5,4 -8,6 -8,4zm-284,-4c-4,-3 -6,-7 -5,-13c0,-6 2,-11 3,-10c1,0 3,-2 5,-4c4,-4 5,-5 9,-5c5,0 9,3 14,9c2,4 3,6 3,9c0,4 -3,11 -6,13c-1,1 -1,1 0,-1c1,-2 2,-4 2,-5c-1,-1 -2,0 -4,3c-4,5 -4,5 -11,6c-5,0 -7,0 -10,-2zm16,-5c3,-3 3,-8 2,-12c-3,-5 -8,-5 -13,-1c-5,5 0,15 6,15c2,0 4,-1 5,-2zm-18,-16c1,0 1,-1 0,0c-1,0 -1,1 -1,1c0,1 1,1 1,-1zm-125,21c1,0 -1,-1 -3,-3c-6,-3 -22,-25 -24,-32c0,-3 0,-3 2,-2c1,0 3,4 6,7c2,4 5,9 8,12c5,5 5,6 10,-12c1,-8 4,-16 4,-18c1,-3 2,-6 1,-7c0,0 1,-2 1,-3c3,-4 2,-4 -3,-4c-5,0 -6,0 -9,-4c-2,-1 -4,-5 -5,-7c0,-2 -2,-5 -3,-6c-4,-6 6,-10 21,-7c7,2 7,1 9,-7c1,-6 5,-11 12,-19c4,-4 8,-4 10,0c0,2 2,3 2,4c3,3 5,7 6,11c1,3 1,4 -5,9c-3,3 -5,6 -5,7c0,0 1,2 3,2c2,1 5,3 6,4c1,2 3,3 3,2c1,0 1,1 3,10l1,6l-3,6c-5,8 -15,34 -15,40c0,2 0,2 -1,1c0,-2 1,-8 5,-19c2,-6 2,-8 -1,-3c-1,4 -1,3 0,-2c1,-2 1,-2 0,-1c-1,2 -2,3 -2,4c0,1 0,1 -1,1c-1,-1 -3,5 -2,8c0,2 0,2 -1,1c-1,-1 -1,-1 0,2c0,2 0,3 -1,2c0,0 -1,1 -1,4c0,2 1,4 1,3c1,0 1,-1 1,-2c0,-2 1,-3 1,-4c1,-2 1,-2 0,1c0,2 0,4 -1,5c-1,5 32,0 56,-8c11,-3 13,-4 11,-6c0,-1 -2,-4 -3,-6c-2,-6 -1,-5 4,2l4,6l-2,2c-5,4 -27,11 -48,14c-22,3 -23,3 -23,1c-1,-1 -2,-2 -2,-2c-1,0 -1,-8 0,-16c1,-3 4,-13 6,-21c2,-8 4,-15 4,-16c-1,-1 -3,-1 -6,-1c-4,0 -5,0 -7,4c-1,2 -3,7 -4,11c-1,3 -4,11 -7,17c-2,6 -4,12 -5,14c0,2 -1,4 -1,5c-1,1 -2,4 -3,6c-1,3 -2,5 -3,5c-1,0 -1,0 -1,-1zm32,-20c0,-1 1,-3 2,-5c0,-2 1,-3 1,-2c0,1 -1,3 -1,5c-1,2 -2,3 -2,2zm30,-3c-5,-4 -7,-10 -8,-25c0,-12 2,-22 7,-33c3,-7 6,-9 10,-6c2,0 3,1 3,2c-1,0 -1,1 0,2c0,1 1,2 4,0c5,-1 6,-1 10,4c7,9 7,10 6,21c-1,5 -2,11 -2,13c0,8 -3,11 -5,5c-1,-2 -1,-3 -1,-1c1,1 1,3 1,5c1,1 0,2 -9,7c-7,3 -11,5 -12,7l-1,2l-3,-3zm12,-9c4,-2 8,-4 9,-4c1,0 1,-1 0,-4c-1,-2 -2,-3 -3,-2c-3,1 -8,0 -10,-1c0,-1 -1,-1 -1,-1c-1,1 -4,14 -4,14c0,2 2,1 9,-2zm5,-24c0,-1 -1,-2 -2,-3c-2,-1 -2,-1 -3,2l-2,3l3,0c3,0 4,0 4,-2zm-48,32c0,-1 1,-2 1,-3c1,-2 1,-2 1,-1c0,1 -1,2 -1,4c-1,1 -1,1 -1,0zm395,-17c-1,-3 0,-4 4,-11c4,-7 15,-25 21,-33c1,-2 1,-2 -3,-2c-3,0 -5,-1 -7,-3c-3,-2 -3,-4 -3,-8c0,-3 0,-5 -1,-6c0,-1 1,-2 1,-3c2,-2 8,-2 35,0l10,0l0,3c1,2 1,6 2,8c0,4 0,5 -2,6c-2,0 -4,3 -6,7c-6,13 -11,27 -13,33c-1,3 -2,6 -3,6c-1,0 -4,-4 -5,-6c0,-1 0,-3 -1,-4c0,-2 0,-2 2,-1c2,2 2,2 2,-3c1,-4 5,-21 8,-29c0,-2 0,-2 -2,-2c-2,0 -4,2 -8,6c-6,6 -19,25 -25,36c-2,5 -4,8 -5,8c0,0 0,-1 -1,-2zm-27,-1c-4,-2 -9,-9 -9,-11c1,-2 5,-4 18,-9l11,-4l3,-6c2,-8 3,-10 7,-13c2,-2 4,-3 7,-3c3,0 4,1 4,10c1,5 1,5 -3,8c-6,5 -10,11 -10,14c0,4 -2,7 -11,11c-10,5 -13,5 -17,3zm78,-20c-2,-2 -1,-18 1,-19c2,-1 5,-1 19,3c12,3 14,3 9,4c-3,0 -4,1 -4,4c0,2 -1,4 -2,5c-6,5 -20,7 -23,3zm-82,-3c-3,-2 -5,-6 -5,-13c0,-2 0,-4 0,-5c-2,-2 3,-3 19,-4c13,0 16,0 13,1c-4,1 -6,3 -4,5c1,1 0,3 -2,5c-3,6 -6,9 -11,10c-2,0 -4,1 -5,1c-1,1 -3,0 -5,0zm4,-27c-4,-2 -5,-5 -5,-13c0,-9 0,-9 13,-8c9,1 15,3 22,9c3,2 4,6 1,7c-7,3 -10,4 -18,4c-3,0 -7,0 -8,1c-1,0 -3,0 -5,0z" fill="#898989"/>
  <path id="svg_5" d="m793,225c-2,-2 -1,-2 1,-5c1,-1 4,-6 6,-11c2,-5 5,-10 7,-12c2,-5 2,-5 1,-5c-2,0 -12,9 -21,20c-3,3 -6,6 -6,6c-1,0 -1,-2 -1,-3c-1,-1 -1,-2 0,-2c2,1 22,-26 21,-27c-2,-1 -13,11 -16,15c-1,3 -3,4 -3,2c0,-1 1,-3 3,-6c2,-5 2,-6 1,-6c0,0 -1,2 -2,4c-1,2 -3,5 -4,6c-2,2 -2,2 -2,1c0,-2 0,-2 -1,1l-2,3l-1,-3c-1,-4 0,-8 5,-17l3,-7l-2,-3c-2,-2 -4,-5 -4,-8c-1,-3 -2,-6 -3,-7c0,-1 4,-2 7,-1c4,2 5,1 2,-3c-3,-4 -4,-11 -2,-19c0,-4 1,-7 1,-8c-1,-1 -6,7 -8,13c-1,3 -3,12 -4,19c-2,12 -2,14 -1,26c1,7 1,15 1,18c0,3 1,5 2,6c1,1 1,1 -1,1c-1,-1 -3,-1 -3,-1c-1,0 -1,-1 -1,-3c0,-2 -1,-6 -2,-9c0,-4 -1,-11 -1,-16c0,-6 -1,-10 -1,-9c-1,0 -1,-2 0,-4c0,-3 0,-3 -1,-3c-3,1 -5,4 -3,5c1,1 2,3 2,5c0,2 -1,3 -3,5c-4,4 -8,5 -9,3c-1,-1 -2,-1 -3,-1c-1,1 -1,20 0,25c1,5 0,8 -3,4c-2,-2 -3,-3 -3,0c0,2 -2,4 -3,4c-1,0 -7,-12 -8,-16c-1,-4 0,-24 0,-31c2,-13 7,-34 10,-41c4,-8 11,-16 14,-16c0,0 2,1 4,3c2,2 5,3 13,1c2,0 4,0 5,0c1,1 7,9 7,10c0,1 2,-3 5,-8c8,-15 10,-17 15,-11c3,3 3,3 7,2c3,-1 8,-2 12,-3l7,-1l4,4c3,3 5,6 5,6c0,1 -1,4 -3,7c-2,4 -2,6 -2,14c0,6 0,10 -1,11c0,0 -6,3 -12,5c-20,8 -19,8 8,8c15,-1 21,-1 17,0c-4,1 -8,2 -9,2c-2,1 -5,2 -6,3c-4,0 -5,2 -3,3c1,2 1,3 0,3c-1,0 -2,1 -3,2c-1,0 -5,1 -8,2c-5,0 -7,1 -7,1c1,2 17,2 20,1c3,-1 4,0 8,5l3,5l-4,4c-2,3 -6,8 -8,12c-4,7 -4,8 -4,15l0,7l-5,-4c-5,-5 -5,-6 -1,-3l2,1l0,-5c0,-5 2,-17 3,-20c0,-3 -2,-2 -5,0c-1,1 -2,4 -3,6c-1,2 -2,3 -3,4c-1,0 -5,5 -9,11l-7,11l-1,-3zm-39,-56c6,-3 7,-4 7,-6c0,-3 -1,-3 -4,1c-2,1 -3,2 -6,2c-3,0 -4,1 -4,2c-1,2 -1,5 0,5c0,0 4,-2 7,-4zm7,-25c1,-5 1,-9 0,-9c-1,0 -7,9 -8,12c-1,3 -1,3 3,3c2,0 4,0 4,1c0,4 1,2 1,-7zm45,-1c8,-1 15,-5 16,-7c0,-1 0,-2 0,-3c-1,0 -6,1 -12,4c-3,0 -6,1 -8,1c-3,-1 -5,0 -6,5c0,3 0,3 2,3c1,-1 4,-2 8,-3zm8,-18c9,0 9,-3 0,-2c-6,0 -7,0 -8,2c-1,2 -1,2 0,2c1,-1 5,-1 8,-2zm-186,99c-4,-3 -5,-8 -6,-20c-1,-16 2,-23 10,-25c2,0 3,-1 3,-2c0,-1 2,-2 9,-3l5,0l0,-10l0,-9l-6,5c-5,5 -10,10 -13,15c-2,2 -4,6 -11,13c-2,2 -4,4 -5,4c-1,0 -4,-2 -7,-5c-4,-2 -9,-6 -13,-8c-3,-2 -6,-4 -5,-4c0,-2 4,0 15,7l10,6l5,-6c6,-9 16,-23 16,-24c0,-1 -1,-1 -9,2c-6,1 -9,1 -15,-4c-2,-2 -4,-3 -5,-4c-2,0 -3,-3 -1,-5c2,-1 10,-3 26,-5l14,-2l2,-4c2,-5 1,-6 -3,-3c-3,3 -8,3 -14,0c-2,-2 -5,-3 -6,-3c-2,0 -4,-2 -4,-5c0,-4 7,-12 10,-11c0,1 2,0 4,0c4,-3 23,-5 34,-5c11,0 21,2 26,5c2,1 2,1 -3,0c-3,0 -6,0 -6,0c-1,-1 -11,1 -14,2c-2,2 -3,3 0,4c1,1 1,1 -2,2c-2,1 -5,2 -6,2c-2,1 -4,2 -5,3c-2,1 -2,2 -1,6c1,3 2,5 3,6c1,0 12,-1 26,-4c8,-2 10,-3 11,-4c0,-2 2,-3 3,0c1,2 -2,4 -8,5c-3,1 -6,3 -7,3c-2,1 -6,2 -9,3c-9,3 -10,4 -5,5c7,1 25,10 32,16c6,7 11,13 11,15c0,2 0,2 -2,0c-2,-3 -4,-5 -7,-7c-3,-1 -3,-1 -4,2l-1,3l-4,-2c-4,-4 -12,-7 -21,-9c-11,-2 -14,-3 -15,-7l-2,-3l0,4c-1,2 -1,6 -2,9l0,5l6,0c4,-1 9,-2 11,-3l3,-2l4,4c2,2 4,5 5,6c1,3 1,9 0,11c-1,2 -2,7 -2,15c0,7 0,13 0,13c0,1 -2,0 -5,-1c-6,-1 -11,-1 -21,1c-9,1 -20,6 -22,8c-2,3 -4,2 -7,-1zm16,-15c5,-1 22,-2 25,-1l2,1l0,-6c-1,-4 -1,-7 -2,-7c0,-1 -1,0 -3,1c-1,1 -2,2 -1,4c0,2 0,2 -8,3c-4,1 -8,2 -9,3c-1,0 -3,-1 -5,-2c-2,-2 -4,-3 -4,-3c-1,0 -3,6 -3,8c0,1 1,1 2,1c1,-1 3,-1 6,-2zm23,-15c2,0 2,-1 2,-3l0,-3l-7,2c-11,3 -19,2 -22,-3c-1,-2 -2,-1 -1,4l0,4l13,-1c7,0 14,0 15,0zm-249,31c0,-1 -4,-3 -8,-5c-8,-5 -8,-6 0,-3c2,1 4,2 4,2c1,0 0,-4 -2,-9c-2,-8 -2,-10 -2,-25c0,-15 0,-16 2,-19c4,-3 5,-3 9,5c3,6 4,8 3,9c-1,2 -4,10 -7,21c-2,5 0,14 2,19c1,2 2,4 2,5c0,1 -2,1 -3,0zm61,-3c-2,-2 -3,-4 -3,-4c0,0 1,0 2,1c1,2 4,1 9,-6c6,-8 6,-7 -3,-7c-6,0 -9,-4 -10,-11c-1,-3 -1,-7 -2,-7c-1,-3 5,-5 15,-4c5,1 12,1 16,0l8,0l0,-5c0,-2 1,-6 1,-8c2,-2 2,-3 5,-3c3,0 3,0 3,5c0,3 0,7 0,8l0,2l16,-1c8,0 16,-1 18,-1c1,-1 4,-1 6,-1c4,0 4,0 3,1c-4,3 -9,8 -9,10c0,2 -3,3 -10,6l-3,1l3,5c2,3 4,6 5,8c0,2 0,3 -3,4c-2,1 -5,1 -9,1c-8,-1 -10,-3 -10,-9c-1,-3 -1,-5 -1,-6c-1,0 -2,0 -4,0c-5,1 -6,3 -4,15c0,5 1,10 1,10c-1,0 -4,-2 -8,-4c-4,-2 -7,-4 -5,-4c1,1 3,1 4,2c3,0 3,0 3,-3c-1,-2 -1,-6 -2,-8c0,-3 -1,-5 -1,-6c-2,-1 -9,2 -10,4c0,1 -1,2 -1,3c1,0 -1,2 -3,5c-2,2 -3,3 -2,2c1,-1 1,-2 1,-3c0,0 -3,3 -6,6c-3,3 -5,6 -6,6c0,0 -2,-2 -4,-4zm-140,1c-8,-6 -11,-33 -6,-46c2,-3 2,-4 5,-4c2,0 4,1 5,1c1,1 3,2 5,1c4,0 5,-1 2,-3c-1,0 -1,-2 -1,-8c0,-7 0,-9 6,-16c4,-4 4,-4 2,-3c-1,0 -5,1 -9,1c-6,0 -7,-1 -13,-5c-4,-2 -8,-4 -8,-5c0,-1 1,-3 2,-5c2,-3 8,-5 16,-6c2,-1 6,-1 10,-2c4,-1 7,-1 8,-1c0,0 1,-1 1,-3c0,-6 7,-16 10,-16c2,0 6,1 9,3c8,3 11,7 10,12l0,3l13,0c15,1 27,3 32,6c5,2 5,4 1,3c-4,-1 -35,-1 -35,0c0,0 0,1 1,2c1,1 1,1 -15,4c-6,0 -13,2 -15,3c-5,2 -6,2 11,0c4,-1 9,-2 11,-3c3,-1 3,-1 5,2c1,1 3,3 4,5c3,4 3,8 -2,16l-5,7l-8,-1c-10,0 -21,2 -26,6l-2,3l6,-1c6,0 28,-2 36,-4l5,0l-4,1c-2,1 -5,3 -6,3c-2,2 -3,3 -2,5c1,3 0,4 -8,7c-3,1 -5,2 -3,2c1,0 3,-1 4,-1c3,-1 3,-1 9,4c3,3 5,6 5,8c0,1 -1,4 -3,6l-4,5l-9,0c-4,1 -10,1 -12,2c-4,1 -9,4 -9,5c0,2 -3,1 -6,-2c-3,-3 -3,-4 -3,-11c0,-4 0,-8 1,-9c1,-3 1,-3 -3,-4c-2,0 -4,0 -4,1c-1,1 -6,17 -7,23c0,3 -1,6 -2,8l-3,3l-2,-2zm42,-16c6,0 8,-1 8,-2c0,-1 -2,-2 -4,-2c-3,0 -6,0 -7,0c-2,0 -3,0 -4,3c-1,2 -2,3 -1,3c1,-1 4,-2 8,-2zm3,-45l8,0l-1,-3c-1,-2 -1,-3 -8,-3c-4,0 -7,1 -7,1c0,1 -1,3 -3,4l-3,3l3,0c1,-1 6,-1 11,-2zm-187,59c-4,-3 -6,-7 -5,-15c1,-7 2,-8 3,-8c1,0 1,0 0,1c-1,0 -1,1 -1,2c1,1 1,0 2,-2c1,-2 4,-5 6,-7c3,-3 4,-3 8,-3c2,1 5,1 6,2c4,3 10,12 10,15c0,4 -2,9 -4,12l-2,3l1,-3c2,-5 0,-5 -4,-1c-2,4 -3,5 -6,5c-2,0 -5,0 -7,1c-2,0 -4,0 -7,-2zm17,-6c4,-5 1,-15 -6,-15c-3,0 -8,5 -8,9c0,8 9,12 14,6zm-143,6c-1,-1 -2,-2 -2,-2c-4,0 -23,-25 -25,-33c-1,-4 2,-2 6,5c2,3 6,9 8,11l5,6l2,-4c1,-2 2,-8 4,-13c1,-5 3,-14 5,-20c2,-6 3,-11 3,-12c0,-1 -2,-1 -6,-1c-5,0 -6,0 -9,-3c-2,-2 -3,-4 -3,-4c0,-1 -1,-4 -2,-7c-2,-3 -3,-6 -2,-7c1,-2 8,-3 17,-2c5,0 9,1 10,1c0,0 2,-3 3,-6c0,-3 2,-7 2,-9c2,-3 9,-12 12,-14c2,-1 7,0 7,1c0,1 2,3 3,6c8,8 8,12 0,20l-5,6l4,2c2,1 5,3 6,5c1,1 3,2 3,1c1,0 1,1 1,2c1,1 1,5 2,8c1,6 1,8 -3,13c-1,1 -4,8 -6,14c-5,11 -7,14 -4,5c2,-5 2,-5 -1,-1c-1,4 -2,3 0,-1c1,-2 1,-3 0,-3c0,0 -1,1 -2,3c0,2 -1,3 -1,2c-1,-2 -4,9 -3,13c0,2 0,2 -1,1c-1,-1 -1,0 -1,3c0,3 1,5 1,5c0,-1 1,0 1,0c1,3 23,0 45,-5c11,-3 23,-7 23,-8c0,-1 -1,-3 -3,-6c-1,-3 -2,-5 -2,-6c1,0 8,9 9,11c0,2 -10,7 -20,10c-11,3 -32,8 -42,8c-4,1 -8,1 -9,2c-2,0 -5,-5 -5,-9c0,-5 3,-18 7,-33c2,-8 4,-14 4,-15c-1,-1 -3,-1 -6,-1c-5,0 -5,0 -7,4c-1,2 -3,7 -4,11c-1,3 -4,11 -6,17c-3,6 -5,12 -6,14c0,2 -1,4 -2,5c0,2 -1,3 -1,4c0,0 -1,2 -2,4c-1,2 -2,3 -2,2zm31,-12c0,-1 0,-1 1,0c0,1 0,1 0,2c-1,0 -1,-1 -1,-2zm-2,-1c0,-1 0,-1 1,0c0,1 0,1 0,2c-1,0 -1,-1 -1,-2zm4,-8c0,-3 0,-6 0,-7c1,0 1,1 1,3c-1,3 -1,3 0,2c1,-1 1,-1 1,0c0,1 -1,3 -1,5c-2,3 -2,3 -1,-3zm-4,0c0,-1 1,-2 1,-3c1,-2 1,-2 1,-1c0,1 -1,2 -1,4c-1,1 -1,1 -1,0zm32,-1c-4,-4 -6,-9 -7,-21c-1,-12 -1,-20 3,-31c3,-9 6,-14 9,-14c3,-1 6,1 6,5c1,2 1,2 3,1c1,0 3,-1 5,-1c2,0 3,0 7,4c4,5 7,10 6,13c0,1 -1,8 -1,14c-1,7 -2,13 -2,14c0,2 -3,1 -4,-2l-1,-3l0,3c1,1 1,3 1,4c1,1 -2,3 -9,7c-7,3 -11,5 -12,7l-1,2l-3,-2zm12,-10c4,-2 8,-4 9,-4c0,0 1,-1 1,-2c1,-1 0,-2 0,-1c0,0 -1,-1 -1,-2c-1,-1 -2,-2 -6,-2c-3,0 -6,0 -7,0c-1,-1 -2,0 -3,6c-2,7 -2,9 -1,9c0,0 4,-2 8,-4zm4,-22c2,0 1,-4 -1,-5c-2,-1 -2,-1 -3,2c-2,3 -2,4 1,4c1,-1 2,-1 3,-1zm348,12c-1,-2 0,-4 5,-12c3,-6 9,-15 13,-21l8,-11l-5,-1c-7,-1 -8,-3 -9,-13c0,-9 0,-9 6,-8c1,0 5,0 9,0c4,0 12,0 19,1l11,0l1,5c2,8 1,10 -1,12c-4,1 -16,27 -19,40c-2,7 -3,8 -7,1c-3,-6 -3,-8 0,-6c2,2 2,2 3,-2c1,-10 3,-19 5,-25c7,-20 -14,2 -32,33c-3,5 -5,10 -5,10c-1,0 -1,-1 -2,-3zm-28,-1c-4,-2 -8,-7 -8,-9c0,-3 4,-5 17,-9l12,-5l2,-6c3,-8 4,-10 8,-13c2,-2 4,-3 7,-3c1,0 3,0 3,0c0,0 0,4 1,8c0,8 0,8 -2,10c-5,2 -11,11 -11,14c0,4 -3,7 -12,11c-8,4 -13,5 -17,2zm79,-19c-2,-2 -1,-18 1,-19c1,-1 3,-1 4,0c7,1 22,4 24,5l3,1l-3,1c-3,0 -4,1 -4,4c0,1 -1,3 -2,5c-4,4 -20,7 -23,3zm-80,-3c-5,-2 -6,-4 -7,-12c0,-5 0,-8 1,-8c0,-1 8,-1 18,-1c9,-1 15,0 13,0c-4,1 -5,2 -4,5c1,5 -6,12 -14,15c-3,1 -5,2 -5,2c0,0 -1,0 -2,-1zm-1,-30c-3,-4 -3,-17 -1,-18c3,-1 20,1 23,2c6,4 8,5 11,7c3,3 3,3 2,5c0,2 -2,3 -3,3c-1,0 -2,0 -2,1c-1,1 -6,2 -19,2l-9,1l-2,-3z" fill="#696969"/>
  <path id="svg_6" d="m793,225c-2,-2 -2,-3 -1,-3c1,0 5,-6 8,-13c4,-8 8,-14 8,-14c1,-2 1,-3 0,-3c-2,0 -9,6 -18,17c-5,5 -9,9 -9,9c0,0 -1,-1 -1,-2c-1,-1 0,-2 0,-2c1,0 4,-4 8,-8c7,-10 12,-17 14,-19c1,-1 1,-1 -1,-1c-1,-1 -8,3 -8,5c0,0 -1,2 -3,4c-2,2 -4,5 -5,6c-1,2 -2,3 -2,3c-1,0 0,-3 2,-8c2,-4 2,-5 1,-5c0,0 -1,1 -2,3c-2,4 -6,9 -6,7c0,-1 -1,0 -1,2l-2,3l-1,-3c-1,-4 0,-8 5,-16l3,-8l-3,-4c-2,-2 -3,-5 -3,-6c0,-1 -1,-3 -2,-5c0,-2 -1,-3 -1,-4c1,0 4,0 8,0c4,1 4,0 1,-4c-5,-6 -4,-19 3,-33c8,-16 12,-20 16,-14c2,4 3,4 11,1c4,-1 8,-2 11,-3c3,0 4,0 8,4c5,5 6,7 3,12c-3,4 -3,6 -3,13c0,4 0,8 0,9c2,2 -1,4 -14,10c-8,3 -14,6 -14,6c0,1 8,1 22,1c16,-1 21,-1 17,0c-3,1 -7,2 -9,3c-1,0 -3,1 -4,1c-1,0 -2,1 -3,1c-2,1 -2,2 -1,4c1,2 1,2 0,2c-1,0 -3,1 -3,2c-1,0 -5,1 -8,2c-5,0 -7,1 -7,1c1,2 16,2 20,1c3,-1 3,-1 7,5l4,5l-4,5c-7,7 -12,18 -13,26l0,6l-4,-4c-2,-2 -3,-3 -2,-2c2,2 3,1 3,-4c0,-3 1,-9 2,-13c0,-5 1,-9 1,-9c0,0 -1,0 -1,0c-2,0 -5,3 -7,8c-1,2 -3,4 -4,4c-1,0 -5,7 -12,18l-3,4l-1,-3zm13,-82c8,-1 14,-4 16,-7c2,-3 -1,-3 -9,0c-5,1 -9,2 -11,2c-3,-1 -5,0 -6,5c-1,3 -1,3 1,3c2,-1 5,-2 9,-3zm8,-18c9,0 9,-2 0,-2c-5,0 -7,0 -8,1c-1,2 -1,3 0,3c1,-1 5,-1 8,-2zm-185,100c-4,-4 -6,-10 -7,-21c-1,-16 2,-23 10,-25c2,0 3,-1 3,-2c0,-1 2,-2 10,-3l5,0l-1,-10l0,-9l-7,6c-4,3 -9,9 -11,12c-2,3 -4,6 -5,7c0,0 -2,3 -4,5c-7,8 -8,8 -17,1c-3,-2 -7,-5 -10,-7c-6,-3 -8,-6 -4,-4c1,0 7,3 13,7l10,6l2,-3c8,-9 19,-26 19,-27c0,-1 -1,-1 -2,-1c-1,1 -4,2 -7,3c-5,1 -6,1 -10,-1c-6,-4 -12,-8 -12,-10c0,0 1,-2 3,-2c3,-2 17,-4 31,-6l7,0l2,-5c1,-2 2,-4 2,-5c0,-1 -3,0 -5,2c-3,3 -8,2 -13,-1c-3,-1 -6,-2 -7,-2c-2,0 -4,-2 -4,-5c0,-4 6,-10 10,-10c1,-1 5,-2 7,-2c14,-5 41,-5 53,-1c7,3 7,4 -1,2c-5,-1 -12,0 -17,2c-3,1 -4,2 -1,4c1,0 0,1 -3,2c-11,5 -12,5 -11,9c0,2 0,5 1,6l1,3l11,-2c6,-1 14,-2 16,-3c11,-3 12,-3 11,-5c0,0 0,-1 1,-1c1,0 1,1 2,2c1,2 -2,4 -10,6c-4,1 -8,3 -8,3c-1,0 -4,1 -8,2c-3,2 -6,3 -7,3c0,0 2,1 4,2c6,1 25,10 31,16c6,5 12,13 12,15c0,2 0,2 -2,0c-1,-3 -9,-8 -11,-8c-1,1 -1,1 -1,2c1,0 0,1 0,2c-1,1 -1,1 -4,-1c-3,-2 -12,-6 -16,-7c-14,-2 -21,-6 -21,-10c0,-5 -2,3 -3,10l0,7l7,0c4,-1 8,-2 9,-2c3,-3 5,-3 6,-1c1,2 3,4 5,6c3,4 4,6 1,15c-1,4 -1,9 -1,16c0,5 0,10 0,10c0,1 -2,0 -4,-1c-6,-1 -13,-1 -23,1c-10,2 -15,4 -19,7c-5,4 -5,4 -8,1zm12,-15c4,-2 21,-3 26,-2c2,1 4,1 5,1c0,-1 -2,-11 -3,-13c0,-1 -1,-1 -3,1c-2,1 -3,2 -2,3c1,1 1,2 1,2c0,1 -5,2 -10,3l-8,2l-4,-3c-5,-3 -6,-2 -7,3c0,4 0,5 5,3zm26,-16c2,0 2,-1 2,-3c0,-3 0,-3 -2,-2c-16,4 -23,4 -27,-3c-2,-1 -2,-1 -2,1c0,1 0,3 1,5l0,3l13,0c7,-1 14,-1 15,-1zm-249,30c-1,-1 -5,-3 -8,-5c-3,-2 -6,-3 -6,-4c0,0 2,1 5,2c3,1 5,2 6,2c0,0 -1,-4 -3,-9c-2,-8 -2,-10 -2,-25c0,-15 0,-16 3,-19c3,-3 5,-2 9,5l3,7l-5,12c-4,12 -4,14 -4,20c1,3 2,8 3,10c3,6 2,8 -1,4zm62,-1c-3,-3 -3,-4 -1,-3c2,0 4,-1 8,-7c5,-7 5,-8 -3,-7c-6,0 -9,-3 -10,-10c-1,-4 -1,-7 -2,-8c-1,-4 5,-5 16,-4c4,1 12,1 16,0l7,0l0,-5c0,-2 1,-6 1,-8c2,-2 2,-3 5,-3c3,0 3,0 3,5c0,3 0,7 0,8l0,2l16,-1c9,0 17,-1 18,-1c1,-1 4,-1 6,-1l4,0l-2,2c-5,3 -8,6 -8,9c0,1 -1,2 -6,4c-3,1 -6,2 -6,2c-2,0 -1,3 1,5c2,2 6,8 6,10c0,2 -4,4 -10,4c-9,0 -12,-2 -12,-10c-1,-4 -1,-5 -4,-5c-1,0 -3,1 -4,1c-2,2 -2,2 -1,12c0,6 0,11 0,11c0,0 -4,-1 -7,-3c-4,-2 -7,-4 -5,-3c1,0 3,1 5,1l3,0l-2,-5c0,-3 -1,-7 -1,-8c0,-4 -2,-5 -6,-3c-4,1 -8,5 -7,7c1,0 0,2 -1,3c-2,1 -2,2 -2,1c1,0 1,-1 0,-1c0,0 -3,3 -6,6c-3,3 -6,6 -6,6c0,0 -2,-1 -3,-3zm-141,0c-4,-2 -7,-11 -9,-23c0,-6 1,-17 4,-23c1,-3 2,-4 4,-4c2,0 4,1 5,2c1,1 3,1 5,0c4,0 5,-1 3,-3c-2,-1 -3,-9 -2,-14c1,-3 3,-6 6,-9c3,-3 5,-5 5,-6c0,0 -2,1 -4,2c-4,1 -10,1 -14,0c-5,-2 -15,-8 -15,-9c0,-1 1,-3 2,-4c2,-4 8,-6 16,-7c2,-1 7,-1 11,-2c3,0 7,-1 7,-1c1,0 1,-1 1,-3c0,-2 1,-5 2,-6c2,-5 7,-10 9,-10c1,0 7,2 13,5c3,2 6,8 5,10c-1,3 -1,3 16,4c17,1 24,2 30,5c4,3 4,3 -1,3c-6,-1 -32,-2 -34,-1c-1,1 -1,1 1,3c1,0 1,1 0,1c-3,0 -28,5 -31,6l-4,2l3,0c11,-1 22,-3 24,-5c3,-1 3,-1 7,5c2,3 4,7 4,8c0,2 -2,6 -4,10l-5,6l-11,0c-12,1 -17,2 -24,7l-2,2l7,0c9,-1 31,-4 36,-5c3,0 3,0 -2,3c-5,2 -6,3 -6,6c0,4 0,5 -8,7c-5,2 -5,2 -2,2c2,0 4,0 5,-1c2,-1 3,0 8,4c3,3 5,7 5,8c0,1 -2,4 -4,6l-3,5l-7,0c-9,0 -20,3 -22,6c-2,3 -2,3 -6,-1c-4,-3 -4,-3 -4,-11c0,-4 0,-8 1,-9c1,-3 1,-3 -3,-4c-4,-1 -4,-1 -5,3c-3,6 -6,19 -6,23c0,1 -1,4 -2,5c-3,3 -3,3 -5,2zm45,-16c4,0 5,0 5,-2c0,-2 0,-2 -3,-2c-2,1 -4,1 -6,0c-3,-2 -3,-2 -5,1c-4,4 -4,5 0,4c2,-1 6,-1 9,-1zm-6,-44c3,-1 7,-1 10,-1c4,0 4,0 3,-3c-1,-2 -2,-2 -8,-2c-6,0 -7,0 -8,1c-1,1 -2,3 -4,5c-2,2 -2,2 0,2c1,-1 4,-1 7,-2zm-181,57c-5,-4 -6,-7 -5,-13c1,-6 2,-9 2,-5c0,1 1,1 2,-2c3,-6 9,-11 12,-11c4,0 8,2 7,3c0,1 0,1 1,1c2,-2 10,9 10,14c0,2 -2,8 -3,8c0,0 -1,0 -2,-1c0,-1 -2,0 -4,3c-2,4 -3,5 -6,5c-2,0 -5,0 -7,1c-3,0 -4,0 -7,-3zm17,-5c4,-5 1,-15 -5,-15c-3,0 -8,2 -8,5c-2,3 -1,6 1,10c2,3 3,3 6,3c3,0 4,-1 6,-3zm-6,-24c0,-1 -1,-1 -2,-1c-1,0 -1,0 0,1c2,1 2,1 2,0zm-138,29c-10,-8 -22,-23 -25,-32c-3,-7 0,-5 4,2c4,7 12,17 14,17c1,0 3,-5 5,-14c1,-4 4,-14 6,-20c1,-7 3,-13 3,-14c0,-1 -1,-1 -6,-1c-5,0 -6,0 -8,-3c-3,-3 -9,-16 -8,-18c1,-2 10,-3 22,-2l6,1l1,-6c3,-9 4,-11 11,-18c6,-6 7,-7 10,-4c12,15 13,17 5,26c-4,3 -6,6 -6,6c0,1 2,2 4,3c8,3 10,6 12,14l1,7l-4,7c-2,3 -5,8 -6,11c0,3 -2,5 -2,5c0,0 -2,0 -2,2l-2,2l1,-2c1,-3 2,-9 2,-9c-1,0 -1,2 -2,4c-1,2 -2,4 -3,5c-2,1 -4,10 -4,13c1,2 1,2 0,1c0,-1 -1,0 -1,3c-1,8 2,9 19,6c19,-2 51,-11 51,-13c0,-1 -1,-3 -3,-6c-1,-3 -2,-5 -2,-6c1,0 8,11 8,12c-2,5 -34,14 -60,17l-11,2l-2,-3c-2,-3 -2,-4 -1,-11c0,-5 3,-16 6,-24c2,-9 4,-17 4,-18c0,-2 -1,-2 -5,-2c-6,0 -6,0 -8,4c-1,2 -4,9 -6,15c-5,15 -10,29 -12,32c0,2 -1,4 -1,4c0,1 -1,2 -2,4c-1,2 -2,2 -3,1zm662,-9c-2,-3 -4,-8 -4,-10c-1,-8 0,-30 1,-36c1,-6 2,-7 3,-14c3,-14 8,-26 15,-34c4,-4 5,-4 8,0c2,2 3,2 11,2l8,-1l3,4c5,6 5,6 2,9c-4,4 -6,10 -9,23c-3,15 -3,23 -2,36c1,6 1,13 1,15c0,3 0,5 2,6c1,2 0,3 -3,1c-1,-1 -2,-2 -2,-4c0,-2 0,-5 -1,-7c-1,-3 -2,-10 -3,-20c0,-12 -1,-19 -1,-20c-1,0 -2,1 -4,2c-3,3 -4,3 -7,3c-3,-1 -3,-1 -4,3c0,2 -1,4 0,4c0,1 3,-1 6,-3c8,-4 9,-4 6,-1c-2,3 -2,5 0,5c1,0 2,1 2,4c0,3 -1,4 -5,6c-4,3 -4,3 -7,2c-2,-1 -3,-2 -3,-1c-1,1 -1,22 0,26c1,5 0,6 -3,2c-3,-2 -3,-2 -3,0c0,1 -2,5 -3,5c0,0 -2,-3 -4,-7zm30,-73c0,-4 0,-4 -2,-3c-2,2 -8,13 -8,14c0,1 2,1 4,1c2,0 4,0 4,1c0,3 0,2 1,-3c0,-3 1,-7 1,-10zm-660,71c0,-1 0,-1 1,0c0,1 0,1 0,2c-1,0 -1,-1 -1,-2zm-2,-1c0,-1 0,-1 1,0c0,1 0,1 0,2c-1,0 -1,-1 -1,-2zm32,-10c-1,0 -3,-2 -4,-4c-2,-5 -4,-22 -4,-30c1,-9 6,-25 10,-28c3,-4 7,-4 9,1c1,2 2,3 3,2c4,-1 8,-1 9,1c8,9 10,11 9,15c0,1 0,5 -1,9c0,4 -1,10 -1,13c-1,4 -2,7 -2,7c-1,0 -2,-1 -2,-3c-2,-3 -2,-3 -2,-1c0,2 -2,2 -3,0c-1,-1 -2,-2 -6,-2c-3,0 -6,0 -7,0c-1,-1 -2,0 -3,5c-2,6 -2,10 -1,10c0,0 3,-2 6,-3c2,-2 6,-3 9,-4c2,-1 4,-2 4,-2c1,-1 1,-1 2,0c1,1 1,2 1,2c0,0 -4,2 -8,4c-5,2 -10,5 -12,7c-2,2 -3,3 -3,3c0,0 -2,-1 -3,-2zm15,-31c3,0 3,-4 0,-5c-2,-1 -3,0 -4,4c-1,2 0,2 4,1zm-43,27c0,-1 0,-1 1,0c0,1 0,1 0,2c-1,0 -1,-1 -1,-2zm393,-15c-1,-3 0,-5 6,-15c4,-7 10,-16 13,-21c3,-4 6,-8 6,-8c0,-1 -2,-1 -5,-1c-7,-1 -8,-3 -9,-12c0,-8 0,-8 2,-9c2,-1 4,-1 4,-1c0,1 9,1 19,1c10,1 19,1 19,2c1,1 3,9 3,12c0,2 -1,3 -2,3c-2,1 -4,3 -8,13c-3,7 -6,14 -6,15c-1,1 -2,3 -2,4c0,0 -2,3 -2,7c-1,3 -2,6 -3,7c-1,3 -5,-2 -6,-9l-1,-2l2,2l2,2l2,-11c1,-6 3,-14 4,-18c3,-9 2,-10 -2,-8c-5,2 -24,28 -33,45l-3,5l0,-3zm-32,-4c-3,-3 -5,-6 -5,-6c0,-2 5,-5 17,-9l13,-5l2,-7c3,-9 8,-15 13,-15c2,0 4,0 4,1c0,0 0,4 1,7l0,7l-6,6c-6,6 -7,7 -7,10c0,5 -2,7 -11,12c-6,3 -9,4 -12,4c-4,0 -5,-1 -9,-5zm82,-16c-2,-1 -1,-18 1,-19c2,-1 4,-1 18,3c12,3 14,3 10,4c-3,0 -4,1 -4,4c0,4 -2,5 -8,8c-6,2 -15,3 -17,0zm-81,-4c-4,-1 -5,-3 -5,-11c-1,-7 -1,-8 1,-8c1,-1 9,-1 18,-1c11,-1 14,0 11,0c-4,1 -4,1 -4,5c1,2 0,4 -1,6c-2,2 -3,4 -3,4c-1,0 -2,1 -3,2c-1,1 -3,2 -6,3c-4,1 -5,1 -8,0zm2,-27c-2,-1 -4,-6 -4,-12c0,-9 1,-9 11,-8c11,1 12,1 18,5c9,6 9,6 8,9c-1,2 -2,3 -7,4c-5,2 -23,3 -26,2z" fill="#515151"/>
  <path id="svg_7" d="m630,226c-4,-2 -7,-10 -8,-22c0,-13 1,-20 6,-23c2,-1 4,-2 5,-2c1,0 2,-1 3,-2c1,-1 3,-2 8,-3l6,0l-1,-8c0,-13 0,-12 -7,-5c-4,4 -9,9 -10,11c-5,7 -15,19 -17,19c-1,1 -4,0 -9,-4c-3,-2 -7,-5 -11,-7c-5,-4 -8,-6 -5,-6c0,0 5,3 10,6c16,9 14,9 21,0c8,-12 14,-21 14,-22c0,-1 -1,-1 -2,-1c-13,4 -13,4 -17,2c-2,-1 -4,-2 -4,-3c0,0 -2,-2 -4,-3c-9,-5 -2,-8 22,-11l15,-1l2,-4c3,-7 3,-7 -3,-4c-3,1 -5,2 -7,2c-2,-1 -11,-4 -15,-6c-2,-1 -2,-6 -1,-9c2,-2 8,-6 9,-5c0,0 2,-1 4,-2c6,-2 23,-4 34,-4c10,0 20,2 25,4c2,2 2,2 -2,1c-2,0 -5,0 -6,0c-1,-1 -14,2 -15,3c-1,1 -1,1 0,2c1,2 1,2 -2,3c-2,1 -4,2 -6,2c-5,2 -6,4 -5,10c1,2 1,5 1,5c1,1 19,-2 28,-4c10,-2 12,-3 11,-5c0,0 0,-1 1,-1c1,0 1,1 2,2c1,2 -2,4 -9,6c-3,1 -7,2 -8,3c-2,0 -6,2 -9,2c-7,2 -8,4 -3,4c2,1 8,4 15,6c12,6 21,14 26,21c2,5 3,8 0,4c-2,-3 -10,-7 -11,-7c-1,1 -1,1 -1,2c1,0 0,1 0,2c-1,1 -1,1 -4,-1c-4,-3 -11,-5 -20,-8c-11,-2 -15,-4 -16,-8c-2,-4 -2,-4 -3,-1c0,1 0,6 0,10l-1,7l7,0c4,-1 8,-2 9,-2c2,-2 6,-3 6,-1c0,0 2,3 4,6c4,5 5,6 2,15c-1,3 -1,9 -1,15c0,13 1,12 -4,10c-5,-1 -13,-1 -22,0c-10,2 -18,5 -21,9c-3,2 -3,2 -6,1zm13,-16c6,-2 20,-3 25,-2c4,1 4,1 4,0c-1,-1 -1,-4 -2,-7c0,-3 -1,-6 -1,-6c0,0 -2,1 -3,2c-2,1 -3,2 -2,3c2,3 1,3 -7,5c-10,2 -11,2 -15,-1c-4,-3 -5,-2 -6,3c0,5 -1,4 7,3zm24,-16c2,0 2,-1 2,-3c0,-3 0,-3 -2,-2c-15,4 -21,4 -26,-2c-3,-2 -3,-2 -3,0c0,1 0,3 1,5l0,3l13,0c7,-1 14,-1 15,-1zm125,31c0,-1 0,-3 1,-3c0,0 2,-3 4,-7c7,-13 12,-22 12,-23c0,0 -1,0 -1,0c-2,0 -9,6 -18,17c-5,5 -9,9 -9,9c-1,0 -1,-1 -1,-2c0,-1 0,-2 1,-2c0,0 4,-5 8,-10c4,-6 9,-12 11,-14c3,-3 3,-4 1,-4c-1,-1 -8,3 -8,5c0,0 -1,2 -3,3c-1,2 -3,5 -4,6c-4,5 -4,3 -1,-3c2,-6 2,-6 1,-6c0,0 -1,1 -2,3c-2,4 -6,9 -6,7c0,-1 -1,0 -1,1l-2,3l0,-2c-1,-4 -1,-6 3,-15l5,-10l-3,-2c-1,-1 -3,-6 -5,-9l-2,-7l6,0c3,1 5,0 5,0c0,0 -1,-2 -2,-4c-5,-6 -4,-20 4,-35c5,-10 9,-15 11,-15c1,0 3,2 4,4c1,1 2,3 2,3c0,0 4,-1 8,-3c14,-4 15,-4 20,1c5,5 6,8 4,10c-1,1 -2,3 -3,4c-1,3 -2,18 -1,20c2,2 -1,4 -14,10c-8,3 -14,6 -15,6c0,1 8,1 22,1c15,-1 20,-1 17,0c-2,1 -5,1 -6,2c-2,0 -4,1 -6,2c-5,1 -5,2 -4,5c1,1 1,2 -2,2c-1,1 -2,1 -2,2c0,0 -3,1 -7,2c-11,1 -9,3 3,2c5,0 10,0 11,0c2,0 3,1 6,5l4,5l-5,6c-6,6 -11,17 -12,25l0,6l-4,-4c-2,-2 -3,-3 -2,-2c1,0 2,1 2,1c0,0 1,-4 1,-9c1,-4 1,-10 2,-13c1,-2 1,-4 1,-5c-2,-1 -5,2 -8,7c-1,3 -3,5 -4,5c0,0 -2,1 -3,3c-5,8 -12,18 -12,18c-1,0 -1,-1 -2,-2zm9,-80c2,-1 5,-2 7,-2c3,0 12,-5 14,-7c2,-4 -2,-4 -11,0c-4,1 -7,2 -9,2c-3,-1 -5,0 -6,5c-1,3 -1,4 5,2zm14,-20c8,-1 8,-3 -1,-3c-5,0 -7,1 -8,2c-2,2 -1,3 1,3c1,-1 5,-1 8,-2zm-397,99c-1,-1 -5,-3 -8,-5c-7,-4 -8,-5 -2,-2c7,3 7,3 7,0c-5,-14 -5,-15 -5,-32c0,-15 0,-16 3,-19c3,-3 5,-2 9,5c2,6 2,7 1,10c-1,2 -3,8 -4,13c-4,12 -4,18 0,26c1,2 2,5 2,5c0,2 -2,1 -3,-1zm62,-1c-3,-3 -4,-4 -1,-3c2,1 2,0 7,-6c4,-4 6,-8 6,-8c0,-1 -2,-1 -6,0c-3,0 -6,0 -7,-2c-3,-1 -4,-3 -6,-11l-1,-7l3,-1c2,-1 5,-1 12,-1c6,1 19,1 24,0c0,0 0,-2 0,-5c0,-2 1,-6 1,-8c2,-2 2,-3 5,-3l3,0l0,8l0,7l16,0c9,-1 17,-1 19,-2c1,-1 4,-1 5,-1l4,0l-3,2c-4,3 -7,6 -7,9c0,2 0,2 -11,6l-3,1l3,3c3,4 6,9 6,11c0,4 -12,5 -18,2c-3,-1 -5,-6 -5,-10c0,-2 0,-3 -2,-3c-2,0 -4,1 -5,1c-2,2 -2,2 -1,12c0,6 1,11 0,11c0,1 -11,-5 -11,-5c0,0 2,0 3,0l4,0l-2,-5c0,-3 -1,-7 -1,-9c0,-2 0,-3 -2,-3c-5,0 -11,4 -11,8c0,1 -1,2 -2,3c-2,0 -5,3 -7,6c-3,3 -6,6 -6,6c0,0 -2,-1 -3,-3zm-142,-2c-8,-7 -10,-31 -4,-44c1,-3 2,-4 4,-4c2,0 4,1 5,2c1,1 3,1 6,0l4,0l-2,-2c-2,-2 -2,-6 -2,-12c0,-4 3,-10 7,-14c2,-2 4,-3 4,-3c0,-1 -2,0 -4,1c-7,2 -11,1 -20,-3c-9,-5 -9,-5 -9,-8c2,-5 8,-8 19,-9c2,-1 6,-1 10,-2c4,-1 7,-1 7,-1c1,0 1,-1 1,-3c0,-8 10,-19 15,-15c0,0 3,2 5,3c6,2 9,6 9,11c-1,3 0,3 2,3c19,0 41,4 46,8c1,1 1,1 -2,1c-3,-1 -11,-1 -19,-1c-14,0 -19,0 -16,2c1,1 1,1 1,1c0,1 -7,2 -14,3c-13,3 -24,6 -19,6c1,0 4,0 7,-1c2,-1 7,-1 11,-2c4,0 7,-1 9,-1c1,-1 2,0 5,4c2,3 4,7 4,8c0,2 -2,6 -4,10l-5,6l-11,0c-12,1 -17,2 -24,7l-2,2l7,0c13,-2 35,-4 37,-5c1,0 0,1 -3,3c-5,2 -6,3 -6,6c0,4 0,5 -8,7c-5,2 -5,2 -2,2c2,0 4,0 5,-1c2,-1 3,0 8,4c3,3 5,6 5,7c0,1 -1,4 -3,7l-3,5l-8,0c-9,0 -20,3 -22,6c-2,3 -4,2 -8,-3c-2,-2 -2,-3 -2,-10c0,-4 1,-8 1,-9c1,-1 0,-2 -3,-3l-4,-1l-1,4c-3,6 -6,19 -6,23c0,2 -3,8 -5,8c-1,0 -2,-1 -3,-3zm44,-14c6,0 7,-1 7,-2c0,-2 0,-2 -3,-2c-2,1 -4,1 -6,0c-3,-2 -3,-2 -5,1c-3,4 -4,6 -1,4c1,0 5,0 8,-1zm-4,-44c3,-1 7,-1 10,-1c5,0 4,0 3,-3c-1,-3 -2,-3 -5,-2c-2,0 -5,0 -7,-1c-3,-1 -3,-1 -4,1c0,1 -2,3 -3,5c-3,2 -3,3 -1,3c1,-1 4,-1 7,-2zm-178,59c-2,-1 -6,-4 -7,-7c-2,-3 -1,-13 1,-13c0,1 1,0 2,-2c1,-1 3,-4 5,-7c2,-2 4,-3 4,-2c-1,0 0,1 1,1c2,0 3,-2 1,-2c-1,-1 0,-1 1,-1c2,0 9,3 9,4c0,0 -1,0 -1,-1c-1,0 -1,0 -1,1c1,1 2,1 2,0c1,0 4,3 7,8c2,3 2,5 2,8c-1,5 -2,7 -4,5c-2,-1 -2,-1 -4,3c-2,2 -4,4 -4,4c-3,1 -13,2 -14,1zm14,-7c4,-5 1,-15 -5,-15c-3,0 -8,2 -8,5c-2,3 -1,7 1,10c3,4 9,4 12,0zm-144,5c-10,-8 -22,-23 -25,-32c-2,-4 -2,-4 -1,-4c1,0 3,3 5,6c4,8 13,18 15,16c0,0 3,-8 6,-18c2,-10 5,-20 6,-22c2,-8 2,-8 -5,-8c-5,0 -6,0 -9,-4c-2,-1 -3,-4 -3,-4c0,-1 -1,-4 -2,-6c-2,-3 -3,-6 -2,-6c1,-3 10,-4 18,-3c10,2 10,2 12,-7c3,-8 4,-10 9,-15c7,-7 8,-8 11,-5c7,8 10,14 10,18c0,1 -2,5 -5,8c-4,3 -6,6 -6,6c0,1 2,2 4,3c7,3 10,7 11,11c0,3 1,6 1,7c1,2 0,4 -2,8c-2,4 -5,9 -6,12c-1,3 -3,6 -3,6c0,-1 -1,0 -2,0c-1,1 -1,1 -1,0c2,-4 2,-7 1,-7c-1,1 -1,2 -1,3c0,1 -1,3 -2,3c0,1 -1,3 0,3c0,1 0,1 -1,1c-1,-1 -4,6 -5,15c-1,9 1,10 16,8c12,-2 31,-6 42,-9c14,-5 13,-4 10,-11c-2,-3 -3,-5 -3,-6c0,0 2,3 5,6c3,4 3,6 2,7c-3,5 -40,15 -63,17c-7,0 -8,0 -9,-3c-2,-2 -2,-3 -1,-10c0,-4 3,-15 6,-25c2,-10 4,-18 4,-18c0,-1 -3,-1 -6,-1c-5,0 -5,0 -7,4c-1,2 -3,6 -4,10c-1,4 -4,11 -6,17c-3,6 -5,12 -6,14c0,2 -1,4 -2,5c0,2 -1,3 -1,4c0,1 -1,3 -2,5c-1,2 -2,2 -3,1zm662,-8c-4,-8 -4,-11 -4,-23c0,-10 1,-25 1,-26c1,0 1,-2 2,-4c3,-19 7,-31 14,-39c5,-6 6,-6 10,-3c3,2 3,2 11,2l8,-1l2,3c1,1 2,3 3,4c3,2 2,3 0,7c-4,3 -7,11 -9,23c-3,15 -3,22 -2,35c1,6 1,12 1,15c0,2 0,5 1,6c1,2 1,2 -1,1c-2,0 -2,0 -4,-10c-1,-5 -1,-10 -2,-11c0,-2 -1,-19 -1,-26c-1,-5 -1,-5 -5,-1c-3,2 -4,2 -7,2c-3,-1 -3,-1 -4,3c0,3 -1,5 -1,5c1,0 4,-2 7,-3c8,-5 9,-5 6,-1c-2,2 -2,2 -1,3c1,1 2,3 3,5c0,2 0,3 -3,5c-5,4 -7,4 -10,3c-1,-1 -2,-2 -2,-1c-1,1 -1,22 0,26c1,5 0,6 -3,2c-3,-2 -3,-2 -3,0c0,1 -2,5 -3,5c0,0 -2,-3 -4,-6zm29,-66c1,-3 1,-8 1,-9c0,-3 0,-3 -2,-2c-2,2 -8,13 -8,15c0,0 2,0 4,0c3,-1 3,-1 3,1c0,1 0,2 1,2c0,0 1,-3 1,-7zm-630,51c-3,-3 -5,-7 -6,-21c-1,-7 -1,-11 0,-17c1,-8 6,-20 9,-24c4,-4 8,-2 9,3c0,1 1,1 3,1c8,-1 8,-1 9,1c10,10 10,11 8,21c0,5 -1,12 -1,16c-1,8 -2,9 -4,4c-1,-3 -1,-3 -2,-1c-1,2 -1,2 -2,0c-2,-1 -4,-2 -7,-2c-3,0 -6,0 -7,0c-1,-1 -2,0 -3,5c-2,6 -2,10 -2,10c1,0 3,-1 6,-3c4,-2 8,-3 10,-4c2,-1 4,-2 4,-2c0,-2 2,-1 2,1c1,1 -1,2 -8,5c-6,3 -11,6 -12,7c-2,4 -3,4 -6,0zm16,-30c3,0 3,-4 0,-5c-2,-1 -2,-1 -3,1c-3,4 -2,6 3,4zm350,12c-1,-2 0,-4 4,-11c6,-11 12,-21 17,-28c2,-3 4,-5 4,-5c0,-1 -1,-1 -3,-1c-7,0 -11,-4 -11,-14c0,-5 0,-6 2,-7c1,0 3,-1 3,0c0,0 9,0 19,0c11,1 19,1 20,1c1,1 2,5 3,12c0,3 0,4 -2,4c-2,1 -4,3 -6,9c-7,15 -13,29 -13,33c-1,2 -2,4 -2,5c-2,1 -5,-4 -6,-10l-1,-2l2,2l2,2l2,-11c1,-6 3,-14 4,-18c2,-6 3,-8 2,-9c-2,0 -7,2 -7,3c0,0 -2,3 -5,6c-6,6 -16,21 -23,33c-5,9 -5,9 -5,6zm-32,-4c-3,-3 -5,-6 -5,-6c0,-2 5,-5 17,-9l13,-5l2,-6c2,-8 5,-11 8,-14c2,-2 9,-3 9,-1c0,0 0,4 1,7l0,7l-6,6c-6,6 -7,7 -7,10c0,5 -2,7 -12,12c-5,3 -9,4 -11,4c-4,0 -5,-1 -9,-5zm83,-16c-2,-1 -2,-5 -1,-14l0,-5l4,0c4,0 22,4 26,6c1,0 1,1 -1,1c-3,0 -4,1 -4,4c0,4 -2,6 -9,8c-6,2 -13,3 -15,0zm-84,-5c-2,-2 -3,-4 -3,-10c-1,-5 -1,-8 0,-8c1,-1 4,-1 8,-1c12,0 25,-1 24,0c0,0 -2,0 -3,0c-3,1 -3,1 -3,5c1,3 1,4 -4,9c-3,3 -6,5 -9,6c-7,1 -8,1 -10,-1zm4,-26c-2,-1 -4,-6 -4,-12c0,-5 1,-7 2,-8c1,0 5,0 10,0c6,1 10,2 14,4c14,7 15,11 4,14c-5,2 -23,3 -26,2z" fill="#2c2c2c"/>
  <path id="svg_8" d="m629,224c-4,-4 -6,-12 -6,-25c-1,-10 4,-19 9,-19c1,0 2,-1 4,-2c1,-2 3,-3 6,-3c8,0 8,0 7,-10c0,-5 0,-10 0,-10c0,-2 -12,10 -17,16c-10,13 -16,20 -18,20c-1,0 -5,-2 -8,-5c-4,-2 -9,-6 -12,-8c-4,-2 -5,-3 -3,-3c2,1 7,4 13,7c5,3 10,6 10,6c2,0 23,-30 22,-31c-1,0 -3,0 -6,1c-8,2 -11,2 -15,0c-2,-2 -5,-4 -7,-5c-2,-1 -4,-2 -4,-3c0,-3 12,-6 29,-7c14,-2 12,-1 17,-12c0,-2 -2,-1 -5,1c-4,3 -9,3 -13,0c-3,-1 -5,-2 -6,-2c-1,0 -3,-1 -4,-2c-2,-1 -2,-2 -2,-4c1,-4 7,-9 10,-9c1,0 3,-1 5,-1c2,-1 10,-3 18,-4c12,-1 16,-1 23,0c5,0 11,2 14,2l4,2l-5,-1c-6,0 -17,1 -19,4c-2,1 -2,1 -1,2c1,2 1,2 -1,3c-12,5 -12,5 -12,8c0,3 2,10 3,10c3,0 20,-3 29,-5c8,-2 10,-3 10,-4c0,-2 1,-2 1,-1c1,2 -2,5 -9,7c-6,1 -22,7 -23,8c-2,1 1,2 4,2c1,0 8,3 15,6c10,5 12,7 19,14c8,8 11,13 5,7c-5,-4 -8,-5 -10,-2l-2,2l-3,-2c-4,-3 -12,-6 -17,-7c-5,0 -14,-3 -16,-5c-1,0 -2,-2 -2,-4c-1,-1 -1,-2 -2,-2c-1,0 -3,18 -2,19c1,2 15,-1 17,-3c1,-2 3,-1 8,4c4,5 4,6 4,10c-3,22 -3,26 -2,28c1,4 0,5 -4,4c-6,-1 -18,-1 -25,1c-8,1 -17,5 -19,8c-2,2 -4,1 -6,-1zm26,-16c6,0 11,0 13,1c4,1 5,0 3,-8c-1,-3 -1,-7 -1,-8c0,-5 -1,-6 -7,-4c-12,4 -18,3 -22,-2c-1,-1 -2,-2 -3,-2c-1,1 0,10 1,10c0,0 7,0 14,0c7,0 14,-1 14,0c0,0 -1,1 -2,2c-1,1 -2,2 -1,4c0,2 -1,2 -9,3l-9,2l-4,-2c-2,-2 -4,-3 -4,-2c-1,1 -3,8 -2,9c0,1 2,0 5,-1c2,0 9,-1 14,-2zm138,17c-1,-1 -1,-2 0,-2c0,0 2,-3 4,-7c2,-3 4,-7 4,-7c2,-2 9,-17 8,-18c-2,-1 -9,5 -14,11c-9,10 -13,15 -14,14c-1,0 0,-1 1,-3c2,-1 6,-8 11,-14c4,-6 9,-11 9,-11c2,-1 0,-3 -2,-3c-2,0 -9,7 -14,14c-4,5 -4,4 0,-3c2,-4 2,-5 1,-5c-1,0 -3,2 -4,4c-2,4 -3,5 -4,5c-1,-1 -2,0 -3,1c-1,2 -1,2 -1,-2c0,-3 2,-9 7,-17c1,-3 1,-3 -2,-7c-2,-2 -3,-4 -3,-5c0,-1 -1,-3 -2,-6l-2,-4l2,0c2,0 4,0 6,1c4,1 4,0 1,-4c-3,-5 -4,-12 -1,-22c3,-10 9,-23 13,-27l3,-2l4,4l3,3l6,-2c4,-1 9,-2 12,-3c5,0 5,0 8,3c6,6 6,6 3,13c-3,5 -3,6 -3,15l1,9l-13,6c-7,3 -13,5 -13,5c0,0 -1,0 -2,1c-3,2 1,2 17,2l17,0l-4,2c-3,1 -5,2 -6,2c-1,0 -4,4 -3,4c3,2 -2,5 -11,6c-5,0 -7,1 -7,2c0,1 1,2 5,2c7,1 14,1 16,0c2,-2 5,-1 6,2c0,2 2,3 2,4c3,2 2,4 -2,9c-6,6 -12,17 -13,24c0,3 0,5 -1,5c-1,-1 0,-15 1,-23c1,-4 1,-7 1,-8c-2,-1 -6,3 -8,7c-1,3 -3,5 -4,6c-1,0 -4,5 -8,10c-3,6 -7,10 -7,10c0,0 -1,-1 -1,-1zm6,-79c2,-1 5,-2 7,-2c3,0 14,-5 16,-7c3,-5 0,-5 -11,-1c-6,2 -8,2 -10,1c-2,-1 -2,-1 -3,1c-2,3 -4,9 -3,9c1,0 2,-1 4,-1zm20,-21c2,0 3,-1 3,-2c0,-1 -1,-1 -2,-1c-4,1 -10,1 -11,0c0,-1 -1,0 -2,1c-1,1 -2,3 -2,3c0,1 8,1 14,-1zm-404,97c-2,-2 -3,-3 -1,-3c2,1 2,1 -1,-9c-3,-10 -3,-35 -1,-42c1,-2 3,-4 3,-4c2,0 3,2 6,8l3,6l-4,10c-3,9 -3,12 -3,19c0,8 0,10 4,17c1,2 -2,1 -6,-2zm65,1c-2,-2 -2,-3 0,-2c2,0 2,0 9,-11l4,-5l-6,0c-9,1 -11,-1 -13,-11c-1,-7 -1,-8 0,-9c2,0 7,-1 18,0c9,0 17,0 18,-1c0,0 1,-3 2,-6c0,-7 1,-9 5,-9l3,0l0,7c-1,4 0,7 0,8c1,0 26,-2 36,-3l5,0l-4,4c-2,2 -4,5 -4,6c0,2 -4,4 -10,6c-3,0 -4,1 -1,3c1,2 6,9 6,12c1,1 1,2 -1,2c-3,1 -12,1 -16,1c-2,-1 -4,-5 -4,-11c0,-3 -1,-3 -4,-3c-7,0 -6,0 -6,12l1,12l-4,-2c-2,-1 -3,-2 -2,-2c2,0 2,0 0,-10c-1,-5 -2,-8 -3,-8c-5,0 -11,4 -12,8c0,1 0,1 0,2c0,1 0,1 -1,1c0,-1 -3,2 -7,5c-3,3 -6,6 -6,6c0,0 -2,-1 -3,-2zm-142,-2c-7,-7 -9,-33 -3,-45c1,-3 2,-4 6,-1c4,1 9,1 11,0c1,-1 1,-1 0,-2c-1,-1 -2,-4 -3,-8c0,-7 2,-12 8,-18c2,-2 4,-4 4,-4c-1,0 -3,1 -7,2c-8,2 -11,1 -27,-9c-1,0 3,-6 6,-7c4,-2 22,-6 28,-6c3,0 3,0 3,-3c0,-5 7,-17 11,-17c0,0 4,1 7,3c8,4 11,7 11,12c-1,3 -2,3 21,5c14,1 22,3 26,5c1,2 1,2 -2,1c-4,-1 -27,-1 -32,0c-2,0 -3,1 -2,2c0,2 -1,2 -11,4c-3,0 -8,1 -11,2c-4,0 -8,1 -9,2c-2,0 -4,2 -3,3c1,0 3,0 6,-1c2,-1 8,-2 12,-2c5,-1 9,-1 10,-2c0,-1 1,-1 2,-1c2,2 8,12 8,13c0,1 -2,5 -4,9l-5,7l-10,0c-12,0 -19,2 -25,7l-2,2l4,0c5,0 30,-3 36,-4c2,0 2,0 -1,2c-4,2 -4,2 -4,5c1,4 -1,5 -9,8c-2,1 -4,2 -4,2c0,1 1,1 9,-1c1,0 3,1 6,4c6,6 6,9 2,14c-3,4 -4,4 -11,4c-9,1 -19,4 -22,7c-1,1 -2,1 -4,0c-4,-2 -6,-11 -4,-19c1,-5 1,-6 -4,-6c-3,-1 -3,-1 -4,2c-2,5 -6,17 -6,23c-1,3 -2,6 -3,7l-2,2l-3,-3zm44,-14c8,0 8,-1 7,-3c-1,-1 -2,-2 -4,-1c-2,0 -5,0 -5,-1c-2,-2 -5,0 -7,4l-2,3l3,0c1,-1 5,-1 8,-2zm2,-44c8,0 9,0 8,-2c0,-1 0,-2 -1,-3c0,-2 -1,-2 -5,-2c-3,0 -7,0 -8,0c-1,-1 -2,-1 -3,1c0,1 -2,3 -3,5l-3,3l3,0c1,-1 7,-1 12,-2zm-185,59c-2,-1 -4,-3 -5,-5c-2,-4 -3,-8 -1,-6c1,0 1,0 1,-1c-1,-1 -1,-3 -2,-4c0,-1 0,-1 1,-1c0,1 2,-1 3,-4c3,-7 6,-9 10,-9c1,1 2,0 3,-1c0,-2 4,-1 5,1c1,1 2,2 2,2c1,0 1,-1 0,-1c-1,-3 3,2 6,6c2,3 3,5 3,8c0,6 -1,8 -3,6c-1,-1 -2,0 -5,4c-3,4 -4,5 -7,5c-2,0 -4,0 -5,0c-2,1 -4,0 -6,0zm13,-4c3,-2 5,-7 4,-12c-2,-8 -10,-9 -15,-2c-3,3 -3,6 0,10c3,4 7,6 11,4zm-141,2c0,0 -2,-2 -4,-3c-4,-3 -13,-13 -19,-24c-4,-7 -5,-8 -3,-8c0,0 3,3 5,7c2,3 6,9 9,11l5,5l1,-3c1,-1 3,-8 5,-15c1,-8 4,-17 5,-21c3,-11 3,-10 -4,-11c-6,0 -6,0 -9,-4c-2,-2 -3,-4 -3,-5c0,0 -1,-3 -2,-5c-3,-5 -2,-8 3,-9c3,0 15,0 20,1c2,1 3,1 4,-3c1,-2 2,-5 2,-7c1,-4 8,-15 13,-18c2,-2 6,-2 6,0c0,0 2,3 4,5c2,3 4,5 4,7c2,6 2,6 -3,13c-3,4 -6,7 -6,8c0,0 1,1 3,1c1,1 4,3 6,5c2,2 4,3 4,2c0,-1 3,11 3,14c0,1 -2,4 -3,8c-2,3 -5,7 -5,10c-2,5 -5,7 -4,2c0,-3 0,-3 -1,-2c-1,2 -2,3 -2,3c0,1 -1,2 -1,3c-1,1 -3,3 -3,6c-3,7 -2,0 3,-16c2,-9 4,-16 4,-17c-1,0 -3,-1 -6,-1l-6,0l-3,5c-1,3 -3,8 -4,10c-1,3 -3,11 -6,18c-3,6 -5,12 -5,13c0,1 -1,4 -5,12c-1,3 -2,4 -2,3zm27,-5c-1,-2 -2,-4 -2,-5c0,-1 0,-1 1,1c1,1 2,2 4,3c6,1 39,-4 57,-10c5,-2 10,-4 11,-4c0,-1 -1,-3 -2,-5l-2,-4l3,3c2,2 3,4 3,5c0,1 -11,6 -19,9c-11,3 -25,6 -38,7c-15,2 -14,2 -16,0zm634,-5c-3,-6 -4,-7 -4,-22c0,-9 0,-16 1,-16c0,-1 0,-3 0,-5c1,-7 6,-29 9,-35c4,-8 10,-16 13,-17c1,0 3,0 5,2c2,2 3,3 8,2c2,0 6,0 7,0c2,-1 3,0 5,3c1,1 3,3 3,3c2,0 1,4 -2,8c-3,5 -5,10 -8,25c-3,13 -3,24 -1,36c1,8 1,9 0,11c-2,1 -2,1 -2,-1c0,-1 0,-2 1,-3c1,0 1,-1 0,-1c0,-1 -1,-1 -1,0c0,1 -1,-1 -1,-5c-1,-3 -1,-8 -2,-12c-1,-4 -1,-7 0,-7c1,0 -1,-15 -2,-16c0,0 -2,1 -4,3c-2,1 -4,2 -6,2c-3,0 -4,1 -5,3c-1,2 -1,6 0,6c0,0 3,-1 6,-3c6,-3 6,-3 5,-1c-1,2 -1,3 0,4c3,3 3,6 -1,9c-3,3 -6,4 -10,2c-2,-1 -3,8 -2,20c0,5 1,10 0,10c0,0 -1,-1 -2,-2c-2,-3 -2,-3 -4,1c0,2 -1,3 -2,3c0,0 -2,-3 -4,-7zm30,-66c0,-5 1,-10 0,-10c-1,-1 -10,12 -10,15c0,2 1,2 4,1c2,0 3,0 3,1c0,1 1,2 1,2c1,0 2,-2 2,-9zm5,67c-1,-2 -1,-4 1,-4c0,0 1,1 1,3c0,2 0,3 -2,1zm-669,-13c0,-1 0,-1 1,0c0,1 0,1 0,2c-1,0 -1,-1 -1,-2zm33,-2c-4,-4 -5,-12 -5,-27c0,-13 0,-14 3,-22c2,-5 4,-10 5,-12c3,-3 8,-2 9,3l1,3l3,-2c3,0 4,-1 4,0c0,1 0,1 1,1c1,0 1,-1 0,-1c0,-1 0,-1 1,0c3,1 10,10 11,13c0,1 0,7 -1,12c-1,6 -2,13 -2,16c0,4 0,4 -1,3c-1,-1 -2,-2 -2,-3c-1,-3 -3,-2 -2,0c0,2 -3,1 -3,-1c-1,-2 -1,-2 -3,-1c-3,1 -8,0 -10,-1c0,-1 -1,-1 -2,-1c-1,1 -2,8 -3,13l0,5l3,-2c3,-2 17,-8 19,-8c0,0 0,1 0,2c0,0 0,1 -1,1c-2,0 -16,7 -19,10l-3,3l-3,-4zm18,-31c0,-5 -5,-5 -7,0l-1,3l4,0c4,0 4,-1 4,-3zm348,14c-1,-3 6,-15 18,-33c8,-13 8,-13 2,-13c-5,0 -8,-3 -8,-12c-1,-7 -1,-7 1,-8c2,0 4,0 5,0c1,1 9,1 18,1c9,0 16,1 17,1c1,0 2,2 3,6c2,6 2,9 -1,9c-2,0 -4,5 -10,18c-2,6 -5,12 -6,15c-1,2 -2,6 -3,9c-1,3 -1,5 -2,5c0,0 -4,-6 -4,-8c-1,-2 -1,-2 0,-1c2,2 3,1 3,-5c1,-3 3,-12 5,-19c1,-7 3,-12 3,-13c0,0 -1,0 -3,0c-2,0 -4,1 -8,6c-6,7 -20,27 -25,36c-4,8 -5,9 -5,6zm-27,0c-3,-2 -9,-8 -9,-10c0,-3 3,-4 13,-7c4,-2 8,-3 10,-4c1,0 2,-1 4,-1c1,0 2,-2 4,-8c4,-11 7,-15 13,-15l3,0l1,7l1,7l-7,6c-5,5 -6,7 -7,11c0,5 -2,6 -11,11c-8,4 -12,5 -15,3zm77,-21c-1,-3 -1,-8 0,-13c2,-4 2,-4 6,-4c2,0 8,1 13,2c9,2 9,2 7,4c-1,1 -2,3 -2,5c0,4 -8,8 -18,8c-4,0 -5,0 -6,-2zm-82,-4c-3,-1 -3,-2 -4,-12l-1,-6l8,0c4,-1 10,-1 13,-1l7,0l-1,4c0,7 -5,13 -13,15c-6,2 -6,2 -9,0zm4,-26c-4,-2 -5,-7 -4,-14l0,-6l4,0c7,0 17,2 21,4c7,4 11,7 11,9c0,3 -9,6 -19,6c-4,1 -8,1 -9,1c-1,1 -3,0 -4,0z" fill="#000000"/>
  <path d="m79.28569,136.428574c-1.071434,0 -2.14286,0 -5.357147,0c-2.142853,0 -5.35714,-1.071426 -7.5,-1.071426c-1.071426,0 -3.214287,0 -4.285713,0c0,0 -1.07143,0 -2.142857,0c0,0 -0.882587,-0.520996 -3.214287,-1.071442c-2.085533,-0.49234 -4.314377,-0.825256 -5.357143,-1.071426c-2.331696,-0.55043 -3.214287,-1.071426 -3.214287,-1.071426c0,0 -0.313816,0.313812 -1.07143,1.071426c-0.757614,0.757614 -2.142857,2.142868 -2.142857,4.285721c0,1.071426 -1.592415,3.025436 -2.142857,5.357147c-0.492325,2.085526 -0.185459,3.056488 -1.07143,4.285706c-1.400841,1.943558 -0.661407,3.295853 -1.071426,4.285721c-0.579853,1.399887 -1.07143,3.214279 -1.07143,4.285706c0,1.071426 -1.071426,2.142868 -1.071426,2.142868c-1.07143,0 -4.037777,-2.799545 -6.428574,-8.571442c-3.381094,-8.162689 -5.891506,-18.157196 -6.428572,-25.714279c-0.987383,-13.893532 0,-20.357147 0,-26.785721c0,-3.214279 2.142859,-6.428566 3.214287,-7.5l3.214285,-1.071426l2.142857,0l0,0" id="svg_9" fill-opacity="null" stroke-opacity="null" stroke-width="null" fill="none"/>
 </g>
</svg>