<?xml version="1.0" standalone="no"?>

<!DOCTYPE svg PUBLIC "-//W3C//DTD SVG 20010904//EN"

 "http://www.w3.org/TR/2001/REC-SVG-20010904/DTD/svg10.dtd">

<svg version="1.0" xmlns="http://www.w3.org/2000/svg"

 width="570.000000pt" height="120.000000pt" viewBox="0 0 570.000000 120.000000"

 preserveAspectRatio="xMidYMid meet">

<path fill="#fefefe" stroke="none" d="
M0 60

L0 0

L285 0

L570 0

L570 60

L570 120

L285 120

L0 120

L0 60

Z

"/>

<path fill="#e6e6e6" stroke="none" d="
M294 100

C286 98 275 95 270 92

C259 85 257 74 263 52

C265 46 266 39 267 38

C267 37 267 37 263 39

C259 42 259 42 256 50

C249 75 234 95 222 95

C218 95 217 93 219 89

C220 87 221 82 221 78

L222 71

L225 75

C226 78 228 80 229 80

C231 79 237 68 239 61

C243 51 243 51 238 52

C234 52 226 50 225 48

C224 46 227 44 237 39

C245 35 246 35 246 31

C248 24 247 16 245 13

C242 8 243 1 246 0

C247 0 248 1 249 2

C250 4 253 6 256 8

C262 11 265 15 264 18

C263 19 263 21 263 24

C262 28 262 28 264 27

C265 27 268 25 270 24

C274 20 276 20 281 25

C286 30 286 33 283 38

C280 42 270 70 270 75

C270 79 273 83 278 84

C282 86 307 86 317 85

C322 84 325 83 326 82

C328 80 332 66 333 56

L334 48

L336 55

C338 59 340 66 341 71

C342 76 344 82 345 85

C347 88 347 89 346 92

C345 95 340 99 334 100

C328 101 302 101 294 100

Z

M288 73

C285 69 284 64 285 41

C286 32 287 25 287 24

C288 24 289 24 290 25

C291 26 292 25 295 23

C297 22 303 20 308 18

C319 14 322 15 327 21

C332 26 333 28 331 31

C330 33 329 38 329 43

C327 60 325 69 321 73

C318 77 314 77 311 74

C308 71 298 71 296 74

C293 77 291 77 288 73

Z

M311 61

C312 60 314 47 313 47

C312 47 309 49 303 54

C300 56 298 57 297 57

C297 56 298 55 299 53

C303 47 303 47 300 47

L296 47

L296 55

L296 63

L303 62

C307 62 311 61 311 61

Z

M302 39

C305 38 309 37 311 37

C313 37 314 37 314 36

C314 36 314 33 315 31

L315 26

L312 26

C310 27 305 28 302 29

L295 31

L295 35

C296 37 296 39 296 40

C296 41 296 41 302 39

Z

"/>

<path fill="#d0d0d0" stroke="none" d="
M293 100

C277 97 265 90 262 84

C258 75 259 64 265 44

C266 41 267 37 267 37

C266 37 264 38 262 39

C259 42 258 43 256 51

C253 61 246 75 241 83

C231 95 214 100 219 88

C220 87 221 82 221 78

L222 71

L225 75

C226 78 228 80 228 80

C229 80 231 78 232 75

C236 70 240 61 242 55

C242 51 242 51 240 51

C237 52 229 51 226 49

C223 47 226 45 236 40

C247 35 247 35 247 23

C247 18 246 15 245 12

C242 7 243 1 246 0

C247 0 248 1 249 2

C250 4 254 6 257 8

C263 12 264 15 263 22

C262 25 262 28 262 28

C263 28 268 26 271 24

C274 20 276 20 281 25

C286 30 286 33 283 37

C280 41 273 61 271 70

C269 78 270 80 277 84

C280 85 282 85 298 85

C313 85 327 84 327 82

C327 82 328 78 330 73

C331 68 332 61 333 56

L334 48

L337 59

C339 65 341 72 342 75

C343 78 344 82 345 85

C347 88 347 89 346 92

C345 95 340 99 334 100

C327 101 301 101 293 100

Z

M289 74

C287 73 285 68 285 63

C284 56 286 25 287 24

C288 24 289 24 290 25

C291 26 292 25 295 23

C297 22 303 20 308 18

C316 16 318 15 321 16

C324 17 327 21 331 25

C332 28 332 28 331 31

C330 33 329 40 328 47

C326 67 322 76 316 76

C313 76 310 74 310 72

C310 72 307 71 304 71

C299 71 297 72 296 74

C294 76 292 77 289 74

Z

M311 61

C312 60 314 47 313 47

C312 47 309 49 307 51

C304 53 300 55 299 56

C296 57 297 57 301 51

C304 47 304 47 300 47

L296 47

L296 55

L296 63

L303 63

C307 62 311 62 311 61

Z

M304 39

C307 38 310 37 312 37

C313 38 314 37 314 37

C314 36 314 33 315 31

L315 26

L311 27

C309 27 305 28 301 29

L295 31

L295 35

C296 37 296 39 296 40

C296 41 297 41 297 41

C298 40 301 40 304 39

Z

"/>

<path fill="#bbbbbb" stroke="none" d="
M295 100

C279 97 265 90 262 84

C259 77 259 66 263 51

C265 43 267 37 267 37

C266 37 264 38 262 39

C259 41 258 43 257 48

C249 74 234 95 222 95

C219 95 217 93 219 88

C220 87 221 82 221 78

L222 71

L224 75

C226 78 227 80 228 80

C231 80 238 67 241 56

L243 51

L236 51

C228 51 224 49 225 47

C226 45 231 42 240 38

C243 37 246 36 246 35

C246 35 247 31 247 26

C248 17 248 17 246 14

C244 12 244 10 244 6

C244 1 244 0 246 0

C247 0 248 1 249 2

C250 3 252 6 255 7

C263 12 263 13 263 21

C262 25 262 28 263 28

C264 28 270 25 271 23

C274 20 276 20 281 25

C286 30 286 33 282 38

C279 43 270 69 270 74

C270 78 272 81 276 84

C282 87 317 86 325 83

C327 83 332 66 333 57

L334 49

L336 55

C338 61 343 78 343 81

C343 81 344 83 345 85

C349 90 346 95 338 99

C334 101 305 101 295 100

Z

M289 74

C285 72 285 66 285 45

C286 34 287 25 287 25

C287 24 289 24 290 25

C292 26 292 26 294 24

C298 21 312 16 318 16

C321 16 323 17 327 20

C331 25 332 29 330 33

C330 34 328 41 328 49

C326 63 324 70 321 74

C318 77 314 77 311 74

C310 71 309 71 303 71

C299 71 297 72 295 74

C293 76 292 76 289 74

Z

M308 62

C312 62 312 62 312 57

C313 55 313 51 314 50

C314 46 312 46 306 51

C304 53 300 55 299 56

C296 57 297 57 301 51

C304 47 304 47 300 47

L296 47

L296 55

C296 59 296 63 297 63

C297 64 299 63 301 63

C303 62 306 62 308 62

Z

M303 39

C306 38 310 37 312 37

L315 38

L315 32

C315 28 315 26 314 26

C312 26 301 29 298 30

L294 32

L295 36

C296 39 296 41 297 41

C297 41 299 40 303 39

Z

"/>

<path fill="#a3a3a3" stroke="none" d="
M296 100

C281 98 267 91 263 85

C258 78 259 62 266 43

C267 40 267 38 267 37

C266 37 264 38 262 39

C259 41 258 43 256 51

C249 74 235 93 224 95

C219 95 218 93 219 88

C220 86 221 81 221 78

C221 75 221 72 222 72

C222 72 224 74 225 76

C226 78 227 80 228 80

C231 80 238 67 241 56

L243 51

L236 51

C228 51 224 49 225 47

C226 45 238 39 246 35

C246 35 247 31 247 26

C248 17 248 17 246 14

C243 10 242 3 244 1

C246 0 247 0 250 3

C252 5 255 7 257 8

C262 11 263 13 263 21

C262 28 262 28 264 27

C266 27 268 26 273 22

C275 21 275 21 278 23

C285 27 287 33 283 37

C281 39 275 55 272 66

C267 82 272 86 298 86

C308 86 321 85 325 83

C327 83 328 78 332 67

C332 65 333 61 333 57

L334 49

L336 56

C338 59 340 67 341 72

C342 77 344 82 344 83

C350 92 345 98 331 100

C324 101 304 101 296 100

Z

M289 74

C285 70 285 65 285 45

C286 34 287 25 287 24

C288 24 289 25 290 25

C292 27 292 27 293 25

C295 23 300 21 308 18

C316 16 319 15 323 17

C329 20 333 29 330 33

C330 33 329 39 328 46

C327 59 326 65 323 70

C320 76 315 78 311 74

C310 71 309 71 303 71

C299 71 297 72 295 74

C293 77 292 77 289 74

Z

M306 62

L312 62

L312 57

C313 55 313 51 314 49

C314 46 314 46 312 47

C311 48 308 50 305 52

C297 58 296 58 300 53

C302 50 303 48 303 48

C303 47 301 47 300 47

L296 47

L296 55

C296 63 296 64 299 63

C300 63 303 63 306 62

Z

M303 39

C306 38 310 37 312 37

L315 38

L315 32

L315 26

L311 26

C304 28 294 31 294 33

C295 33 295 35 296 37

C296 39 297 41 297 41

C297 41 300 40 303 39

Z

"/>

<path fill="#898989" stroke="none" d="
M296 100

C292 99 287 98 283 97

C270 93 263 88 261 81

C259 75 260 61 264 49

C266 43 267 38 267 37

C266 37 264 38 262 39

C259 41 258 43 256 51

C252 62 244 78 239 84

C234 89 226 95 222 95

C219 95 218 93 219 88

C220 86 221 82 221 78

C221 72 221 72 223 74

C224 75 225 77 226 78

L228 81

L230 78

C234 75 239 64 241 56

L243 51

L237 51

C229 51 225 50 225 47

C225 46 240 38 245 36

C246 36 246 32 247 27

C248 18 248 18 246 13

C243 7 242 3 245 1

C246 0 247 0 249 3

C250 4 253 7 256 8

C262 11 263 13 263 21

L262 28

L265 28

C266 27 269 26 271 24

C273 22 275 21 275 21

C276 21 278 23 281 25

C286 30 286 33 283 37

C280 40 270 69 270 74

C270 79 272 82 277 84

C281 86 305 86 316 85

C326 84 326 84 328 81

C330 75 332 64 333 57

L334 49

L336 56

C338 60 340 67 341 72

C342 77 344 82 344 83

C348 90 347 94 339 98

C334 100 332 100 318 101

C309 101 299 100 296 100

Z

M290 75

C289 75 288 72 287 70

C285 66 285 63 286 45

C286 34 287 25 287 24

C288 24 289 25 290 25

C292 27 292 27 293 25

C296 22 312 16 318 16

C321 16 325 18 328 23

C331 27 332 29 330 32

C330 33 329 39 328 46

C327 59 325 65 323 70

C320 76 315 78 311 74

C310 72 309 71 303 71

C299 71 297 72 297 73

C296 75 293 76 290 75

Z

M306 62

L312 62

L312 57

C313 55 313 51 314 49

C314 46 314 46 312 47

C311 48 308 50 305 52

C297 58 296 58 300 53

C302 50 303 48 303 48

C303 47 301 47 300 47

L296 47

L296 55

C296 63 296 64 299 63

C300 63 303 63 306 62

Z

M303 39

C307 38 311 37 312 37

L315 38

L315 32

L315 26

L311 26

C309 27 304 28 300 29

C296 31 294 32 294 33

C295 34 295 36 296 38

C296 40 296 41 297 41

C297 41 300 40 303 39

Z

"/>

<path fill="#686868" stroke="none" d="
M297 100

C288 99 275 95 269 91

C262 86 260 82 261 71

C261 62 261 58 264 48

C266 41 267 36 267 36

C267 36 265 38 262 39

C258 41 258 42 256 50

C253 60 246 76 240 83

C235 90 226 95 222 95

C220 95 220 94 220 91

C220 86 222 74 222 73

C223 73 224 75 225 76

C226 78 227 80 228 80

C229 80 234 74 237 69

C239 64 243 53 243 51

C243 51 240 51 237 51

C229 51 225 50 225 47

C225 46 240 38 245 36

C246 36 247 32 247 27

C248 18 248 18 246 13

C243 7 242 3 245 1

C246 0 247 0 249 3

C250 4 254 7 256 8

C262 11 263 14 263 22

L262 28

L265 28

C266 27 269 26 270 24

C274 21 277 21 281 26

C286 31 286 33 283 36

C281 39 274 58 271 68

C269 74 269 76 270 78

C273 84 277 85 294 86

C303 86 313 86 318 85

C326 84 326 84 328 80

C330 74 333 62 333 55

L333 49

L336 55

C337 59 339 66 341 72

C342 77 344 83 345 84

C347 88 346 92 344 95

C340 99 335 100 319 100

C311 101 301 100 297 100

Z

M311 74

C309 71 308 71 303 71

C298 71 297 71 296 73

C295 76 289 76 288 73

C285 68 285 64 286 45

C286 27 286 25 288 25

C289 25 290 25 291 26

C291 27 292 26 293 25

C295 24 297 23 298 22

C302 20 315 16 318 16

C321 16 325 19 329 23

C331 27 331 27 329 36

C329 38 328 45 327 51

C325 72 319 81 311 74

Z

M307 62

L312 62

L313 56

C315 45 314 44 307 51

C304 52 301 54 300 55

C298 56 298 56 301 52

C302 50 303 48 303 48

C303 47 301 47 299 47

L296 47

L296 54

C296 63 296 64 299 64

C300 63 304 63 307 62

Z

M304 39

C307 38 311 37 312 37

L315 38

L315 32

L315 26

L311 26

C308 27 304 28 300 29

C293 31 293 31 296 39

C296 41 296 41 304 39

Z

"/>

<path fill="#515151" stroke="none" d="
M299 100

C284 98 269 92 264 87

C259 80 259 68 264 49

C266 42 268 36 267 36

C267 36 265 37 263 39

C259 41 258 42 255 53

C248 73 237 90 227 94

C220 96 219 95 219 90

C220 88 220 84 221 80

C221 77 222 74 222 74

C222 73 224 75 225 77

C226 79 228 81 228 81

C231 81 240 63 242 54

L243 51

L237 51

C230 51 225 49 225 47

C225 46 230 43 236 41

C241 38 246 35 246 35

C247 34 247 30 248 25

C248 18 248 17 246 14

C243 9 243 4 244 2

C246 0 246 0 249 3

C251 5 254 8 257 9

C263 12 264 14 262 23

C262 26 261 29 262 29

C263 29 269 26 270 24

C273 21 277 21 281 25

C285 30 286 32 283 37

C280 41 272 63 270 71

C269 77 270 81 275 84

C279 86 306 87 318 85

L327 84

L328 79

C331 70 333 62 333 55

C333 49 333 49 335 52

C337 57 340 68 342 75

C342 79 344 83 345 84

C345 85 346 88 346 90

C346 93 342 97 336 99

C331 100 307 101 299 100

Z

M312 74

C310 71 308 71 303 71

C299 71 297 71 296 73

C294 75 291 76 289 73

C286 70 285 64 286 44

C286 27 286 25 288 25

C289 25 290 25 291 26

C291 27 292 26 294 24

C298 22 314 16 318 16

C322 16 330 23 331 27

C331 28 331 31 330 33

C329 36 328 42 328 47

C327 60 324 69 321 73

C317 77 315 77 312 74

Z

M307 63

C312 62 312 62 313 52

C314 46 314 46 312 47

C311 47 309 49 307 50

C305 51 302 54 301 55

L298 57

L301 52

L304 47

L300 47

C298 46 296 47 296 47

C295 47 295 61 297 63

C297 64 298 64 300 63

C302 63 305 63 307 63

Z

M304 39

C309 37 311 37 313 38

C315 39 315 39 315 32

C315 26 315 26 313 26

C311 26 306 27 302 29

L294 31

L295 34

C296 42 296 42 304 39

Z

"/>

<path fill="#3c3c3c" stroke="none" d="
M302 100

C288 99 269 92 265 87

C258 80 259 67 266 41

C267 38 268 36 267 36

C267 36 265 37 262 39

C259 41 258 42 257 45

C252 66 241 84 231 91

C228 93 225 94 223 94

C220 94 220 94 220 92

C220 87 222 74 222 73

C222 73 224 75 225 77

C226 79 228 81 228 81

C231 80 238 68 240 60

C242 56 243 52 243 52

C243 52 240 51 236 51

C228 50 224 49 226 46

C226 46 231 43 236 41

C241 38 246 35 246 35

C247 34 247 30 248 25

C248 18 248 17 246 14

C243 9 243 4 244 2

C246 0 246 0 249 3

C251 5 255 8 257 9

C263 12 264 14 262 23

C261 29 261 29 263 28

C265 28 267 27 268 26

C273 22 275 21 278 23

C281 25 285 30 285 33

C285 33 284 35 283 37

C280 40 271 66 270 73

C269 78 270 81 275 83

C278 85 281 86 294 86

C303 86 314 86 318 85

L327 84

L329 76

C332 67 334 55 333 52

C332 45 338 60 340 70

C342 76 344 83 344 84

C348 90 345 96 337 98

C333 100 309 101 302 100

Z

M312 74

C310 71 308 71 303 71

C299 71 297 71 296 73

C292 77 288 75 286 67

C284 61 286 26 288 25

C289 25 290 25 290 26

C291 27 292 26 294 25

C299 21 315 16 319 16

C326 18 333 28 330 32

C329 32 329 38 328 44

C326 63 324 71 319 74

C316 77 314 76 312 74

Z

M309 63

C312 63 312 63 313 56

C314 49 314 46 313 46

C313 46 310 48 307 50

C299 56 297 57 301 52

C303 50 304 48 304 47

C304 47 302 47 299 47

L295 46

L295 54

C296 58 296 62 296 63

C297 64 299 64 301 63

C304 63 307 63 309 63

Z

M304 39

C309 37 311 37 313 38

C315 39 315 39 315 32

C315 26 315 26 313 26

C310 26 304 28 298 30

C294 31 294 31 295 35

C296 42 295 42 304 39

Z

"/>

<path fill="#252525" stroke="none" d="
M291 99

C276 95 265 90 262 83

C259 77 260 64 264 49

C266 42 268 36 267 36

C267 36 265 37 263 38

C259 41 258 42 257 45

C255 54 252 61 248 68

C241 82 236 89 227 93

C220 96 217 94 221 87

C221 85 222 81 222 78

L222 73

L225 77

C226 79 228 81 228 81

C232 80 241 63 242 54

L243 51

L236 50

C227 50 224 49 226 46

C227 45 232 43 237 40

L247 35

L247 31

C248 22 248 16 246 13

C243 9 243 1 246 1

C246 1 248 2 249 4

C250 5 253 7 256 8

C262 12 264 15 262 23

C262 26 261 29 261 29

C262 29 268 26 271 24

C272 23 274 22 275 22

C279 22 286 30 284 34

C284 35 283 36 282 38

C280 40 273 59 270 68

C267 81 271 85 291 86

C298 87 315 86 324 84

C327 84 327 83 330 76

C331 71 333 64 333 60

L334 52

L337 59

C338 62 340 69 341 74

C342 78 344 83 344 85

C348 89 346 94 340 97

C336 99 334 100 316 100

C303 100 295 99 291 99

Z

M314 75

C312 74 311 73 311 72

C310 71 308 71 304 71

C299 71 297 71 295 73

C291 78 286 72 286 60

C286 46 286 26 287 25

C288 25 289 25 290 26

C291 27 292 27 293 26

C294 23 315 15 319 16

C323 17 328 22 330 25

C331 28 331 29 330 32

C329 34 328 41 327 48

C326 62 324 69 320 73

C317 76 316 76 314 75

Z

M312 62

C313 62 314 47 314 46

C313 46 310 48 305 51

L298 56

L301 52

C304 48 304 47 302 47

C301 46 299 46 298 46

L295 46

L295 53

C295 64 295 64 304 63

C308 63 312 63 312 62

Z

M312 38

C314 40 315 39 315 32

L315 25

L310 26

C307 27 303 28 300 29

L295 31

L295 35

C295 42 295 42 304 39

C309 38 312 37 312 38

Z

"/>

<path fill="#000000" stroke="none" d="
M293 99

C278 96 265 89 263 83

C259 74 260 66 266 46

C267 41 268 36 268 36

C268 35 265 36 263 38

C258 41 258 42 255 51

C248 75 234 94 223 94

C219 94 218 92 220 87

C221 85 222 81 222 79

L222 74

L225 77

C226 79 227 81 228 81

C231 81 238 70 241 60

C244 51 244 50 237 50

C230 50 226 49 226 47

C226 46 231 44 237 41

L247 36

L247 31

C249 23 248 17 246 13

C245 10 244 7 244 5

C244 2 244 1 246 1

C247 1 248 2 248 3

C249 4 252 6 255 9

C262 13 263 15 262 23

C261 26 261 28 261 29

C262 30 269 27 271 24

C274 21 276 21 280 26

C284 30 285 34 282 37

C280 39 272 61 270 70

C269 75 269 77 270 79

C274 85 283 88 304 87

C321 86 327 85 328 81

C330 76 334 60 334 56

C334 53 335 54 337 61

C339 66 341 72 341 76

C342 80 343 84 344 85

C348 90 346 94 339 97

C335 99 332 99 317 100

C306 100 297 99 293 99

Z

M290 74

C288 73 286 68 286 63

C285 56 287 25 288 25

C288 25 289 26 290 26

C291 28 292 28 294 25

C296 23 302 21 308 19

L318 16

L322 18

C324 19 327 22 328 24

C331 28 331 28 330 31

C329 33 328 40 327 47

C326 60 323 70 320 73

C318 76 313 76 312 73

C310 71 309 70 303 71

C298 71 297 71 295 73

C294 75 292 75 290 74

Z

M308 63

C312 63 313 63 313 55

C314 53 314 49 315 48

C315 45 312 45 306 51

C302 53 300 55 299 55

C299 55 300 53 301 52

C305 47 305 46 300 46

L295 46

L295 54

C295 59 295 63 296 64

C297 64 298 64 301 64

C303 63 306 63 308 63

Z

M303 40

C306 39 310 38 312 38

L315 39

L315 33

C316 29 316 26 315 26

C314 25 304 27 297 29

L293 31

L294 37

C295 40 296 42 296 42

C296 42 299 41 303 40

Z

"/>

</svg>

