<?xml version="1.0" standalone="no"?>

<!DOCTYPE svg PUBLIC "-//W3C//DTD SVG 20010904//EN"

 "http://www.w3.org/TR/2001/REC-SVG-20010904/DTD/svg10.dtd">

<svg version="1.0" xmlns="http://www.w3.org/2000/svg"

 width="900.000000pt" height="350.000000pt" viewBox="0 0 900.000000 350.000000"

 preserveAspectRatio="xMidYMid meet">

<path fill="#fefefe" stroke="none" d="
M0 175

L0 0

L450 0

L900 0

L900 175

L900 350

L450 350

L0 350

L0 175

Z

"/>

<path fill="#d1d1d1" stroke="none" d="
M631 227

C628 226 624 220 624 216

C623 214 622 210 622 206

C621 200 621 192 623 188

C625 183 624 183 620 188

C617 191 615 193 614 193

C614 193 610 191 606 188

C602 185 597 181 594 179

C590 177 588 175 588 175

C588 172 593 174 600 179

C611 186 614 187 615 186

C617 184 625 173 630 166

C635 158 635 157 628 160

C626 160 623 161 621 161

C619 161 614 159 611 156

C610 155 608 154 606 153

C602 151 602 150 605 147

C607 145 613 144 629 142

C645 140 645 140 647 136

C649 131 648 131 645 133

C641 136 636 136 633 134

C631 133 628 132 625 131

C620 130 618 127 620 122

C622 118 627 114 630 114

C631 114 633 113 634 113

C637 111 660 108 668 108

C675 108 688 110 693 113

L698 115

L688 115

C677 114 670 116 670 119

C670 119 670 120 671 120

C674 120 671 122 665 124

C656 127 656 128 658 135

C659 139 659 139 662 139

C663 138 668 138 672 137

C676 136 683 135 688 134

C696 132 697 132 696 130

C696 128 698 127 700 130

C702 132 698 136 692 137

C689 138 686 139 686 139

C685 139 681 141 678 142

C669 145 666 146 671 146

C673 146 679 148 686 152

C695 157 699 159 705 165

C712 172 716 178 714 180

C714 181 713 180 713 179

C712 177 705 171 702 171

C701 171 701 171 702 173

C703 174 703 174 702 174

C701 173 700 174 700 175

C700 176 699 176 696 174

C691 170 682 167 677 166

C667 165 660 162 659 157

C658 156 658 158 658 162

C657 165 657 169 656 170

C656 173 656 173 659 173

C661 172 664 172 666 172

C668 172 670 171 671 170

C674 167 676 168 681 174

C686 179 686 179 686 184

C685 187 685 194 684 200

C683 207 683 211 684 212

C685 214 684 219 683 219

C683 219 682 218 681 218

C679 216 663 216 655 217

C647 219 637 223 635 226

C634 227 633 228 631 227

Z

M648 208

C650 208 650 208 647 207

C646 207 643 206 642 205

C639 203 639 203 638 204

C637 205 637 206 637 207

C637 207 637 209 636 209

C636 211 636 211 641 209

C643 209 646 208 648 208

Z

M671 205

C670 204 670 201 669 199

C669 196 669 195 667 196

C667 197 665 198 665 198

C664 199 664 199 665 200

C667 203 666 203 657 205

L651 207

L659 207

C664 207 668 208 669 208

C671 208 671 207 671 205

Z

M667 192

C668 192 669 191 668 190

C668 189 665 190 660 191

C650 194 646 193 642 189

C639 187 638 186 639 188

C639 189 639 191 639 192

L640 195

L653 194

C660 194 666 193 667 192

Z

M631 179

C633 179 634 178 635 177

C636 175 638 174 643 174

L648 174

L648 165

C649 160 648 156 648 156

C647 156 633 170 631 175

C629 177 627 180 627 180

C626 181 626 181 628 180

C629 180 630 180 631 179

Z

M792 225

C791 223 791 223 793 221

C794 220 797 215 799 210

C801 206 805 199 806 197

C808 194 808 192 808 192

C807 192 795 204 786 214

L781 220

L779 217

C778 212 778 210 779 212

C781 214 781 213 789 203

C794 197 798 190 800 189

C802 186 801 185 798 187

C797 188 793 192 790 196

C784 204 781 206 782 202

C783 199 781 199 779 202

C778 204 778 204 778 203

C778 201 778 201 777 204

C775 206 775 206 774 205

C773 201 775 191 778 185

L782 179

L780 176

C778 175 776 171 775 168

C772 159 772 159 778 160

C781 160 783 160 783 159

C783 159 782 158 781 156

C779 154 779 153 779 146

C779 142 779 137 780 134

C781 131 781 130 779 131

C775 135 769 158 768 174

C767 179 769 200 770 201

C771 201 770 202 770 204

C769 205 769 206 770 205

C771 205 771 206 771 208

C770 209 771 211 771 212

C773 214 772 214 768 212

C765 211 765 211 765 207

C765 205 764 201 764 198

C763 194 762 189 762 187

C762 184 762 181 762 181

C761 181 759 182 757 184

C752 187 750 188 747 186

C745 185 745 186 745 190

C744 193 744 200 745 205

C746 216 746 218 743 215

C741 213 741 213 738 216

L735 219

L733 216

C732 214 731 211 731 211

C731 210 730 209 730 208

C728 205 727 197 727 187

C727 180 728 165 729 164

C729 163 730 158 732 151

C734 137 739 126 746 118

C750 113 753 113 756 116

C758 119 762 119 771 117

C773 117 774 117 776 120

C777 121 779 124 780 125

L782 127

L785 121

C790 112 794 106 796 106

C798 105 800 107 802 110

C804 112 804 112 812 110

C823 106 827 106 832 111

C837 116 837 118 834 123

C831 129 830 142 832 144

C835 146 831 149 818 155

C807 159 805 161 807 161

C808 161 819 162 830 161

C849 161 852 162 840 163

C838 163 836 164 835 164

C834 165 832 166 830 166

C826 168 826 168 826 170

C826 172 826 173 824 174

C823 174 822 175 822 175

C822 176 819 176 815 177

C808 177 806 178 810 179

C814 180 826 180 826 179

C826 177 831 178 832 180

C833 181 834 182 834 182

C834 183 835 185 837 186

L839 189

L834 194

C831 197 828 203 826 207

C822 213 822 215 822 220

C822 224 821 227 821 227

C821 227 818 225 816 222

C811 217 810 216 815 219

L818 221

L818 211

C819 205 819 199 820 198

C821 193 817 194 815 200

C813 203 811 205 810 206

C809 206 805 212 801 217

C798 223 794 228 794 228

C794 228 793 227 792 225

Z

M786 193

C786 192 785 193 785 194

C784 195 783 197 783 198

C783 198 784 197 785 196

C785 195 786 193 786 193

Z

M761 172

L761 168

L759 170

C757 172 757 172 759 174

C760 175 761 176 761 176

C761 176 761 174 761 172

Z

M760 164

C761 161 761 161 756 165

C754 166 751 167 750 167

C748 166 748 166 747 170

L746 173

L753 169

C756 167 760 165 760 164

Z

M761 143

C762 134 761 134 756 142

C752 149 752 150 757 149

C759 149 760 149 760 151

C760 154 761 150 761 143

Z

M805 143

C809 143 819 138 821 136

C822 133 821 133 811 137

C805 139 803 139 801 138

C799 137 799 138 798 140

C795 145 796 146 799 144

C801 144 804 143 805 143

Z

M819 124

C820 124 821 124 821 123

C821 122 820 122 818 123

C815 124 811 124 809 123

C808 122 808 122 807 124

C806 126 806 126 811 125

C814 125 818 125 819 124

Z

M417 225

C416 224 413 222 410 220

C405 217 399 213 400 213

C400 213 403 214 407 216

C410 217 413 218 414 218

C414 218 413 214 412 210

C410 205 410 201 410 187

L410 170

L407 171

C406 171 403 172 402 173

C399 174 399 175 399 178

C399 182 398 183 393 184

C392 185 392 185 394 185

C395 185 398 187 400 190

C407 196 407 198 401 205

L398 210

L393 209

C384 209 368 213 368 217

C368 218 365 217 362 214

C361 213 359 212 359 212

C358 213 358 200 359 196

C359 194 360 191 360 191

C360 191 358 191 357 191

C354 190 353 190 352 193

C350 198 347 211 347 215

C347 218 346 220 345 221

C344 222 343 223 343 224

C343 226 340 225 338 222

C336 221 334 217 333 214

C328 203 330 175 336 173

C337 172 343 173 344 174

C344 175 351 175 351 174

C351 173 351 173 350 173

C350 173 349 170 349 166

C348 158 349 154 354 149

C357 145 357 145 355 146

C349 148 344 147 335 142

C325 137 325 136 329 131

C332 127 338 125 353 123

C362 122 363 121 363 120

C363 114 371 102 375 102

C375 102 379 104 383 105

C391 109 394 112 394 117

C394 120 396 121 404 121

C419 121 435 124 441 128

C444 130 442 132 438 130

C435 129 407 129 406 130

C405 130 406 131 407 131

C409 133 409 133 405 133

C403 134 401 134 401 135

C401 135 403 138 405 140

C410 148 410 150 405 158

L400 166

L389 166

C380 166 377 166 373 168

C370 169 367 171 366 172

C364 173 366 173 384 171

C406 169 410 168 413 165

C414 163 415 163 417 164

C419 164 420 166 420 167

C420 168 421 170 423 173

C425 177 425 178 424 180

C417 199 415 212 420 220

C421 222 422 224 422 225

C422 227 418 226 417 225

Z

M382 206

C386 206 388 205 388 205

C388 204 387 204 385 204

C383 204 380 204 379 203

C377 202 376 203 373 207

C373 208 373 208 375 208

C376 207 379 207 382 206

Z

M385 162

C390 162 391 162 391 160

C390 160 390 158 390 158

C390 157 388 157 385 157

C383 157 379 157 378 157

C377 156 376 156 376 157

C376 158 375 160 373 161

L371 164

L375 163

C377 162 381 162 385 162

Z

M388 138

C393 137 397 137 397 136

C398 135 397 135 393 136

C386 136 376 139 375 140

C375 140 376 140 377 140

C379 139 384 138 388 138

Z

M478 221

C474 217 474 216 477 219

C479 219 480 220 480 220

C481 220 489 210 490 207

C491 206 490 206 486 206

C480 206 476 204 475 201

C474 199 472 188 472 186

C472 184 477 183 493 184

L509 184

L510 182

C511 180 511 178 511 176

C511 174 512 172 512 171

C513 168 514 168 517 168

L521 168

L521 175

L520 183

L529 182

C534 182 543 181 548 181

C554 180 560 180 562 180

L566 180

L561 183

C559 184 557 186 557 187

C557 187 557 188 556 188

C556 188 555 189 555 191

C554 193 550 195 545 197

L541 198

L544 202

C550 208 551 215 548 215

C547 215 546 215 546 216

C546 217 532 216 529 214

C527 213 525 207 526 203

C526 201 526 201 524 201

C523 202 521 202 520 202

C518 202 518 203 518 214

C519 221 519 226 518 226

C517 226 502 218 502 217

C503 217 505 218 507 219

C510 220 512 220 512 220

C513 220 512 216 511 211

C510 204 509 203 508 204

C503 205 501 206 501 207

C501 208 501 208 501 209

C500 211 495 217 494 217

C494 216 491 218 489 221

C486 224 484 226 483 226

C482 226 480 224 478 221

Z

M71 223

C71 223 70 222 70 222

C70 221 68 219 66 218

C62 215 52 203 46 193

C43 187 42 183 44 183

C46 183 48 185 50 191

C52 193 55 198 58 201

C63 207 64 207 66 199

C67 197 69 189 71 182

C73 175 74 169 74 168

C73 168 74 166 75 163

L77 160

L71 159

C65 159 65 159 62 155

C60 152 58 150 58 149

C58 149 57 146 56 143

L53 138

L55 136

C57 135 59 135 66 135

C71 135 77 135 79 135

C82 135 83 135 84 131

C87 120 88 118 94 112

C100 106 101 105 103 106

C104 106 106 108 106 109

C107 110 109 112 111 114

C114 118 117 125 115 127

C115 128 112 131 110 134

C106 139 105 140 106 141

C107 142 108 142 109 142

C109 142 112 144 114 146

C118 149 119 150 120 155

C121 163 121 165 118 170

C113 177 103 205 103 211

C103 213 103 213 107 213

C112 213 132 210 142 207

C150 205 166 200 167 199

C168 199 167 196 165 193

C162 187 161 184 163 186

C167 190 172 198 172 199

C170 205 142 213 114 216

C99 218 100 219 97 215

C95 212 95 212 96 203

C97 198 100 186 102 178

C105 169 107 161 107 161

C106 161 104 161 102 160

C99 160 98 160 97 161

C97 162 96 163 96 163

C95 162 92 169 89 177

C89 180 86 187 84 192

C82 196 80 203 79 205

C78 208 77 210 77 211

C76 211 76 212 76 212

C76 213 75 215 75 217

C74 218 74 220 74 221

C73 223 73 224 71 223

Z

M100 207

C99 206 99 207 99 208

C99 209 99 210 100 209

C100 209 100 207 100 207

Z

M102 208

C101 207 101 207 101 208

C101 209 101 210 102 210

C102 209 102 209 102 208

Z

M103 204

C102 203 102 203 102 204

C102 205 102 206 103 206

C103 205 103 205 103 204

Z

M101 203

C100 202 100 202 100 203

C100 204 100 205 101 205

C101 204 101 204 101 203

Z

M105 190

C105 189 105 189 104 191

C104 192 103 193 103 194

C103 195 103 195 104 194

C104 192 105 191 105 190

Z

M199 223

C198 222 195 220 194 218

C191 215 191 214 191 208

C192 201 194 196 196 194

C197 194 197 194 196 195

C193 199 196 198 199 195

C203 189 204 189 209 189

C214 189 218 191 223 198

C228 205 227 213 221 219

C218 223 216 223 219 219

C222 216 223 214 221 214

C221 214 219 216 218 218

C215 222 213 223 209 223

C208 223 206 223 204 223

C203 224 201 223 199 223

Z

M212 217

C214 216 216 210 215 207

C215 205 213 203 212 202

C209 200 209 200 205 202

C200 204 199 208 201 213

C204 217 208 219 212 217

Z

M131 198

C126 194 125 186 125 169

C125 155 125 154 128 146

C131 137 135 132 138 132

C140 132 144 135 144 137

C144 139 145 139 148 138

C150 137 152 137 154 138

C156 139 157 140 157 140

C157 140 159 143 161 145

C162 147 164 150 165 152

C165 153 164 159 164 165

C163 171 162 178 162 180

C162 184 161 186 159 183

C158 183 157 182 157 183

C157 183 157 184 158 185

C160 186 159 187 152 190

C144 193 138 196 137 199

C135 202 135 202 131 198

Z

M152 185

C154 184 154 184 153 181

C152 179 151 178 149 179

C148 180 145 180 143 179

C141 178 139 178 139 178

C138 179 136 188 136 190

C136 192 137 192 143 189

C147 187 151 185 152 185

Z

M149 166

C149 166 148 165 148 163

C146 162 146 162 145 163

C142 166 143 167 146 167

C148 167 149 167 149 166

Z

M497 182

C496 182 496 180 496 179

C495 176 501 165 513 147

C517 140 521 135 521 134

C521 134 519 134 517 134

C511 134 508 131 508 122

C507 117 507 114 508 113

C509 112 512 112 520 113

C526 113 536 113 542 113

C548 114 553 114 553 114

C553 114 554 117 554 120

C556 127 556 131 552 131

C552 131 550 133 549 135

L547 139

L552 139

C555 140 562 141 568 142

C578 145 582 147 577 147

C574 147 572 149 572 152

C573 154 569 158 563 160

C558 161 548 162 547 160

C545 159 545 150 546 144

L547 141

L545 144

C543 148 536 165 534 172

C533 175 533 178 532 178

C532 178 531 177 530 176

C528 175 526 171 524 166

L524 164

L526 166

L529 168

L529 166

C529 162 534 140 537 133

C537 131 533 132 531 134

C524 142 520 146 513 157

C509 164 504 172 502 175

C498 182 497 183 497 182

Z

M469 180

C466 178 460 170 460 168

C461 166 465 163 477 159

C483 157 488 155 489 155

C489 154 490 151 491 148

C494 140 498 134 503 133

C509 131 510 133 510 141

L511 148

L505 154

C499 159 498 161 497 165

C497 170 494 172 485 177

C476 181 473 182 469 180

Z

M465 156

C464 156 463 155 462 154

C460 152 458 137 460 136

C461 135 494 133 495 134

C495 135 492 136 490 136

C488 136 488 136 488 139

C489 145 482 153 474 155

C469 157 468 157 465 156

Z

M468 128

C464 126 463 121 464 114

C464 110 465 108 466 107

C469 106 487 109 490 111

C491 112 494 113 495 114

C497 115 499 116 500 118

C503 120 503 120 502 122

C501 124 500 125 499 125

C498 125 497 125 497 126

C496 127 484 129 479 129

C477 129 474 129 473 129

C471 130 470 130 468 128

Z

"/>

<path fill="#b0b0b0" stroke="none" d="
M792 225

C791 223 791 223 792 222

C793 221 796 216 800 210

C803 203 806 197 807 195

C808 193 809 192 808 192

C806 192 799 199 795 203

C793 206 789 210 786 213

L781 219

L779 216

C778 212 778 211 779 213

C781 214 783 212 791 200

C799 190 801 186 800 186

C798 186 792 193 785 202

C782 206 782 203 784 198

C786 192 786 191 784 195

C781 201 779 203 778 202

C777 201 777 202 776 203

C775 208 774 205 774 200

C774 195 775 193 778 186

L782 179

L779 175

C777 173 776 171 776 170

C776 169 775 166 774 165

C772 160 773 158 779 160

C782 160 784 161 784 161

C784 160 783 159 782 157

C778 152 777 145 779 137

C780 133 781 130 781 130

C780 129 775 138 773 144

C772 147 770 156 769 163

C767 176 767 177 768 190

C769 197 770 204 769 205

C769 207 769 207 770 207

C771 206 771 207 770 208

C770 210 770 211 771 211

C772 212 772 213 772 213

C772 214 766 212 766 211

C766 211 766 210 766 208

C765 206 764 197 763 195

C763 194 763 191 762 189

C762 179 762 179 757 183

C753 187 750 188 747 186

C745 185 745 185 744 189

C744 192 744 207 746 213

C746 215 746 216 745 216

C744 216 742 215 742 214

C740 212 740 212 739 215

C738 216 737 218 736 218

C735 218 733 214 731 211

L728 204

L727 188

C727 175 727 172 730 157

C734 138 737 131 742 123

C748 114 752 112 756 116

C758 118 759 119 764 118

C767 118 770 118 772 118

C773 117 774 118 776 120

C777 122 779 124 780 124

C780 125 781 126 781 127

C781 128 783 125 786 120

C791 111 794 106 797 106

C799 106 800 107 802 110

C804 112 804 112 811 110

C814 109 820 108 823 107

C827 107 828 107 832 111

C834 114 836 117 836 117

C836 118 835 121 834 124

C832 128 831 131 831 137

C831 141 831 144 832 145

C834 147 830 149 817 155

C810 158 804 161 805 161

C806 162 816 162 828 162

C848 161 849 161 843 162

C835 164 827 167 825 169

C824 170 824 170 825 170

C825 170 826 171 826 171

C826 173 820 176 813 177

C807 177 805 178 809 179

C813 180 826 180 826 179

C826 179 827 178 828 178

C831 178 834 181 834 183

C834 183 835 185 836 186

C839 188 838 190 834 195

C831 197 828 203 825 207

C822 213 822 215 822 221

C822 224 821 227 821 227

C821 227 812 218 812 217

C812 217 813 218 815 219

L818 221

L818 214

C818 211 819 204 819 201

C820 197 821 194 820 194

C818 194 816 197 814 201

C813 203 811 205 810 206

C809 206 805 212 801 217

C798 223 794 228 794 228

C794 228 793 227 792 225

Z

M761 172

C762 167 760 167 758 170

C757 172 757 173 758 174

C759 174 760 176 760 177

C760 179 761 177 761 172

Z

M761 163

L761 161

L758 163

C755 165 753 166 751 166

C748 166 747 166 747 168

C745 173 746 173 754 169

C760 166 761 165 761 163

Z

M761 143

C762 135 762 135 760 136

C759 137 757 141 755 144

L752 150

L756 149

C759 149 760 149 760 151

C760 155 761 151 761 143

Z

M806 143

C811 143 822 137 822 134

C822 133 817 134 813 136

C807 138 803 139 801 138

C799 137 799 137 797 140

C795 146 796 146 799 144

C801 144 804 143 806 143

Z

M818 125

C820 125 821 124 821 123

C821 123 821 122 820 123

C818 124 811 124 809 123

C808 122 808 122 807 124

C806 126 806 126 811 126

C813 125 817 125 818 125

Z

M628 224

C624 220 623 217 622 207

C621 197 621 193 623 187

C624 184 629 179 632 179

C632 179 634 178 635 177

C636 175 638 175 643 174

L649 174

L649 164

L649 155

L643 160

C637 166 633 170 629 176

C626 182 616 192 614 192

C613 192 610 190 607 188

C605 186 599 183 595 180

C590 177 588 175 589 175

C590 173 593 175 604 181

C616 188 614 189 623 176

C634 160 635 158 633 158

C632 158 629 159 627 160

C621 162 619 161 615 159

C613 157 610 155 608 154

C603 152 603 149 606 147

C609 145 623 142 637 141

L645 141

L647 136

C649 131 649 130 645 133

C641 136 637 136 631 133

C627 131 624 130 623 130

C623 130 622 129 621 128

C619 126 619 126 620 123

C621 119 627 114 630 114

C631 114 633 113 636 113

C638 112 646 110 654 110

C666 108 669 108 677 109

C692 111 703 116 689 115

C681 114 672 115 670 118

C669 119 669 119 670 120

C673 121 672 121 668 123

C666 124 663 125 661 126

L657 127

L657 132

C658 135 658 138 659 138

C660 139 681 136 693 133

C696 132 697 131 697 130

C696 127 699 127 700 130

C702 133 699 135 676 142

C668 145 666 146 671 146

C672 146 679 149 686 152

C696 157 698 159 706 166

C712 173 714 176 714 178

L714 180

L711 177

C707 172 700 169 702 173

C702 174 702 174 701 174

C701 173 700 174 700 175

C700 176 699 176 696 173

C692 171 683 167 678 166

C666 164 659 161 659 157

C659 154 657 160 657 167

C656 173 656 173 658 173

C663 173 671 171 672 170

C674 167 677 169 681 174

C686 179 687 184 685 189

C683 194 683 208 684 212

C686 217 684 218 677 216

C672 215 670 215 663 216

C652 217 641 221 637 224

C632 228 631 228 628 224

Z

M642 209

C648 207 663 206 667 208

C672 209 672 209 670 200

C669 196 669 195 667 196

C667 197 665 198 665 198

C664 199 664 199 665 200

C666 201 666 202 666 203

C666 203 661 204 656 205

L646 207

L642 205

L639 202

L637 205

C636 208 636 211 636 211

C636 211 639 210 642 209

Z

M663 194

C668 194 669 193 669 191

C669 189 668 189 662 191

C659 191 654 192 651 192

C646 192 645 192 641 189

C638 186 638 186 638 188

C639 189 639 192 639 193

C639 195 639 195 648 194

C653 194 660 194 663 194

Z

M416 224

C415 223 412 220 409 219

C406 217 403 216 402 215

C402 214 402 214 403 214

C404 215 407 216 410 217

L415 219

L412 211

C410 204 410 200 410 186

C410 177 409 170 409 170

C408 170 406 171 403 172

C398 174 398 174 398 178

C399 182 397 183 390 185

C387 186 385 186 385 187

C386 187 388 187 390 186

L395 185

L400 190

C406 196 407 199 402 205

L398 209

L389 209

C380 210 369 213 368 216

C367 218 365 217 362 214

C359 212 359 211 359 205

C359 202 359 198 359 195

C360 191 360 191 357 191

C355 190 353 190 353 191

C351 194 348 206 347 214

C346 218 344 222 343 223

L341 225

L338 222

C330 214 328 189 334 176

C335 173 336 173 339 173

C341 173 343 174 343 174

C343 175 352 175 352 174

C352 173 351 173 351 173

C350 173 349 171 349 167

C348 159 350 153 355 148

L359 144

L354 146

C349 147 348 147 343 146

C338 144 327 138 327 136

C326 136 327 134 328 132

C331 128 337 125 352 123

L363 122

L364 118

C364 113 367 108 371 105

C375 102 376 101 379 103

C380 104 382 105 384 106

C390 108 393 112 393 117

L393 121

L410 122

C428 123 436 125 440 128

C443 130 442 132 438 130

C435 129 410 129 406 130

C404 130 404 130 406 132

L409 133

L404 133

L399 134

L402 138

C404 140 406 142 407 143

C410 147 409 150 404 158

L400 166

L392 165

C387 165 382 165 379 166

C373 167 365 171 364 173

C363 174 410 169 412 168

C412 168 412 167 413 165

C415 161 418 163 422 171

L425 178

L422 186

C416 202 415 213 420 221

C421 223 422 225 422 225

C422 227 418 226 416 224

Z

M383 206

C390 206 391 203 384 204

C382 204 380 204 380 203

C379 201 377 202 375 204

C372 207 372 208 375 208

C376 207 380 207 383 206

Z

M383 162

L392 162

L391 159

C390 157 389 157 386 157

C383 157 380 157 379 157

C377 156 376 156 376 157

C376 157 375 159 373 161

C371 164 371 164 373 164

C374 163 378 163 383 162

Z

M374 140

C373 140 373 140 372 140

C371 141 371 141 372 141

C373 141 374 141 374 140

Z

M389 138

C393 138 397 137 397 136

C399 134 395 135 385 137

C377 138 371 141 379 139

C381 139 386 138 389 138

Z

M478 222

C475 219 475 218 477 218

C481 220 482 220 486 213

L491 207

L485 206

C477 206 475 204 473 194

C471 183 471 184 493 184

L511 184

L511 178

C512 169 513 168 517 168

L521 168

L520 176

L520 183

L533 182

C540 182 548 181 551 181

C554 180 558 180 561 180

L565 180

L561 183

C557 186 556 187 555 190

C554 192 553 194 547 196

L541 198

L544 202

C548 207 550 213 549 214

C548 216 534 216 531 215

C528 214 526 209 526 204

C526 201 526 201 522 201

C520 202 518 202 518 203

C517 203 518 211 519 220

C519 223 519 226 518 226

C517 226 502 218 502 217

C503 217 505 218 507 219

C510 220 512 220 513 220

C513 220 513 217 512 215

C512 212 511 209 511 207

C510 203 510 203 507 204

C503 205 500 207 500 209

C500 210 498 212 496 215

C494 217 493 218 494 217

C494 216 492 218 489 221

C486 224 483 226 482 226

C482 226 480 224 478 222

Z

M70 222

C70 221 68 219 66 217

C62 214 53 204 47 193

C43 187 42 183 44 183

C46 183 47 185 50 190

C51 193 55 198 58 201

L63 206

L64 204

C65 202 66 199 67 196

C68 191 72 175 74 171

C74 169 75 167 74 167

C74 166 75 164 75 163

C78 159 77 159 72 159

C64 159 61 156 57 146

C53 139 53 138 55 136

C57 135 58 135 67 135

C72 135 78 135 80 135

C82 135 83 135 84 130

C87 121 88 118 94 112

C98 107 100 106 102 106

C104 106 105 107 106 108

C107 109 109 112 110 114

C113 117 114 119 115 124

C116 126 115 128 111 133

C107 137 105 140 105 140

C105 140 106 141 108 142

C109 143 112 144 114 146

C115 148 117 149 117 148

C118 148 118 149 120 158

L121 165

L118 171

C116 174 113 179 112 182

C108 193 103 208 103 211

C103 213 103 213 108 213

C118 213 153 205 164 201

L168 199

L166 194

C164 192 163 188 163 187

C162 185 162 185 163 187

C168 192 172 198 172 199

C172 201 165 204 157 207

C146 211 128 215 112 216

L100 218

L98 216

C95 212 96 202 102 180

C106 166 107 161 106 161

C104 160 98 160 96 161

C95 163 90 173 90 175

C90 175 88 182 85 190

C82 197 79 205 78 207

C78 208 77 210 77 211

C76 212 74 219 74 220

C74 221 74 221 73 221

C72 221 72 221 73 222

C73 223 72 223 72 223

C71 223 70 222 70 222

Z

M101 205

C102 200 102 199 103 201

C104 202 104 201 104 199

C104 196 104 193 104 192

C105 190 104 191 103 193

C102 197 101 198 101 197

C100 196 100 196 101 198

C101 199 100 202 100 205

C99 208 99 211 99 211

C99 211 100 208 101 205

Z

M102 208

C101 207 101 208 101 209

C101 210 101 211 102 210

C102 210 102 208 102 208

Z

M103 204

C102 203 102 203 102 204

C102 205 102 206 103 206

C103 205 103 205 103 204

Z

M108 189

C108 188 107 189 107 190

C106 191 105 193 105 195

C105 196 106 195 107 193

C107 191 108 189 108 189

Z

M197 221

C192 218 191 214 191 208

C192 201 194 197 195 197

C195 198 198 196 200 194

C204 190 205 189 208 189

C214 189 218 192 223 198

C225 202 226 204 226 207

C226 211 223 218 220 220

C219 221 219 221 220 219

C221 217 222 216 222 215

C222 213 220 214 218 217

C215 222 214 222 206 223

C200 223 199 223 197 221

Z

M213 216

C217 212 216 203 211 201

C206 199 199 205 200 210

C202 217 209 220 213 216

Z

M131 198

C127 194 127 192 125 180

C123 168 124 158 128 147

C131 137 133 134 137 133

C140 132 144 134 144 137

C144 139 145 139 149 138

C152 137 156 138 158 142

C159 143 161 146 163 148

C165 151 165 152 165 156

C164 158 162 178 161 184

C161 184 160 184 160 184

C159 184 158 183 157 181

C156 178 156 180 158 185

C158 186 157 187 152 189

C143 193 136 198 136 200

C136 202 135 201 131 198

Z

M141 190

C144 188 147 187 150 186

C153 185 154 184 153 183

C153 182 153 181 152 180

C152 178 151 178 150 179

C148 180 142 179 140 178

C139 176 139 176 137 183

C136 186 136 189 135 190

C135 193 136 192 141 190

Z

M149 165

C149 163 145 161 144 163

C142 166 143 167 146 167

C148 167 149 167 149 165

Z

M496 180

C495 177 495 176 500 168

C503 163 509 153 514 146

L522 134

L518 134

C511 134 509 131 508 120

C507 115 507 114 509 113

C510 112 552 113 552 114

C553 114 553 117 554 120

C556 127 556 129 553 131

C551 132 549 136 545 144

C542 151 539 157 539 158

C539 158 538 160 537 162

C536 165 535 169 534 172

C533 175 532 178 532 178

C530 178 526 172 525 168

L524 164

L526 166

L529 168

L530 159

C531 153 533 146 535 141

C536 137 537 133 537 132

C535 131 531 134 526 139

C520 146 507 165 504 172

C502 175 500 178 499 180

L497 183

L496 180

Z

M469 180

C466 178 460 171 460 169

C460 166 464 164 477 160

L489 156

L492 148

C495 139 499 134 504 133

C509 132 510 133 510 141

L511 148

L504 154

C499 159 498 161 497 165

C497 170 495 171 487 176

C478 181 473 182 469 180

Z

M547 160

C546 158 546 152 547 145

C547 141 548 140 549 139

C551 139 572 143 577 145

L580 146

L577 147

C573 147 572 149 572 152

C572 155 569 158 563 160

C559 161 549 161 547 160

Z

M464 155

C461 153 460 151 460 140

L460 136

L467 135

C470 135 478 134 485 134

C494 134 495 134 492 135

C488 136 486 138 488 140

C491 143 482 153 474 155

C468 157 468 157 464 155

Z

M469 129

C465 127 464 124 464 116

C464 107 464 107 477 108

C487 109 491 111 499 117

C502 120 503 120 502 122

C500 126 492 128 481 128

C478 129 474 129 473 129

C472 130 471 129 469 129

Z

"/>

<path fill="#898989" stroke="none" d="
M792 225

C791 223 791 222 792 222

C793 221 794 219 796 218

C799 213 809 192 808 192

C806 192 800 198 792 206

C780 220 781 220 779 215

C779 213 779 212 780 213

C781 214 781 215 794 197

C800 188 802 186 800 186

C798 186 790 194 786 200

C782 207 781 205 784 197

C786 194 787 191 787 191

C786 191 785 193 784 195

C783 197 781 200 780 201

C779 203 778 203 778 201

C777 200 777 200 776 203

C776 207 774 205 774 200

C774 196 777 188 781 181

C782 179 782 178 780 177

C779 175 777 171 775 167

C772 159 773 158 782 161

C784 161 784 161 781 156

C779 153 777 144 779 140

C779 138 780 135 780 133

C781 130 781 130 779 131

C776 134 773 142 770 154

C768 167 767 179 768 191

C769 195 769 201 769 205

C770 209 770 212 771 212

C772 213 772 213 770 212

C766 212 766 212 765 207

C765 205 764 201 764 198

C763 192 762 182 762 174

C761 168 760 166 758 170

C757 172 757 172 758 173

C759 174 760 176 760 178

C760 183 751 189 748 186

C747 185 746 185 745 185

C744 186 744 205 745 210

C746 213 746 215 745 215

C744 216 743 216 742 214

C740 212 739 211 739 214

C739 215 738 216 737 217

C736 218 736 218 734 217

C734 215 732 213 732 211

C731 209 730 208 730 208

C728 208 727 194 727 183

C728 177 728 171 728 171

C728 171 728 170 728 170

C728 169 729 162 731 154

C735 134 738 127 747 118

C751 113 752 113 756 117

C758 119 759 119 764 119

C768 118 771 118 772 117

C774 117 776 120 781 127

C781 129 782 128 786 121

C790 111 794 106 797 106

C798 106 800 107 801 109

L804 112

L811 110

C815 109 820 108 823 107

C827 107 828 107 832 111

C834 114 836 117 836 117

C836 118 835 121 833 123

C831 127 831 130 831 137

C831 142 831 145 832 145

C833 145 832 146 832 147

C830 149 816 156 806 159

C805 160 804 160 804 161

C804 162 810 162 826 162

C839 161 847 161 846 162

C844 162 841 163 839 163

C837 163 835 163 834 164

C834 164 832 165 830 166

C825 167 824 169 825 171

C826 171 826 172 826 172

C822 175 819 176 813 177

C807 177 805 178 809 180

C812 180 826 180 829 179

C830 178 831 179 834 183

L838 189

L834 194

C831 197 827 203 825 206

C822 212 822 215 822 220

C822 224 821 227 821 227

C821 227 819 225 817 222

C814 219 813 218 815 219

L818 221

L818 211

C819 206 819 200 820 198

C821 196 821 194 821 194

C819 193 816 197 814 201

C812 204 810 206 809 206

C808 207 807 208 807 209

C806 211 795 228 794 228

C794 228 793 227 792 225

Z

M754 169

C760 166 761 165 761 163

C761 161 761 161 759 162

C758 162 757 164 756 164

C755 165 753 166 751 166

C748 166 747 166 747 168

C746 171 746 173 747 173

C747 173 751 171 754 169

Z

M761 148

C761 146 761 142 762 139

L762 135

L759 138

C757 140 755 144 754 146

L752 150

L756 149

C760 149 760 149 760 150

C759 151 759 152 760 152

C761 152 761 150 761 148

Z

M807 143

C809 143 820 138 821 137

C824 133 819 133 811 137

C808 137 805 138 803 138

C799 138 799 138 797 140

C797 141 796 143 796 144

C796 146 796 146 800 144

C802 144 805 143 807 143

Z

M818 125

C820 125 821 124 821 124

C821 123 820 122 820 123

C817 123 811 124 810 123

C808 122 806 124 806 125

C806 126 808 126 811 126

C813 125 817 125 818 125

Z

M628 224

C622 218 620 195 624 185

C625 184 627 182 629 181

C632 179 634 178 634 177

C636 175 641 174 645 174

L649 174

L649 164

L649 155

L643 161

C639 164 634 169 632 172

C625 182 616 192 614 192

C613 192 610 190 607 188

C605 186 599 182 595 180

C589 176 587 174 590 174

C591 174 596 177 602 181

C608 184 613 187 614 187

C615 187 619 182 628 169

C636 158 636 157 627 159

C621 162 619 161 613 157

C611 155 608 153 606 153

C603 151 603 148 606 147

C608 145 631 141 641 141

C645 141 645 140 647 136

C649 131 649 130 645 133

C641 135 636 136 633 134

C632 133 629 132 626 131

C622 130 619 127 619 126

C619 124 622 118 625 117

C628 114 639 111 654 109

C665 108 669 108 676 109

C684 110 696 113 696 115

C696 115 693 115 689 114

C682 114 673 115 670 117

C669 118 669 118 670 119

C672 121 672 121 669 122

C668 123 664 124 662 125

C658 126 657 127 657 130

C657 132 657 135 658 136

C659 139 659 139 664 139

C671 138 687 134 693 133

C695 132 697 131 697 130

C697 130 698 129 699 129

C700 129 700 132 699 134

C697 135 686 139 677 142

C674 142 670 144 669 144

C667 146 667 146 671 146

C673 147 680 150 686 153

C695 157 699 160 704 165

C711 171 714 175 714 178

C714 179 712 178 709 175

C705 171 700 169 702 173

C702 174 702 174 701 174

C700 173 700 174 700 174

C700 176 699 175 696 173

C693 171 690 170 688 169

C687 169 685 168 684 168

C684 167 681 167 679 166

C677 166 672 165 668 164

C663 162 661 161 660 158

L658 155

L658 159

C657 162 657 166 656 168

C656 173 656 173 659 173

C665 173 671 171 672 170

C674 167 677 168 682 174

C686 179 686 180 686 184

C685 187 685 192 684 195

C683 201 683 211 684 213

C684 214 684 215 684 216

C683 218 683 218 677 216

C671 215 669 215 660 216

C649 218 640 221 636 225

C632 228 631 228 628 224

Z

M643 209

C648 208 666 207 669 208

L671 209

L671 203

C670 195 669 195 666 197

C664 199 664 199 665 200

C667 202 665 203 654 205

L646 207

L642 205

C638 202 638 202 637 208

C636 211 636 211 637 211

C638 210 641 210 643 209

Z

M666 194

C669 194 669 193 669 191

L669 188

L663 190

C652 193 643 192 640 187

C639 185 638 186 639 191

L639 195

L651 194

C657 194 664 194 666 194

Z

M418 225

C418 224 414 222 410 220

C402 215 401 213 409 217

C412 218 414 219 414 219

C415 219 414 216 413 211

C410 202 409 184 410 176

C410 172 411 169 410 169

C410 169 407 170 403 172

C399 174 397 175 398 176

C400 180 398 183 390 185

C387 186 385 187 386 187

C386 187 389 187 391 186

C394 185 394 185 400 190

C405 196 406 197 404 202

C401 207 398 209 389 209

C380 210 370 213 368 216

C367 218 364 217 361 213

C358 209 358 203 359 195

C360 191 360 191 357 190

C355 190 353 190 353 191

C351 193 348 206 347 214

C346 218 344 222 343 223

L341 225

L338 222

C332 217 328 197 331 184

C334 174 335 172 339 173

C340 173 342 174 343 174

C344 175 351 175 352 174

C352 174 352 173 351 173

C350 172 349 169 349 166

C348 159 349 154 355 148

C358 146 359 144 359 144

C359 144 356 145 354 146

C350 147 348 147 345 146

C340 145 328 138 327 137

C326 135 329 130 332 128

C334 127 344 124 354 123

C363 122 363 122 364 119

C365 111 371 103 375 103

C376 103 380 104 383 106

C391 109 394 113 393 118

L393 121

L407 121

C422 122 432 124 438 127

C442 129 444 132 440 130

C438 129 404 129 404 130

C404 131 405 131 406 132

C407 132 408 133 407 133

C400 133 370 140 371 141

C372 141 375 140 380 140

C384 139 389 138 391 138

C393 138 395 137 397 137

C398 136 399 135 399 135

C400 135 409 147 409 149

C409 150 407 154 404 158

L400 166

L391 165

C381 165 371 167 366 171

L363 174

L366 174

C367 173 374 173 382 172

C402 170 411 168 413 166

C415 162 418 164 422 171

C425 177 425 178 424 181

C422 185 420 193 418 200

C416 206 417 216 420 221

C422 224 422 226 420 226

C420 226 419 225 418 225

Z

M384 206

C387 206 389 205 389 205

C388 204 387 204 385 204

C384 204 381 204 380 203

C377 202 377 202 375 204

C372 207 373 208 376 208

C377 207 381 207 384 206

Z

M384 162

L392 162

L391 159

C390 157 389 156 386 157

C384 157 381 157 380 157

C377 156 377 156 376 157

C376 158 374 160 373 161

L370 164

L373 164

C374 163 379 163 384 162

Z

M481 225

C481 225 480 223 478 221

C475 219 475 218 477 218

C481 220 482 220 486 214

C489 210 491 207 491 207

C491 206 489 206 486 206

C478 206 475 204 473 194

C473 190 472 186 472 186

C472 186 473 186 474 185

C476 184 482 184 494 184

L511 184

L511 179

C511 172 513 169 517 168

L520 168

L520 173

C520 176 520 180 520 181

L520 183

L533 182

C541 182 549 181 551 181

C554 180 558 180 560 180

C564 180 564 180 563 182

C557 186 554 189 554 191

C554 193 552 194 544 197

L541 198

L544 202

C552 212 551 216 539 216

C530 216 527 214 526 206

L526 201

L522 201

C517 202 517 202 519 221

C519 224 519 226 518 226

C517 226 504 219 503 218

C503 217 505 218 507 219

C510 220 512 220 512 220

C513 219 510 204 510 203

C509 203 503 205 501 207

C500 207 499 209 500 209

C500 210 498 212 496 215

C494 217 493 218 494 217

C497 213 493 215 489 221

C484 225 481 227 481 225

Z

M197 221

C193 218 191 214 192 208

C192 202 194 197 195 198

C196 198 198 196 200 194

C204 190 205 189 209 189

C214 189 218 192 223 198

C225 202 226 204 226 207

C226 211 223 218 220 220

C219 221 219 221 220 219

C221 217 222 215 222 214

C221 213 220 214 218 217

C214 222 214 222 207 223

C202 223 200 223 197 221

Z

M213 216

C216 213 216 208 215 204

C212 199 207 199 202 203

C197 208 202 218 208 218

C210 218 212 217 213 216

Z

M195 200

C196 200 196 199 195 200

C194 200 194 201 194 201

C194 202 195 202 195 200

Z

M70 221

C71 221 69 220 67 218

C61 215 45 193 43 186

C43 183 43 183 45 184

C46 184 48 188 51 191

C53 195 56 200 59 203

C64 208 64 209 69 191

C70 183 73 175 73 173

C74 170 75 167 74 166

C74 166 75 164 75 163

C78 159 77 159 72 159

C67 159 66 159 63 155

C61 154 59 150 58 148

C58 146 56 143 55 142

C51 136 61 132 76 135

C83 137 83 136 85 128

C86 122 90 117 97 109

C101 105 105 105 107 109

C107 111 109 112 109 113

C112 116 114 120 115 124

C116 127 116 128 110 133

C107 136 105 139 105 140

C105 140 106 142 108 142

C110 143 113 145 114 146

C115 148 117 149 117 148

C118 148 118 149 120 158

L121 164

L118 170

C113 178 103 204 103 210

C103 212 103 212 102 211

C102 209 103 203 107 192

C109 186 109 184 106 189

C105 193 105 192 106 187

C107 185 107 185 106 186

C105 188 104 189 104 190

C104 191 104 191 103 191

C102 190 100 196 101 199

C101 201 101 201 100 200

C99 199 99 199 100 202

C100 204 100 205 99 204

C99 204 98 205 98 208

C98 210 99 212 99 211

C100 211 100 210 100 209

C100 207 101 206 101 205

C102 203 102 203 101 206

C101 208 101 210 100 211

C99 216 132 211 156 203

C167 200 169 199 167 197

C167 196 165 193 164 191

C162 185 163 186 168 193

L172 199

L170 201

C165 205 143 212 122 215

C100 218 99 218 99 216

C98 215 97 214 97 214

C96 214 96 206 97 198

C98 195 101 185 103 177

C105 169 107 162 107 161

C106 160 104 160 101 160

C97 160 96 160 94 164

C93 166 91 171 90 175

C89 178 86 186 83 192

C81 198 79 204 78 206

C78 208 77 210 77 211

C76 212 75 215 74 217

C73 220 72 222 71 222

C70 222 70 222 70 221

Z

M102 201

C102 200 103 198 104 196

C104 194 105 193 105 194

C105 195 104 197 104 199

C103 201 102 202 102 201

Z

M132 198

C127 194 125 188 124 173

C124 161 126 151 131 140

C134 133 137 131 141 134

C143 134 144 135 144 136

C143 136 143 137 144 138

C144 139 145 140 148 138

C153 137 154 137 158 142

C165 151 165 152 164 163

C163 168 162 174 162 176

C162 184 159 187 157 181

C156 179 156 178 156 180

C157 181 157 183 157 185

C158 186 157 187 148 192

C141 195 137 197 136 199

L135 201

L132 198

Z

M144 189

C148 187 152 185 153 185

C154 185 154 184 153 181

C152 179 151 178 150 179

C147 180 142 179 140 178

C140 177 139 177 139 177

C138 178 135 191 135 191

C135 193 137 192 144 189

Z

M149 165

C149 164 148 163 147 162

C145 161 145 161 144 164

L142 167

L145 167

C148 167 149 167 149 165

Z

M101 197

C101 196 102 195 102 194

C103 192 103 192 103 193

C103 194 102 195 102 197

C101 198 101 198 101 197

Z

M496 180

C495 177 496 176 500 169

C504 162 515 144 521 136

C522 134 522 134 518 134

C515 134 513 133 511 131

C508 129 508 127 508 123

C508 120 508 118 507 117

C507 116 508 115 508 114

C510 112 516 112 543 114

L553 114

L553 117

C554 119 554 123 555 125

C555 129 555 130 553 131

C551 131 549 134 547 138

C541 151 536 165 534 171

C533 174 532 177 531 177

C530 177 527 173 526 171

C526 170 526 168 525 167

C525 165 525 165 527 166

C529 168 529 168 529 163

C530 159 534 142 537 134

C537 132 537 132 535 132

C533 132 531 134 527 138

C521 144 508 163 502 174

C500 179 498 182 497 182

C497 182 497 181 496 180

Z

M469 179

C465 177 460 170 460 168

C461 166 465 164 478 159

L489 155

L492 149

C494 141 495 139 499 136

C501 134 503 133 506 133

C509 133 510 134 510 143

C511 148 511 148 507 151

C501 156 497 162 497 165

C497 169 495 172 486 176

C476 181 473 181 469 179

Z

M547 159

C545 157 546 141 548 140

C550 139 553 139 567 143

C579 146 581 146 576 147

C573 147 572 148 572 151

C572 153 571 155 570 156

C564 161 550 163 547 159

Z

M465 156

C462 154 460 150 460 143

C460 141 460 139 460 138

C458 136 463 135 479 134

C492 134 495 134 492 135

C488 136 486 138 488 140

C489 141 488 143 486 145

C483 151 480 154 475 155

C473 155 471 156 470 156

C469 157 467 156 465 156

Z

M469 129

C465 127 464 124 464 116

C464 107 464 107 477 108

C486 109 492 111 499 117

C502 119 503 123 500 124

C493 127 490 128 482 128

C479 128 475 128 474 129

C473 129 471 129 469 129

Z

"/>

<path fill="#696969" stroke="none" d="
M793 225

C791 223 792 223 794 220

C795 219 798 214 800 209

C802 204 805 199 807 197

C809 192 809 192 808 192

C806 192 796 201 787 212

C784 215 781 218 781 218

C780 218 780 216 780 215

C779 214 779 213 780 213

C782 214 802 187 801 186

C799 185 788 197 785 201

C784 204 782 205 782 203

C782 202 783 200 785 197

C787 192 787 191 786 191

C786 191 785 193 784 195

C783 197 781 200 780 201

C778 203 778 203 778 202

C778 200 778 200 777 203

L775 206

L774 203

C773 199 774 195 779 186

L782 179

L780 176

C778 174 776 171 776 168

C775 165 774 162 773 161

C773 160 777 159 780 160

C784 162 785 161 782 157

C779 153 778 146 780 138

C780 134 781 131 781 130

C780 129 775 137 773 143

C772 146 770 155 769 162

C767 174 767 176 768 188

C769 195 769 203 769 206

C769 209 770 211 771 212

C772 213 772 213 770 213

C769 212 767 212 767 212

C766 212 766 211 766 209

C766 207 765 203 764 200

C764 196 763 189 763 184

C763 178 762 174 762 175

C761 175 761 173 762 171

C762 168 762 168 761 168

C758 169 756 172 758 173

C759 174 760 176 760 178

C760 180 759 181 757 183

C753 187 749 188 748 186

C747 185 746 185 745 185

C744 186 744 205 745 210

C746 215 745 218 742 214

C740 212 739 211 739 214

C739 216 737 218 736 218

C735 218 729 206 728 202

C727 198 728 178 728 171

C730 158 735 137 738 130

C742 122 749 114 752 114

C752 114 754 115 756 117

C758 119 761 120 769 118

C771 118 773 118 774 118

C775 119 781 127 781 128

C781 129 783 125 786 120

C794 105 796 103 801 109

C804 112 804 112 808 111

C811 110 816 109 820 108

L827 107

L831 111

C834 114 836 117 836 117

C836 118 835 121 833 124

C831 128 831 130 831 138

C831 144 831 148 830 149

C830 149 824 152 818 154

C798 162 799 162 826 162

C841 161 847 161 843 162

C839 163 835 164 834 164

C832 165 829 166 828 167

C824 167 823 169 825 170

C826 172 826 173 825 173

C824 173 823 174 822 175

C821 175 817 176 814 177

C809 177 807 178 807 178

C808 180 824 180 827 179

C830 178 831 179 835 184

L838 189

L834 193

C832 196 828 201 826 205

C822 212 822 213 822 220

L822 227

L817 223

C812 218 812 217 816 220

L818 221

L818 216

C818 211 820 199 821 196

C821 193 819 194 816 196

C815 197 814 200 813 202

C812 204 811 205 810 206

C809 206 805 211 801 217

L794 228

L793 225

Z

M754 169

C760 166 761 165 761 163

C761 160 760 160 757 164

C755 165 754 166 751 166

C748 166 747 167 747 168

C746 170 746 173 747 173

C747 173 751 171 754 169

Z

M761 144

C762 139 762 135 761 135

C760 135 754 144 753 147

C752 150 752 150 756 150

C758 150 760 150 760 151

C760 155 761 153 761 144

Z

M806 143

C814 142 821 138 822 136

C822 135 822 134 822 133

C821 133 816 134 810 137

C807 137 804 138 802 138

C799 137 797 138 796 143

C796 146 796 146 798 146

C799 145 802 144 806 143

Z

M814 125

C823 125 823 122 814 123

C808 123 807 123 806 125

C805 127 805 127 806 127

C807 126 811 126 814 125

Z

M628 224

C624 221 623 216 622 204

C621 188 624 181 632 179

C634 179 635 178 635 177

C635 176 637 175 644 174

L649 174

L649 164

L649 155

L643 160

C638 165 633 170 630 175

C628 177 626 181 619 188

C617 190 615 192 614 192

C613 192 610 190 607 187

C603 185 598 181 594 179

C591 177 588 175 589 175

C589 173 593 175 604 182

L614 188

L619 182

C625 173 635 159 635 158

C635 157 634 157 626 160

C620 161 617 161 611 156

C609 154 607 153 606 152

C604 152 603 149 605 147

C607 146 615 144 631 142

L645 140

L647 136

C649 131 648 130 644 133

C641 136 636 136 630 133

C628 131 625 130 624 130

C622 130 620 128 620 125

C620 121 627 113 630 114

C630 115 632 114 634 114

C638 111 657 109 668 109

C679 109 689 111 694 114

C696 115 696 115 691 114

C688 114 685 114 685 114

C684 113 674 115 671 116

C669 118 668 119 671 120

C672 121 672 121 669 122

C667 123 664 124 663 124

C661 125 659 126 658 127

C656 128 656 129 657 133

C658 136 659 138 660 139

C661 139 672 138 686 135

C694 133 696 132 697 131

C697 129 699 128 700 131

C701 133 698 135 692 136

C689 137 686 139 685 139

C683 140 679 141 676 142

C667 145 666 146 671 147

C678 148 696 157 703 163

C709 170 714 176 714 178

C714 180 714 180 712 178

C710 175 708 173 705 171

C702 170 702 170 701 173

L700 176

L696 174

C692 170 684 167 675 165

C664 163 661 162 660 158

L658 155

L658 159

C657 161 657 165 656 168

L656 173

L662 173

C666 172 671 171 673 170

L676 168

L680 172

C682 174 684 177 685 178

C686 181 686 187 685 189

C684 191 683 196 683 204

C683 211 683 217 683 217

C683 218 681 217 678 216

C672 215 667 215 657 217

C648 218 637 223 635 225

C633 228 631 227 628 224

Z

M644 209

C649 208 666 207 669 208

L671 209

L671 203

C670 199 670 196 669 196

C669 195 668 196 666 197

C665 198 664 199 665 201

C665 203 665 203 657 204

C653 205 649 206 648 207

C647 207 645 206 643 205

C641 203 639 202 639 202

C638 202 636 208 636 210

C636 211 637 211 638 211

C639 210 641 210 644 209

Z

M667 194

C669 194 669 193 669 191

L669 188

L662 190

C651 193 643 192 640 187

C639 185 638 186 639 191

L639 195

L652 194

C659 194 666 194 667 194

Z

M418 225

C418 224 414 222 410 220

C402 215 402 214 410 217

C412 218 414 219 414 219

C415 219 414 215 412 210

C410 202 410 200 410 185

C410 170 410 169 412 166

C416 163 417 163 421 171

C424 177 425 179 424 180

C423 182 420 190 417 201

C415 206 417 215 419 220

C420 222 421 224 421 225

C421 226 419 226 418 225

Z

M479 222

C477 220 476 218 476 218

C476 218 477 218 478 219

C479 221 482 220 487 213

C493 205 493 206 484 206

C478 206 475 202 474 195

C473 192 473 188 472 188

C471 185 477 183 487 184

C492 185 499 185 503 184

L511 184

L511 179

C511 177 512 173 512 171

C514 169 514 168 517 168

C520 168 520 168 520 173

C520 176 520 180 520 181

L520 183

L536 182

C544 182 552 181 554 181

C555 180 558 180 560 180

C564 180 564 180 563 181

C559 184 554 189 554 191

C554 193 551 194 544 197

L541 198

L544 203

C546 206 548 209 549 211

C549 213 549 214 546 215

C544 216 541 216 537 216

C529 215 527 213 527 207

C526 204 526 202 526 201

C525 201 524 201 522 201

C517 202 516 204 518 216

C518 221 519 226 519 226

C518 226 515 224 511 222

C507 220 504 218 506 218

C507 219 509 219 510 220

C513 220 513 220 513 217

C512 215 512 211 511 209

C511 206 510 204 510 203

C508 202 501 205 500 207

C500 208 499 209 499 210

C500 210 498 212 496 215

C494 217 493 218 494 217

C495 216 495 215 495 214

C495 214 492 217 489 220

C486 223 484 226 483 226

C483 226 481 224 479 222

Z

M339 223

C331 217 328 190 333 177

C335 174 335 173 338 173

C340 173 342 174 343 174

C344 175 346 176 348 175

C352 175 353 174 350 172

C349 172 349 170 349 164

C349 157 349 155 355 148

C359 144 359 144 357 145

C356 145 352 146 348 146

C342 146 341 145 335 141

C331 139 327 137 327 136

C327 135 328 133 329 131

C331 128 337 126 345 125

C347 124 351 124 355 123

C359 122 362 122 363 122

C363 122 364 121 364 119

C364 113 371 103 374 103

C376 103 380 104 383 106

C391 109 394 113 393 118

L393 121

L406 121

C421 122 433 124 438 127

C443 129 443 131 439 130

C435 129 404 129 404 130

C404 130 404 131 405 132

C406 133 406 133 390 136

C384 136 377 138 375 139

C370 141 369 141 386 139

C390 138 395 137 397 136

C400 135 400 135 402 138

C403 139 405 141 406 143

C409 147 409 151 404 159

L399 166

L391 165

C381 165 370 167 365 171

L363 174

L369 173

C375 173 397 171 405 169

L410 169

L406 170

C404 171 401 173 400 173

C398 175 397 176 398 178

C399 181 398 182 390 185

C387 186 385 187 387 187

C388 187 390 186 391 186

C394 185 394 185 400 190

C403 193 405 196 405 198

C405 199 404 202 402 204

L398 209

L389 209

C385 210 379 210 377 211

C373 212 368 215 368 216

C368 218 365 217 362 214

C359 211 359 210 359 203

C359 199 359 195 360 194

C361 191 361 191 357 190

C355 190 353 190 353 191

C352 192 347 208 346 214

C346 217 345 220 344 222

L341 225

L339 223

Z

M381 207

C387 207 389 206 389 205

C389 204 387 203 385 203

C382 203 379 203 378 203

C376 203 375 203 374 206

C373 208 372 209 373 209

C374 208 377 207 381 207

Z

M384 162

L392 162

L391 159

C390 157 390 156 383 156

C379 156 376 157 376 157

C376 158 375 160 373 161

L370 164

L373 164

C374 163 379 163 384 162

Z

M197 221

C193 218 191 214 192 206

C193 199 194 198 195 198

C196 198 196 198 195 199

C194 199 194 200 194 201

C195 202 195 201 196 199

C197 197 200 194 202 192

C205 189 206 189 210 189

C212 190 215 190 216 191

C220 194 226 203 226 206

C226 210 224 215 222 218

L220 221

L221 218

C223 213 221 213 217 217

C215 221 214 222 211 222

C209 222 206 222 204 223

C202 223 200 223 197 221

Z

M214 215

C218 210 215 200 208 200

C205 200 200 205 200 209

C200 217 209 221 214 215

Z

M71 221

C70 220 69 219 69 219

C65 219 46 194 44 186

C43 182 46 184 50 191

C52 194 56 200 58 202

L63 208

L65 204

C66 202 67 196 69 191

C70 186 72 177 74 171

C76 165 77 160 77 159

C77 158 75 158 71 158

C66 158 65 158 62 155

C60 153 59 151 59 151

C59 150 58 147 57 144

C55 141 54 138 55 137

C56 135 63 134 72 135

C77 135 81 136 82 136

C82 136 84 133 85 130

C85 127 87 123 87 121

C89 118 96 109 99 107

C101 106 106 107 106 108

C106 109 108 111 109 114

C117 122 117 126 109 134

L104 140

L108 142

C110 143 113 145 114 147

C115 148 117 149 117 148

C118 148 118 149 118 150

C119 151 119 155 120 158

C121 164 121 166 117 171

C116 172 113 179 111 185

C106 196 104 199 107 190

C109 185 109 185 106 189

C105 193 104 192 106 188

C107 186 107 185 106 185

C106 185 105 186 104 188

C104 190 103 191 103 190

C102 188 99 199 100 203

C100 205 100 205 99 204

C98 203 98 204 98 207

C98 210 99 212 99 212

C99 211 100 212 100 212

C101 215 123 212 145 207

C156 204 168 200 168 199

C168 198 167 196 165 193

C164 190 163 188 163 187

C164 187 171 196 172 198

C172 200 162 205 152 208

C141 211 120 216 110 216

C106 217 102 217 101 218

C99 218 96 213 96 209

C96 204 99 191 103 176

C105 168 107 162 107 161

C106 160 104 160 101 160

C96 160 96 160 94 164

C93 166 91 171 90 175

C89 178 86 186 84 192

C81 198 79 204 78 206

C78 208 77 210 76 211

C76 213 75 214 75 215

C75 215 74 217 73 219

C72 221 71 222 71 221

Z

M102 209

C102 208 102 208 103 209

C103 210 103 210 103 211

C102 211 102 210 102 209

Z

M100 208

C100 207 100 207 101 208

C101 209 101 209 101 210

C100 210 100 209 100 208

Z

M104 200

C104 197 104 194 104 193

C105 193 105 194 105 196

C104 199 104 199 105 198

C106 197 106 197 106 198

C106 199 105 201 105 203

C103 206 103 206 104 200

Z

M100 200

C100 199 101 198 101 197

C102 195 102 195 102 196

C102 197 101 198 101 200

C100 201 100 201 100 200

Z

M132 199

C128 195 126 190 125 178

C124 166 124 158 128 147

C131 138 134 133 137 133

C140 132 143 134 143 138

C144 140 144 140 146 139

C147 139 149 138 151 138

C153 138 154 138 158 142

C162 147 165 152 164 155

C164 156 163 163 163 169

C162 176 161 182 161 183

C161 185 158 184 157 181

L156 178

L156 181

C157 182 157 184 157 185

C158 186 155 188 148 192

C141 195 137 197 136 199

L135 201

L132 199

Z

M144 189

C148 187 152 185 153 185

C153 185 154 184 154 183

C155 182 154 181 154 182

C154 182 153 181 153 180

C152 179 151 178 147 178

C144 178 141 178 140 178

C139 177 138 178 137 184

C135 191 135 193 136 193

C136 193 140 191 144 189

Z

M148 167

C150 167 149 163 147 162

C145 161 145 161 144 164

C142 167 142 168 145 168

C146 167 147 167 148 167

Z

M496 179

C495 177 496 175 501 167

C504 161 510 152 514 146

L522 135

L517 134

C510 133 509 131 508 121

C508 112 508 112 514 113

C515 113 519 113 523 113

C527 113 535 113 542 114

L553 114

L554 119

C556 127 555 129 553 131

C549 132 537 158 534 171

C532 178 531 179 527 172

C524 166 524 164 527 166

C529 168 529 168 530 164

C531 154 533 145 535 139

C542 119 521 141 503 172

C500 177 498 182 498 182

C497 182 497 181 496 179

Z

M468 178

C464 176 460 171 460 169

C460 166 464 164 477 160

L489 155

L491 149

C494 141 495 139 499 136

C501 134 503 133 506 133

C507 133 509 133 509 133

C509 133 509 137 510 141

C510 149 510 149 508 151

C503 153 497 162 497 165

C497 169 494 172 485 176

C477 180 472 181 468 178

Z

M547 159

C545 157 546 141 548 140

C549 139 551 139 552 140

C559 141 574 144 576 145

L579 146

L576 147

C573 147 572 148 572 151

C572 152 571 154 570 156

C566 160 550 163 547 159

Z

M467 156

C462 154 461 152 460 144

C460 139 460 136 461 136

C461 135 469 135 479 135

C488 134 494 135 492 135

C488 136 487 137 488 140

C489 145 482 152 474 155

C471 156 469 157 469 157

C469 157 468 157 467 156

Z

M466 126

C463 122 463 109 465 108

C468 107 485 109 488 110

C494 114 496 115 499 117

C502 120 502 120 501 122

C501 124 499 125 498 125

C497 125 496 125 496 126

C495 127 490 128 477 128

L468 129

L466 126

Z

"/>

<path fill="#515151" stroke="none" d="
M793 225

C791 223 791 222 792 222

C793 222 797 216 800 209

C804 201 808 195 808 195

C809 193 809 192 808 192

C806 192 799 198 790 209

C785 214 781 218 781 218

C781 218 780 217 780 216

C779 215 780 214 780 214

C781 214 784 210 788 206

C795 196 800 189 802 187

C803 186 803 186 801 186

C800 185 793 189 793 191

C793 191 792 193 790 195

C788 197 786 200 785 201

C784 203 783 204 783 204

C782 204 783 201 785 196

C787 192 787 191 786 191

C786 191 785 192 784 194

C782 198 778 203 778 201

C778 200 777 201 777 203

L775 206

L774 203

C773 199 774 195 779 187

L782 179

L779 175

C777 173 776 170 776 169

C776 168 775 166 774 164

C774 162 773 161 773 160

C774 160 777 160 781 160

C785 161 785 160 782 156

C777 150 778 137 785 123

C793 107 797 103 801 109

C803 113 804 113 812 110

C816 109 820 108 823 107

C826 107 827 107 831 111

C836 116 837 118 834 123

C831 127 831 129 831 136

C831 140 831 144 831 145

C833 147 830 149 817 155

C809 158 803 161 803 161

C803 162 811 162 825 162

C841 161 846 161 842 162

C839 163 835 164 833 165

C832 165 830 166 829 166

C828 166 827 167 826 167

C824 168 824 169 825 171

C826 173 826 173 825 173

C824 173 822 174 822 175

C821 175 817 176 814 177

C809 177 807 178 807 178

C808 180 823 180 827 179

C830 178 830 178 834 184

L838 189

L834 194

C827 201 822 212 821 220

L821 226

L817 222

C815 220 814 219 815 220

C817 222 818 221 818 216

C818 213 819 207 820 203

C820 198 821 194 821 194

C821 194 820 194 820 194

C818 194 815 197 813 202

C812 204 810 206 809 206

C808 206 804 213 797 224

L794 228

L793 225

Z

M806 143

C814 142 820 139 822 136

C824 133 821 133 813 136

C808 137 804 138 802 138

C799 137 797 138 796 143

C795 146 795 146 797 146

C799 145 802 144 806 143

Z

M814 125

C823 125 823 123 814 123

C809 123 807 123 806 124

C805 126 805 127 806 127

C807 126 811 126 814 125

Z

M629 225

C625 221 623 215 622 204

C621 188 624 181 632 179

C634 179 635 178 635 177

C635 176 637 175 645 174

L650 174

L649 164

L649 155

L642 161

C638 164 633 170 631 173

C629 176 627 179 626 180

C626 180 624 183 622 185

C615 193 614 193 605 186

C602 184 598 181 595 179

C589 176 587 173 591 175

C592 175 598 178 604 182

L614 188

L616 185

C624 176 635 159 635 158

C635 157 634 157 633 157

C632 158 629 159 626 160

C621 161 620 161 616 159

C610 155 604 151 604 149

C604 149 605 147 607 147

C610 145 624 143 638 141

L645 141

L647 136

C648 134 649 132 649 131

C649 130 646 131 644 133

C641 136 636 135 631 132

C628 131 625 130 624 130

C622 130 620 128 620 125

C620 121 626 115 630 115

C631 114 635 113 637 113

C651 108 678 108 690 112

C697 115 697 116 689 114

C684 113 677 114 672 116

C669 117 668 118 671 120

C672 120 671 121 668 122

C657 127 656 127 657 131

C657 133 657 136 658 137

L659 140

L670 138

C676 137 684 136 686 135

C697 132 698 132 697 130

C697 130 697 129 698 129

C699 129 699 130 700 131

C701 133 698 135 690 137

C686 138 682 140 682 140

C681 140 678 141 674 142

C671 144 668 145 667 145

C667 145 669 146 671 147

C677 148 696 157 702 163

C708 168 714 176 714 178

C714 180 714 180 712 178

C711 175 703 170 701 170

C700 171 700 171 700 172

C701 172 700 173 700 174

C699 175 699 175 696 173

C693 171 684 167 680 166

C666 164 659 160 659 156

C659 151 657 159 656 166

L656 173

L663 173

C667 172 671 171 672 171

C675 168 677 168 678 170

C679 172 681 174 683 176

C686 180 687 182 684 191

C683 195 683 200 683 207

C683 212 683 217 683 217

C683 218 681 217 679 216

C673 215 666 215 656 217

C646 219 641 221 637 224

C632 228 632 228 629 225

Z

M641 210

C645 208 662 207 667 208

C669 209 671 209 672 209

C672 208 670 198 669 196

C669 195 668 195 666 197

C664 198 663 199 664 200

C665 201 665 202 665 202

C665 203 660 204 655 205

L647 207

L643 204

C638 201 637 202 636 207

C636 211 636 212 641 210

Z

M667 194

C669 194 669 193 669 191

C669 188 669 188 667 189

C651 193 644 193 640 186

C638 185 638 185 638 187

C638 188 638 190 639 192

L639 195

L652 195

C659 194 666 194 667 194

Z

M418 224

C417 223 413 221 410 219

C407 217 404 216 404 215

C404 215 406 216 409 217

C412 218 414 219 415 219

C415 219 414 215 412 210

C410 202 410 200 410 185

C410 170 410 169 413 166

C416 163 418 164 422 171

L425 178

L420 190

C416 202 416 204 416 210

C417 213 418 218 419 220

C422 226 421 228 418 224

Z

M480 223

C477 220 477 219 479 220

C481 220 483 219 487 213

C492 206 492 205 484 206

C478 206 475 203 474 196

C473 192 473 189 472 188

C471 184 477 183 488 184

C492 185 500 185 504 184

L511 184

L511 179

C511 177 512 173 512 171

C514 169 514 168 517 168

C520 168 520 168 520 173

C520 176 520 180 520 181

L520 183

L536 182

C545 182 553 181 554 181

C555 180 558 180 560 180

L564 180

L562 182

C557 185 554 188 554 191

C554 192 553 193 548 195

C545 196 542 197 542 197

C540 197 541 200 543 202

C545 204 549 210 549 212

C549 214 545 216 539 216

C530 216 527 214 527 206

C526 202 526 201 523 201

C522 201 520 202 519 202

C517 204 517 204 518 214

C518 220 518 225 518 225

C518 225 514 224 511 222

C507 220 504 218 506 219

C507 219 509 220 511 220

L514 220

L512 215

C512 212 511 208 511 207

C511 203 509 202 505 204

C501 205 497 209 498 211

C499 211 498 213 497 214

C495 215 495 216 495 215

C496 215 496 214 495 214

C495 214 492 217 489 220

C486 223 483 226 483 226

C483 226 481 225 480 223

Z

M339 223

C335 221 332 212 330 200

C330 194 331 183 334 177

C335 174 336 173 338 173

C340 173 342 174 343 175

C344 176 346 176 348 175

C352 175 353 174 351 172

C349 171 348 163 349 158

C350 155 352 152 355 149

C358 146 360 144 360 143

C360 143 358 144 356 145

C352 146 346 146 342 145

C337 143 327 137 327 136

C327 135 328 133 329 132

C331 128 337 126 345 125

C347 124 352 124 356 123

C359 123 363 122 363 122

C364 122 364 121 364 119

C364 117 365 114 366 113

C368 108 373 103 375 103

C376 103 382 105 388 108

C391 110 394 116 393 118

C392 121 392 121 409 122

C426 123 433 124 439 127

C443 130 443 130 438 130

C432 129 406 128 404 129

C403 130 403 130 405 132

C406 132 406 133 405 133

C402 133 377 138 374 139

L370 141

L373 141

C384 140 395 138 397 136

C400 135 400 135 404 141

C406 144 408 148 408 149

C408 151 406 155 404 159

L399 165

L388 165

C376 166 371 167 364 172

L362 174

L369 174

C378 173 400 170 405 169

C408 169 408 169 403 172

C398 174 397 175 397 178

C397 182 397 183 389 185

C384 187 384 187 387 187

C389 187 391 187 392 186

C394 185 395 186 400 190

C403 193 405 197 405 198

C405 199 403 202 401 204

L398 209

L391 209

C382 209 371 212 369 215

C367 218 367 218 363 214

C359 211 359 211 359 203

C359 199 359 195 360 194

C361 191 361 191 357 190

C353 189 353 189 352 193

C349 199 346 212 346 216

C346 217 345 220 344 221

C341 224 341 224 339 223

Z

M384 207

C388 207 389 207 389 205

C389 203 389 203 386 203

C384 204 382 204 380 203

C377 201 377 201 375 204

C371 208 371 209 375 208

C377 207 381 207 384 207

Z

M378 163

C381 162 385 162 388 162

C392 162 392 162 391 159

C390 157 389 157 383 157

C377 157 376 157 375 158

C374 159 373 161 371 163

C369 165 369 165 371 165

C372 164 375 164 378 163

Z

M197 220

C192 216 191 213 192 207

C193 201 194 198 194 202

C194 203 195 203 196 200

C199 194 205 189 208 189

C212 189 216 191 215 192

C215 193 215 193 216 193

C218 191 226 202 226 207

C226 209 224 215 223 215

C223 215 222 215 221 214

C221 213 219 214 217 217

C215 221 214 222 211 222

C209 222 206 222 204 223

C201 223 200 223 197 220

Z

M214 215

C218 210 215 200 209 200

C206 200 201 202 201 205

C199 208 200 211 202 215

C204 218 205 218 208 218

C211 218 212 217 214 215

Z

M208 191

C208 190 207 190 206 190

C205 190 205 190 206 191

C208 192 208 192 208 191

Z

M70 220

C60 212 48 197 45 188

C42 181 45 183 49 190

C53 197 61 207 63 207

C64 207 66 202 68 193

C69 189 72 179 74 173

C75 166 77 160 77 159

C77 158 76 158 71 158

C66 158 65 158 63 155

C60 152 54 139 55 137

C56 135 65 134 77 135

L83 136

L84 130

C87 121 88 119 95 112

C101 106 102 105 105 108

C117 123 118 125 110 134

C106 137 104 140 104 140

C104 141 106 142 108 143

C116 146 118 149 120 157

L121 164

L117 171

C115 174 112 179 111 182

C111 185 109 187 109 187

C109 187 107 187 107 189

L105 191

L106 189

C107 186 108 180 108 180

C107 180 107 182 106 184

C105 186 104 188 103 189

C101 190 99 199 99 202

C100 204 100 204 99 203

C99 202 98 203 98 206

C97 214 100 215 117 212

C136 210 168 201 168 199

C168 198 167 196 165 193

C164 190 163 188 163 187

C164 187 171 198 171 199

C169 204 137 213 111 216

L100 218

L98 215

C96 212 96 211 97 204

C97 199 100 188 103 180

C105 171 107 163 107 162

C107 160 106 160 102 160

C96 160 96 160 94 164

C93 166 90 173 88 179

C83 194 78 208 76 211

C76 213 75 215 75 215

C75 216 74 217 73 219

C72 221 71 221 70 220

Z

M732 211

C730 208 728 203 728 201

C727 193 728 171 729 165

C730 159 731 158 732 151

C735 137 740 125 747 117

C751 113 752 113 755 117

C757 119 758 119 766 119

L774 118

L777 122

C782 128 782 128 779 131

C775 135 773 141 770 154

C767 169 767 177 768 190

C769 196 769 203 769 205

C769 208 769 210 771 211

C772 213 771 214 768 212

C767 211 766 210 766 208

C766 206 766 203 765 201

C764 198 763 191 762 181

C762 169 761 162 761 161

C760 161 759 162 757 163

C754 166 753 166 750 166

C747 165 747 165 746 169

C746 171 745 173 746 173

C746 174 749 172 752 170

C760 166 761 166 758 169

C756 172 756 174 758 174

C759 174 760 175 760 178

C760 181 759 182 755 184

C751 187 751 187 748 186

C746 185 745 184 745 185

C744 186 744 207 745 211

C746 216 745 217 742 213

C739 211 739 211 739 213

C739 214 737 218 736 218

C736 218 734 215 732 211

Z

M762 138

C762 134 762 134 760 135

C758 137 752 148 752 149

C752 150 754 150 756 150

C758 150 760 150 760 151

C760 154 760 153 761 148

C761 145 762 141 762 138

Z

M102 209

C102 208 102 208 103 209

C103 210 103 210 103 211

C102 211 102 210 102 209

Z

M100 208

C100 207 100 207 101 208

C101 209 101 209 101 210

C100 210 100 209 100 208

Z

M132 198

C131 198 129 196 128 194

C126 189 124 172 124 164

C125 155 130 139 134 136

C137 132 141 132 143 137

C144 139 145 140 146 139

C150 138 154 138 155 140

C163 149 165 151 164 155

C164 156 164 160 163 164

C163 168 162 174 162 177

C161 181 160 184 160 184

C159 184 158 183 158 181

C156 178 156 178 156 180

C156 182 154 182 153 180

C152 179 151 178 147 178

C144 178 141 178 140 178

C139 177 138 178 137 183

C135 189 135 193 136 193

C136 193 139 191 142 190

C144 188 148 187 151 186

C153 185 155 184 155 184

C156 183 156 183 157 184

C158 185 158 186 158 186

C158 186 154 188 150 190

C145 192 140 195 138 197

C136 199 135 200 135 200

C135 200 133 199 132 198

Z

M147 167

C150 167 150 163 147 162

C145 161 144 162 143 166

C142 168 143 168 147 167

Z

M104 194

C104 193 104 193 105 194

C105 195 105 195 105 196

C104 196 104 195 104 194

Z

M497 179

C496 176 497 174 503 164

C507 157 513 148 516 143

C519 139 522 135 522 135

C522 134 520 134 517 134

C510 133 509 131 508 122

C508 114 508 114 510 113

C512 112 514 112 514 112

C514 113 523 113 533 113

C543 114 552 114 552 115

C553 116 555 124 555 127

C555 129 554 130 553 130

C551 131 549 133 545 143

C542 150 539 157 539 158

C538 159 537 161 537 162

C537 162 535 165 535 169

C534 172 533 175 532 176

C531 179 527 174 526 167

L525 165

L527 167

L529 169

L531 158

C532 152 534 144 535 140

C538 131 537 130 533 132

C528 134 509 160 500 177

L497 182

L497 179

Z

M465 175

C462 172 460 169 460 169

C460 167 465 164 477 160

L490 155

L492 148

C495 139 500 133 505 133

C507 133 509 133 509 134

C509 134 509 138 510 141

L510 148

L504 154

C498 160 497 161 497 164

C497 169 495 171 486 176

C480 179 477 180 474 180

C470 180 469 179 465 175

Z

M547 159

C545 158 546 141 548 140

C550 139 552 139 566 143

C578 146 580 146 576 147

C573 147 572 148 572 151

C572 155 570 156 564 159

C558 161 549 162 547 159

Z

M466 155

C462 154 461 152 461 144

C460 137 460 136 462 136

C463 135 471 135 480 135

C491 134 494 135 491 135

C487 136 487 136 487 140

C488 142 487 144 486 146

C484 148 483 150 483 150

C482 150 481 151 480 152

C479 153 477 154 474 155

C470 156 469 156 466 155

Z

M468 128

C466 127 464 122 464 116

C464 107 465 107 475 108

C486 109 487 109 493 113

C502 119 502 119 501 122

C500 124 499 125 494 126

C489 128 471 129 468 128

Z

"/>

<path fill="#2c2c2c" stroke="none" d="
M630 226

C626 224 623 216 622 204

C622 191 623 184 628 181

C630 180 632 179 633 179

C634 179 635 178 636 177

C637 176 639 175 644 174

L650 174

L649 166

C649 153 649 154 642 161

C638 165 633 170 632 172

C627 179 617 191 615 191

C614 192 611 191 606 187

C603 185 599 182 595 180

C590 176 587 174 590 174

C590 174 595 177 600 180

C616 189 614 189 621 180

C629 168 635 159 635 158

C635 157 634 157 633 157

C620 161 620 161 616 159

C614 158 612 157 612 156

C612 156 610 154 608 153

C599 148 606 145 630 142

L645 141

L647 137

C650 130 650 130 644 133

C641 134 639 135 637 135

C635 134 626 131 622 129

C620 128 620 123 621 120

C623 118 629 114 630 115

C630 115 632 114 634 113

C640 111 657 109 668 109

C678 109 688 111 693 113

C695 115 695 115 691 114

C689 114 686 114 685 114

C684 113 671 116 670 117

C669 118 669 118 670 119

C671 121 671 121 668 122

C666 123 664 124 662 124

C657 126 656 128 657 134

C658 136 658 139 658 139

C659 140 677 137 686 135

C696 133 698 132 697 130

C697 130 697 129 698 129

C699 129 699 130 700 131

C701 133 698 135 691 137

C688 138 684 139 683 140

C681 140 677 142 674 142

C667 144 666 146 671 146

C673 147 679 150 686 152

C698 158 707 166 712 173

C714 178 715 181 712 177

C710 174 702 170 701 170

C700 171 700 171 700 172

C701 172 700 173 700 174

C699 175 699 175 696 173

C692 170 685 168 676 165

C665 163 661 161 660 157

C658 153 658 153 657 156

C657 157 657 162 657 166

L656 173

L663 173

C667 172 671 171 672 171

C674 169 678 168 678 170

C678 170 680 173 682 176

C686 181 687 182 684 191

C683 194 683 200 683 206

C683 219 684 218 679 216

C674 215 666 215 657 216

C647 218 639 221 636 225

C633 227 633 227 630 226

Z

M643 210

C649 208 663 207 668 208

C672 209 672 209 672 208

C671 207 671 204 670 201

C670 198 669 195 669 195

C669 195 667 196 666 197

C664 198 663 199 664 200

C666 203 665 203 657 205

C647 207 646 207 642 204

C638 201 637 202 636 207

C636 212 635 211 643 210

Z

M667 194

C669 194 669 193 669 191

C669 188 669 188 667 189

C652 193 646 193 641 187

C638 185 638 185 638 187

C638 188 638 190 639 192

L639 195

L652 195

C659 194 666 194 667 194

Z

M792 225

C792 224 792 222 793 222

C793 222 795 219 797 215

C804 202 809 193 809 192

C809 192 808 192 808 192

C806 192 799 198 790 209

C785 214 781 218 781 218

C780 218 780 217 780 216

C780 215 780 214 781 214

C781 214 785 209 789 204

C793 198 798 192 800 190

C803 187 803 186 801 186

C800 185 793 189 793 191

C793 191 792 193 790 194

C789 196 787 199 786 200

C782 205 782 203 785 197

C787 191 787 191 786 191

C786 191 785 192 784 194

C782 198 778 203 778 201

C778 200 777 201 777 202

L775 205

L775 203

C774 199 774 197 778 188

L783 178

L780 176

C779 175 777 170 775 167

L773 160

L779 160

C782 161 784 160 784 160

C784 160 783 158 782 156

C777 150 778 136 786 121

C791 111 795 106 797 106

C798 106 800 108 801 110

C802 111 803 113 803 113

C803 113 807 112 811 110

C825 106 826 106 831 111

C836 116 837 119 835 121

C834 122 833 124 832 125

C831 128 830 143 831 145

C833 147 830 149 817 155

C809 158 803 161 802 161

C802 162 810 162 824 162

C839 161 844 161 841 162

C839 163 836 163 835 164

C833 164 831 165 829 166

C824 167 824 168 825 171

C826 172 826 173 823 173

C822 174 821 174 821 175

C821 175 818 176 814 177

C803 178 805 180 817 179

C822 179 827 179 828 179

C830 179 831 180 834 184

L838 189

L833 195

C827 201 822 212 821 220

L821 226

L817 222

C815 220 814 219 815 220

C816 220 817 221 817 221

C817 221 818 217 818 212

C819 208 819 202 820 199

C821 197 821 195 821 194

C819 193 816 196 813 201

C812 204 810 206 809 206

C809 206 807 207 806 209

C801 217 794 227 794 227

C793 227 793 226 792 225

Z

M801 145

C803 144 806 143 808 143

C811 143 820 138 822 136

C824 132 820 132 811 136

C807 137 804 138 802 138

C799 137 797 138 796 143

C795 146 795 147 801 145

Z

M815 125

C823 124 823 122 814 122

C809 122 807 123 806 124

C804 126 805 127 807 127

C808 126 812 126 815 125

Z

M418 224

C417 223 413 221 410 219

C403 215 402 214 408 217

C415 220 415 220 415 217

C410 203 410 202 410 185

C410 170 410 169 413 166

C416 163 418 164 422 171

C424 177 424 178 423 181

C422 183 420 189 419 194

C415 206 415 212 419 220

C420 222 421 225 421 225

C421 227 419 226 418 224

Z

M480 223

C477 220 476 219 479 220

C481 221 481 220 486 214

C490 210 492 206 492 206

C492 205 490 205 486 206

C483 206 480 206 479 204

C476 203 475 201 473 193

L472 186

L475 185

C477 184 480 184 487 184

C493 185 506 185 511 184

C511 184 511 182 511 179

C511 177 512 173 512 171

C514 169 514 168 517 168

L520 168

L520 176

L520 183

L536 183

C545 182 553 182 555 181

C556 180 559 180 560 180

L564 180

L561 182

C557 185 554 188 554 191

C554 193 554 193 543 197

L540 198

L543 201

C546 205 549 210 549 212

C549 216 537 217 531 214

C528 213 526 208 526 204

C526 202 526 201 524 201

C522 201 520 202 519 202

C517 204 517 204 518 214

C518 220 519 225 518 225

C518 226 507 220 507 220

C507 220 509 220 510 220

L514 220

L512 215

C512 212 511 208 511 206

C511 204 511 203 509 203

C504 203 498 207 498 211

C498 212 497 213 496 214

C494 214 491 217 489 220

C486 223 483 226 483 226

C483 226 481 225 480 223

Z

M338 221

C330 214 328 190 334 177

C335 174 336 173 338 173

C340 173 342 174 343 175

C344 176 346 176 349 175

L353 175

L351 173

C349 171 349 167 349 161

C349 157 352 151 356 147

C358 145 360 144 360 144

C360 143 358 144 356 145

C349 147 345 146 336 142

C327 137 327 137 327 134

C329 129 335 126 346 125

C348 124 352 124 356 123

C360 122 363 122 363 122

C364 122 364 121 364 119

C364 111 374 100 379 104

C379 104 382 106 384 107

C390 109 393 113 393 118

C392 121 393 121 395 121

C414 121 436 125 441 129

C442 130 442 130 439 130

C436 129 428 129 420 129

C406 129 401 129 404 131

C405 132 405 132 405 132

C405 133 398 134 391 135

C378 138 367 141 372 141

C373 141 376 141 379 140

C381 139 386 139 390 138

C394 138 397 137 399 137

C400 136 401 137 404 141

C406 144 408 148 408 149

C408 151 406 155 404 159

L399 165

L388 165

C376 166 371 167 364 172

L362 174

L369 174

C382 172 404 170 406 169

C407 169 406 170 403 172

C398 174 397 175 397 178

C397 182 397 183 389 185

C384 187 384 187 387 187

C389 187 391 187 392 186

C394 185 395 186 400 190

C403 193 405 196 405 197

C405 198 404 201 402 204

L399 209

L391 209

C382 209 371 212 369 215

C367 218 365 217 361 212

C359 210 359 209 359 202

C359 198 360 194 360 193

C361 192 360 191 357 190

L353 189

L352 193

C349 199 346 212 346 216

C346 218 343 224 341 224

C340 224 339 223 338 221

Z

M382 207

C388 207 389 206 389 205

C389 203 389 203 386 203

C384 204 382 204 380 203

C377 201 377 201 375 204

C372 208 371 210 374 208

C375 208 379 208 382 207

Z

M378 163

C381 162 385 162 388 162

C393 162 392 162 391 159

C390 156 389 156 386 157

C384 157 381 157 379 156

C376 155 376 155 375 157

C375 158 373 160 372 162

C369 164 369 165 371 165

C372 164 375 164 378 163

Z

M200 222

C198 221 194 218 193 215

C191 212 192 202 194 202

C194 203 195 202 196 200

C197 199 199 196 201 193

C203 191 205 190 205 191

C204 191 205 192 206 192

C208 192 209 190 207 190

C206 189 207 189 208 189

C210 189 217 192 217 193

C217 193 216 193 216 192

C215 192 215 192 215 193

C216 194 217 194 217 193

C218 193 221 196 224 201

C226 204 226 206 226 209

C225 214 224 216 222 214

C220 213 220 213 218 217

C216 219 214 221 214 221

C211 222 201 223 200 222

Z

M214 215

C218 210 215 200 209 200

C206 200 201 202 201 205

C199 208 200 212 202 215

C205 219 211 219 214 215

Z

M70 220

C60 212 48 197 45 188

C43 184 43 184 44 184

C45 184 47 187 49 190

C53 198 62 208 64 206

C64 206 67 198 70 188

C72 178 75 168 76 166

C78 158 78 158 71 158

C66 158 65 158 62 154

C60 153 59 150 59 150

C59 149 58 146 57 144

C55 141 54 138 55 138

C56 135 65 134 73 135

C83 137 83 137 85 128

C88 120 89 118 94 113

C101 106 102 105 105 108

C112 116 115 122 115 126

C115 127 113 131 110 134

C106 137 104 140 104 140

C104 141 106 142 108 143

C115 146 118 150 119 154

C119 157 120 160 120 161

C121 163 120 165 118 169

C116 173 113 178 112 181

C111 184 109 187 109 187

C109 186 108 187 107 187

C106 188 106 188 106 187

C108 183 108 180 107 180

C106 181 106 182 106 183

C106 184 105 186 104 186

C104 187 103 189 104 189

C104 190 104 190 103 190

C102 189 99 196 98 205

C97 214 99 215 114 213

C126 211 145 207 156 204

C170 199 169 200 166 193

C164 190 163 188 163 187

C163 187 165 190 168 193

C171 197 171 199 170 200

C167 205 130 215 107 217

C100 217 99 217 98 214

C96 212 96 211 97 204

C97 200 100 189 103 179

C105 169 107 161 107 161

C107 160 104 160 101 160

C96 160 96 160 94 164

C93 166 91 170 90 174

C89 178 86 185 84 191

C81 197 79 203 78 205

C78 207 77 209 76 210

C76 212 75 213 75 214

C75 215 74 217 73 219

C72 221 71 221 70 220

Z

M732 212

C728 204 728 201 728 189

C728 179 729 164 729 163

C730 163 730 161 731 159

C734 140 738 128 745 120

C750 114 751 114 755 117

C758 119 758 119 766 119

L774 118

L776 121

C777 122 778 124 779 125

C782 127 781 128 779 132

C775 135 772 143 770 155

C767 170 767 177 768 190

C769 196 769 202 769 205

C769 207 769 210 770 211

C771 213 771 213 769 212

C767 212 767 212 765 202

C764 197 764 192 763 191

C763 189 762 172 762 165

C761 160 761 160 757 164

C754 166 753 166 750 166

C747 165 747 165 746 169

C746 172 745 174 745 174

C746 174 749 172 752 171

C760 166 761 166 758 170

C756 172 756 172 757 173

C758 174 759 176 760 178

C760 180 760 181 757 183

C752 187 750 187 747 186

C746 185 745 184 745 185

C744 186 744 207 745 211

C746 216 745 217 742 213

C739 211 739 211 739 213

C739 214 737 218 736 218

C736 218 734 215 732 212

Z

M761 146

C762 143 762 138 762 137

C762 134 762 134 760 135

C758 137 752 148 752 150

C752 150 754 150 756 150

C759 149 759 149 759 151

C759 152 759 153 760 153

C760 153 761 150 761 146

Z

M131 197

C128 194 126 190 125 176

C124 169 124 165 125 159

C126 151 131 139 134 135

C138 131 142 133 143 138

C143 139 144 139 146 139

C154 138 154 138 155 140

C165 150 165 151 163 161

C163 166 162 173 162 177

C161 185 160 186 158 181

C157 178 157 178 156 180

C155 182 155 182 154 180

C152 179 150 178 147 178

C144 178 141 178 140 178

C139 177 138 178 137 183

C135 189 135 193 135 193

C136 193 138 192 141 190

C145 188 149 187 151 186

C153 185 155 184 155 184

C155 182 157 183 157 185

C158 186 156 187 149 190

C143 193 138 196 137 197

C135 201 134 201 131 197

Z

M147 167

C150 167 150 163 147 162

C145 161 145 161 144 163

C141 167 142 169 147 167

Z

M497 179

C496 177 497 175 501 168

C507 157 513 147 518 140

C520 137 522 135 522 135

C522 134 521 134 519 134

C512 134 508 130 508 120

C508 115 508 114 510 113

C511 113 513 112 513 113

C513 113 522 113 532 113

C543 114 551 114 552 114

C553 115 554 119 555 126

C555 129 555 130 553 130

C551 131 549 133 547 139

C540 154 534 168 534 172

C533 174 532 176 532 177

C530 178 527 173 526 167

L525 165

L527 167

L529 169

L531 158

C532 152 534 144 535 140

C537 134 538 132 537 131

C535 131 530 133 530 134

C530 134 528 137 525 140

C519 146 509 161 502 173

C497 182 497 182 497 179

Z

M465 175

C462 172 460 169 460 169

C460 167 465 164 477 160

L490 155

L492 149

C494 141 497 138 500 135

C502 133 509 132 509 134

C509 134 509 138 510 141

L510 148

L504 154

C498 160 497 161 497 164

C497 169 495 171 485 176

C480 179 476 180 474 180

C470 180 469 179 465 175

Z

M548 159

C546 158 546 154 547 145

L547 140

L551 140

C555 140 573 144 577 146

C578 146 578 147 576 147

C573 147 572 148 572 151

C572 155 570 157 563 159

C557 161 550 162 548 159

Z

M464 154

C462 152 461 150 461 144

C460 139 460 136 461 136

C462 135 465 135 469 135

C481 135 494 134 493 135

C493 135 491 135 490 135

C487 136 487 136 487 140

C488 143 488 144 483 149

C480 152 477 154 474 155

C467 156 466 156 464 154

Z

M468 128

C466 127 464 122 464 116

C464 111 465 109 466 108

C467 108 471 108 476 108

C482 109 486 110 490 112

C504 119 505 123 494 126

C489 128 471 129 468 128

Z

"/>

<path fill="#000000" stroke="none" d="
M629 224

C625 220 623 212 623 199

C622 189 627 180 632 180

C633 180 634 179 636 178

C637 176 639 175 642 175

C650 175 650 175 649 165

C649 160 649 155 649 155

C649 153 637 165 632 171

C622 184 616 191 614 191

C613 191 609 189 606 186

C602 184 597 180 594 178

C590 176 589 175 591 175

C593 176 598 179 604 182

C609 185 614 188 614 188

C616 188 637 158 636 157

C635 157 633 157 630 158

C622 160 619 160 615 158

C613 156 610 154 608 153

C606 152 604 151 604 150

C604 147 616 144 633 143

C647 141 645 142 650 131

C650 129 648 130 645 132

C641 135 636 135 632 132

C629 131 627 130 626 130

C625 130 623 129 622 128

C620 127 620 126 620 124

C621 120 627 115 630 115

C631 115 633 114 635 114

C637 113 645 111 653 110

C665 109 669 109 676 110

C681 110 687 112 690 112

L694 114

L689 113

C683 113 672 114 670 117

C668 118 668 118 669 119

C670 121 670 121 668 122

C656 127 656 127 656 130

C656 133 658 140 659 140

C662 140 679 137 688 135

C696 133 698 132 698 131

C698 129 699 129 699 130

C700 132 697 135 690 137

C684 138 668 144 667 145

C665 146 668 147 671 147

C672 147 679 150 686 153

C696 158 698 160 705 167

C713 175 716 180 710 174

C705 170 702 169 700 172

L698 174

L695 172

C691 169 683 166 678 165

C673 165 664 162 662 160

C661 160 660 158 660 156

C659 155 659 154 658 154

C657 154 655 172 656 173

C657 175 671 172 673 170

C674 168 676 169 681 174

C685 179 685 180 685 184

C682 206 682 210 683 212

C684 216 683 217 679 216

C673 215 661 215 654 217

C646 218 637 222 635 225

C633 227 631 226 629 224

Z

M655 208

C661 208 666 208 668 209

C672 210 673 209 671 201

C670 198 670 194 670 193

C670 188 669 187 663 189

C651 193 645 192 641 187

C640 186 639 185 638 185

C637 186 638 195 639 195

C639 195 646 195 653 195

C660 195 667 194 667 195

C667 195 666 196 665 197

C664 198 663 199 664 201

C664 203 663 203 655 204

L646 206

L642 204

C640 202 638 201 638 202

C637 203 635 210 636 211

C636 212 638 211 641 210

C643 210 650 209 655 208

Z

M793 225

C792 224 792 223 793 223

C793 223 795 220 797 216

C799 213 801 209 801 209

C803 207 810 192 809 191

C807 190 800 196 795 202

C786 212 782 217 781 216

C780 216 781 215 782 213

C784 212 788 205 793 199

C797 193 802 188 802 188

C804 187 802 185 800 185

C798 185 791 192 786 199

C782 204 782 203 786 196

C788 192 788 191 787 191

C786 191 784 193 783 195

C781 199 780 200 779 200

C778 199 777 200 776 201

C775 203 775 203 775 199

C775 196 777 190 782 182

C783 179 783 179 780 175

C778 173 777 171 777 170

C777 169 776 167 775 164

L773 160

L775 160

C777 160 779 160 781 161

C785 162 785 161 782 157

C779 152 778 145 781 135

C784 125 790 112 794 108

L797 106

L801 110

L804 113

L810 111

C814 110 819 109 822 108

C827 108 827 108 830 111

C836 117 836 117 833 124

C830 129 830 130 830 139

L831 148

L818 154

C811 157 805 159 805 159

C805 159 804 159 803 160

C800 162 804 162 820 162

L837 162

L833 164

C830 165 828 166 827 166

C826 166 823 170 824 170

C827 172 822 175 813 176

C808 176 806 177 806 178

C806 179 807 180 811 180

C818 181 825 181 827 180

C829 178 832 179 833 182

C833 184 835 185 835 186

C838 188 837 190 833 195

C827 201 821 212 820 219

C820 222 820 224 819 224

C818 223 819 209 820 201

C821 197 821 194 821 193

C819 192 815 196 813 200

C812 203 810 205 809 206

C808 206 805 211 801 216

C798 222 794 226 794 226

C794 226 793 225 793 225

Z

M799 146

C801 145 804 144 806 144

C809 144 820 139 822 137

C825 132 822 132 811 136

C805 138 803 138 801 137

C799 136 799 136 798 138

C796 141 794 147 795 147

C796 147 797 146 799 146

Z

M819 125

C821 125 822 124 822 123

C822 122 821 122 820 122

C816 123 810 123 809 122

C809 121 808 122 807 123

C806 124 805 126 805 126

C805 127 813 127 819 125

Z

M415 222

C413 220 412 219 414 219

C416 220 416 220 413 210

C410 200 410 175 412 168

C413 166 415 164 415 164

C417 164 418 166 421 172

L424 178

L420 188

C417 197 417 200 417 207

C417 215 417 217 421 224

C422 226 419 225 415 222

Z

M480 223

C478 221 478 220 480 221

C482 221 482 221 489 210

L493 205

L487 205

C478 206 476 204 474 194

C473 187 473 186 474 185

C476 185 481 184 492 185

C501 185 509 185 510 184

C510 184 511 181 512 178

C512 171 513 169 517 169

L520 169

L520 176

C519 180 520 183 520 184

C521 184 546 182 556 181

L561 181

L557 185

C555 187 553 190 553 191

C553 193 549 195 543 197

C540 197 539 198 542 200

C543 202 548 209 548 212

C549 213 549 214 547 214

C544 215 535 215 531 215

C529 214 527 210 527 204

C527 201 526 201 523 201

C516 201 517 201 517 213

L518 225

L514 223

C512 222 511 221 512 221

C514 221 514 221 512 211

C511 206 510 203 509 203

C504 203 498 207 497 211

C497 212 497 212 497 213

C497 214 497 214 496 214

C496 213 493 216 489 219

C486 222 483 225 483 225

C483 225 481 224 480 223

Z

M338 221

C331 214 329 188 335 176

C336 173 337 172 341 175

C345 176 350 176 352 175

C353 174 353 174 352 173

C351 172 350 169 349 165

C349 158 351 153 357 147

C359 145 361 143 361 143

C360 143 358 144 354 145

C346 147 343 146 327 136

C326 136 330 130 333 129

C337 127 355 123 361 123

C364 123 364 123 364 120

C364 115 371 103 375 103

C375 103 379 104 382 106

C390 110 393 113 393 118

C392 121 391 121 414 123

C428 124 436 126 440 128

C441 130 441 130 438 129

C434 128 411 128 406 129

C404 129 403 130 404 131

C404 133 403 133 393 135

C390 135 385 136 382 137

C378 137 374 138 373 139

C371 139 369 141 370 142

C371 142 373 142 376 141

C378 140 384 139 388 139

C393 138 397 138 398 137

C398 136 399 136 400 136

C402 138 408 148 408 149

C408 150 406 154 404 158

L399 165

L389 165

C377 165 370 167 364 172

L362 174

L366 174

C371 174 396 171 402 170

C404 170 404 170 401 172

C397 174 397 174 397 177

C398 181 396 182 388 185

C386 186 384 187 384 187

C384 188 385 188 393 186

C394 186 396 187 399 190

C405 196 405 199 401 204

C398 208 397 208 390 208

C381 209 371 212 368 215

C367 216 366 216 364 215

C360 213 358 204 360 196

C361 191 361 190 356 190

C353 189 353 189 352 192

C350 197 346 209 346 215

C345 218 344 221 343 222

L341 224

L338 221

Z

M382 207

C390 207 390 206 389 204

C388 203 387 202 385 203

C383 203 380 203 380 202

C378 200 375 202 373 206

L371 209

L374 209

C375 208 379 208 382 207

Z

M384 163

C392 163 393 163 392 161

C392 160 392 159 391 158

C391 156 390 156 386 156

C383 156 379 156 378 156

C377 155 376 155 375 157

C375 158 373 160 372 162

L369 165

L372 165

C373 164 379 164 384 163

Z

M199 222

C197 221 195 219 194 217

C192 213 191 209 193 211

C194 211 194 211 194 210

C193 209 193 207 192 206

C192 205 192 205 193 205

C193 206 195 204 196 201

C199 194 202 192 206 192

C207 193 208 192 209 191

C209 189 213 190 214 192

C215 193 216 194 216 194

C217 194 217 193 216 193

C215 190 219 195 222 199

C224 202 225 204 225 207

C225 213 224 215 222 213

C221 212 220 213 217 217

C214 221 213 222 210 222

C208 222 206 222 205 222

C203 223 201 222 199 222

Z

M212 218

C215 216 217 211 216 206

C214 198 206 197 201 204

C198 207 198 210 201 214

C204 218 208 220 212 218

Z

M71 220

C71 220 69 218 67 217

C63 214 54 204 48 193

C44 186 43 185 45 185

C45 185 48 188 50 192

C52 195 56 201 59 203

L64 208

L65 205

C66 204 68 197 70 190

C71 182 74 173 75 169

C78 158 78 159 71 158

C65 158 65 158 62 154

C60 152 59 150 59 149

C59 149 58 146 57 144

C54 139 55 136 60 135

C63 135 75 135 80 136

C82 137 83 137 84 133

C85 131 86 128 86 126

C87 122 94 111 99 108

C101 106 105 106 105 108

C105 108 107 111 109 113

C111 116 113 118 113 120

C115 126 115 126 110 133

C107 137 104 140 104 141

C104 141 105 142 107 142

C108 143 111 145 113 147

C115 149 117 150 117 149

C117 148 120 160 120 163

C120 164 118 167 117 171

C115 174 112 178 112 181

C110 186 107 188 108 183

C108 180 108 180 107 181

C106 183 105 184 105 184

C105 185 104 186 104 187

C103 188 101 190 101 193

C98 200 99 193 104 177

C106 168 108 161 108 160

C107 160 105 159 102 159

L96 159

L93 164

C92 167 90 172 89 174

C88 177 86 185 83 192

C80 198 78 204 78 205

C78 206 77 209 73 217

C72 220 71 221 71 220

Z

M98 215

C97 213 96 211 96 210

C96 209 96 209 97 211

C98 212 99 213 101 214

C107 215 140 210 158 204

C163 202 168 200 169 200

C169 199 168 197 167 195

L165 191

L168 194

C170 196 171 198 171 199

C171 200 160 205 152 208

C141 211 127 214 114 215

C99 217 100 217 98 215

Z

M732 210

C729 204 728 203 728 188

C728 179 728 172 729 172

C729 171 729 169 729 167

C730 160 735 138 738 132

C742 124 748 116 751 115

C752 115 754 115 756 117

C758 119 759 120 764 119

C766 119 770 119 771 119

C773 118 774 119 776 122

C777 123 779 125 779 125

C781 125 780 129 777 133

C774 138 772 143 769 158

C766 171 766 182 768 194

C769 202 769 203 768 205

C766 206 766 206 766 204

C766 203 766 202 767 201

C768 201 768 200 767 200

C767 199 766 199 766 200

C766 201 765 199 765 195

C764 192 764 187 763 183

C762 179 762 176 763 176

C764 176 762 161 761 160

C761 160 759 161 757 163

C755 164 753 165 751 165

C748 165 747 166 746 168

C745 170 745 174 746 174

C746 174 749 173 752 171

C758 168 758 168 757 170

C756 172 756 173 757 174

C760 177 760 180 756 183

C753 186 750 187 746 185

C744 184 743 193 744 205

C744 210 745 215 744 215

C744 215 743 214 742 213

C740 210 740 210 738 214

C738 216 737 217 736 217

C736 217 734 214 732 210

Z

M762 144

C762 139 763 134 762 134

C761 133 752 146 752 149

C752 151 753 151 756 150

C758 150 759 150 759 151

C759 152 760 153 760 153

C761 153 762 151 762 144

Z

M767 211

C766 209 766 207 768 207

C768 207 769 208 769 210

C769 212 769 213 767 211

Z

M98 198

C98 197 98 197 99 198

C99 199 99 199 99 200

C98 200 98 199 98 198

Z

M131 196

C127 192 126 184 126 169

C126 156 126 155 129 147

C131 142 133 137 134 135

C137 132 142 133 143 138

L144 141

L147 139

C150 139 151 138 151 139

C151 140 151 140 152 140

C153 140 153 139 152 139

C152 138 152 138 153 139

C156 140 163 149 164 152

C164 153 164 159 163 164

C162 170 161 177 161 180

C161 184 161 184 160 183

C159 182 158 181 158 180

C157 177 155 178 156 180

C156 182 153 181 153 179

C152 177 152 177 150 178

C147 179 142 178 140 177

C140 176 139 176 138 176

C137 177 136 184 135 189

L135 194

L138 192

C141 190 155 184 157 184

C157 184 157 185 157 186

C157 186 157 187 156 187

C154 187 140 194 137 197

L134 200

L131 196

Z

M149 165

C149 160 144 160 142 165

L141 168

L145 168

C149 168 149 167 149 165

Z

M497 179

C496 176 503 164 515 146

C523 133 523 133 517 133

C512 133 509 130 509 121

C508 114 508 114 510 113

C512 113 514 113 515 113

C516 114 524 114 533 114

C542 114 549 115 550 115

C551 115 552 117 553 121

C555 127 555 130 552 130

C550 130 548 135 542 148

C540 154 537 160 536 163

C535 165 534 169 533 172

C532 175 532 177 531 177

C531 177 527 171 527 169

C526 167 526 167 527 168

C529 170 530 169 530 163

C531 160 533 151 535 144

C536 137 538 132 538 131

C538 131 537 131 535 131

C533 131 531 132 527 137

C521 144 507 164 502 173

C498 181 497 182 497 179

Z

M470 179

C467 177 461 171 461 169

C461 166 464 165 474 162

C478 160 482 159 484 158

C485 158 486 157 488 157

C489 157 490 155 492 149

C496 138 499 134 505 134

L508 134

L509 141

L510 148

L503 154

C498 159 497 161 496 165

C496 170 494 171 485 176

C477 180 473 181 470 179

Z

M547 158

C546 155 546 150 547 145

C549 141 549 141 553 141

C555 141 561 142 566 143

C575 145 575 145 573 147

C572 148 571 150 571 152

C571 156 563 160 553 160

C549 160 548 160 547 158

Z

M465 154

C462 153 462 152 461 142

L460 136

L468 136

C472 135 478 135 481 135

L488 135

L487 139

C487 146 482 152 474 154

C468 156 468 156 465 154

Z

M469 128

C465 126 464 121 465 114

L465 108

L469 108

C476 108 486 110 490 112

C497 116 501 119 501 121

C501 124 492 127 482 127

C478 128 474 128 473 128

C472 129 470 128 469 128

Z

"/>

</svg>

