<?xml version="1.0" standalone="no"?>

<!DOCTYPE svg PUBLIC "-//W3C//DTD SVG 20010904//EN"

 "http://www.w3.org/TR/2001/REC-SVG-20010904/DTD/svg10.dtd">

<svg version="1.0" xmlns="http://www.w3.org/2000/svg"

 width="900.000000pt" height="350.000000pt" viewBox="0 0 900.000000 350.000000"

 preserveAspectRatio="xMidYMid meet">

<path fill="#fefefe" stroke="none" d="
M0 175

L0 0

L450 0

L900 0

L900 175

L900 350

L450 350

L0 350

L0 175

Z

"/>

<path fill="#d2d2d2" stroke="none" d="
M411 223

C411 223 410 222 410 222

C410 221 408 219 406 218

C402 215 392 203 386 193

C383 187 382 183 384 183

C386 183 388 185 390 191

C392 193 395 198 398 201

C403 207 404 207 406 199

C407 197 409 189 411 182

C413 175 414 169 414 168

C413 168 414 166 415 163

L417 160

L411 159

C405 159 405 159 402 155

C400 152 398 150 398 149

C398 149 397 146 396 143

L393 138

L395 136

C397 135 399 135 406 135

C411 135 417 135 419 135

C422 135 423 135 424 131

C427 120 428 118 434 112

C440 106 441 105 443 106

C444 106 446 108 446 109

C447 110 449 112 451 114

C454 118 457 125 455 127

C455 128 452 131 450 134

C446 139 445 140 446 141

C447 142 448 142 449 142

C449 142 452 144 454 146

C458 149 459 150 460 155

C461 163 461 165 458 170

C453 177 443 205 443 211

C443 213 443 213 447 213

C452 213 472 210 482 207

C490 205 506 200 507 199

C508 199 507 196 505 193

C502 187 501 184 503 186

C507 190 512 198 512 199

C510 205 482 213 454 216

C439 218 440 219 437 215

C435 212 435 212 436 203

C437 198 440 186 442 178

C445 169 447 161 447 161

C446 161 444 161 442 160

C439 160 438 160 437 161

C437 162 436 163 436 163

C435 162 432 169 429 177

C429 180 426 187 424 192

C422 196 420 203 419 205

C418 208 417 210 417 211

C416 211 416 212 416 212

C416 213 415 215 415 217

C414 218 414 220 414 221

C413 223 413 224 411 223

Z

M440 207

C439 206 439 207 439 208

C439 209 439 210 440 209

C440 209 440 207 440 207

Z

M442 208

C441 207 441 207 441 208

C441 209 441 210 442 210

C442 209 442 209 442 208

Z

M443 204

C442 203 442 203 442 204

C442 205 442 206 443 206

C443 205 443 205 443 204

Z

M441 203

C440 202 440 202 440 203

C440 204 440 205 441 205

C441 204 441 204 441 203

Z

M445 190

C445 189 445 189 444 191

C444 192 443 193 443 194

C443 195 443 195 444 194

C444 192 445 191 445 190

Z

M471 198

C466 194 465 186 465 169

C465 155 465 154 468 146

C471 137 475 132 478 132

C480 132 484 135 484 137

C484 139 485 139 488 138

C490 137 492 137 494 138

C496 139 497 140 497 140

C497 140 499 143 501 145

C502 147 504 150 505 152

C505 153 504 159 504 165

C503 171 502 178 502 180

C502 184 501 186 499 183

C498 183 497 182 497 183

C497 183 497 184 498 185

C500 186 499 187 492 190

C484 193 478 196 477 199

C475 202 475 202 471 198

Z

M492 185

C494 184 494 184 493 181

C492 179 491 178 489 179

C488 180 485 180 483 179

C481 178 479 178 479 178

C478 179 476 188 476 190

C476 192 477 192 483 189

C487 187 491 185 492 185

Z

M489 166

C489 166 488 165 488 163

C486 162 486 162 485 163

C482 166 483 167 486 167

C488 167 489 167 489 166

Z

"/>

<path fill="#afafaf" stroke="none" d="
M410 222

C410 221 408 219 406 217

C402 214 393 204 387 193

C383 187 382 183 384 183

C386 183 387 185 390 190

C391 193 395 198 398 201

L403 206

L404 204

C405 202 406 199 407 196

C408 191 412 175 414 171

C414 169 415 167 414 167

C414 166 415 164 415 163

C418 159 417 159 412 159

C404 159 401 156 397 146

C393 139 393 138 395 136

C397 135 398 135 407 135

C412 135 418 135 420 135

C422 135 423 135 424 130

C427 121 428 118 434 112

C438 107 440 106 442 106

C444 106 445 107 446 108

C447 109 449 112 450 114

C453 117 454 119 455 124

C456 126 455 128 451 133

C447 137 445 140 445 140

C445 140 446 141 448 142

C449 143 452 144 454 146

C455 148 457 149 457 148

C458 148 458 149 460 158

L461 165

L458 171

C456 174 453 179 452 182

C448 193 443 208 443 211

C443 213 443 213 448 213

C458 213 493 205 504 201

L508 199

L506 194

C504 192 503 188 503 187

C502 185 502 185 503 187

C508 192 512 198 512 199

C512 201 505 204 497 207

C486 211 468 215 452 216

L440 218

L438 216

C435 212 436 202 442 180

C446 166 447 161 446 161

C444 160 438 160 436 161

C435 163 430 173 430 175

C430 175 428 182 425 190

C422 197 419 205 418 207

C418 208 417 210 417 211

C416 212 414 219 414 220

C414 221 414 221 413 221

C412 221 412 221 413 222

C413 223 412 223 412 223

C411 223 410 222 410 222

Z

M441 205

C442 200 442 199 443 201

C444 202 444 201 444 199

C444 196 444 193 444 192

C445 190 444 191 443 193

C442 197 441 198 441 197

C440 196 440 196 441 198

C441 199 440 202 440 205

C439 208 439 211 439 211

C439 211 440 208 441 205

Z

M442 208

C441 207 441 208 441 209

C441 210 441 211 442 210

C442 210 442 208 442 208

Z

M443 204

C442 203 442 203 442 204

C442 205 442 206 443 206

C443 205 443 205 443 204

Z

M448 189

C448 188 447 189 447 190

C446 191 445 193 445 195

C445 196 446 195 447 193

C447 191 448 189 448 189

Z

M471 198

C467 194 467 192 465 180

C463 168 464 158 468 147

C471 137 473 134 477 133

C480 132 484 134 484 137

C484 139 485 139 489 138

C492 137 496 138 498 142

C499 143 501 146 503 148

C505 151 505 152 505 156

C504 158 502 178 501 184

C501 184 500 184 500 184

C499 184 498 183 497 181

C496 178 496 180 498 185

C498 186 497 187 492 189

C483 193 476 198 476 200

C476 202 475 201 471 198

Z

M481 190

C484 188 487 187 490 186

C493 185 494 184 493 183

C493 182 493 181 492 180

C492 178 491 178 490 179

C488 180 482 179 480 178

C479 176 479 176 477 183

C476 186 476 189 475 190

C475 193 476 192 481 190

Z

M489 165

C489 163 485 161 484 163

C482 166 483 167 486 167

C488 167 489 167 489 165

Z

"/>

<path fill="#8a8a8a" stroke="none" d="
M410 221

C411 221 409 220 407 218

C401 215 385 193 383 186

C383 183 383 183 385 184

C386 184 388 188 391 191

C393 195 396 200 399 203

C404 208 404 209 409 191

C410 183 413 175 413 173

C414 170 415 167 414 166

C414 166 415 164 415 163

C418 159 417 159 412 159

C407 159 406 159 403 155

C401 154 399 150 398 148

C398 146 396 143 395 142

C391 136 401 132 416 135

C423 137 423 136 425 128

C426 122 430 117 437 109

C441 105 445 105 447 109

C447 111 449 112 449 113

C452 116 454 120 455 124

C456 127 456 128 450 133

C447 136 445 139 445 140

C445 140 446 142 448 142

C450 143 453 145 454 146

C455 148 457 149 457 148

C458 148 458 149 460 158

L461 164

L458 170

C453 178 443 204 443 210

C443 212 443 212 442 211

C442 209 443 203 447 192

C449 186 449 184 446 189

C445 193 445 192 446 187

C447 185 447 185 446 186

C445 188 444 189 444 190

C444 191 444 191 443 191

C442 190 440 196 441 199

C441 201 441 201 440 200

C439 199 439 199 440 202

C440 204 440 205 439 204

C439 204 438 205 438 208

C438 210 439 212 439 211

C440 211 440 210 440 209

C440 207 441 206 441 205

C442 203 442 203 441 206

C441 208 441 210 440 211

C439 216 472 211 496 203

C507 200 509 199 507 197

C507 196 505 193 504 191

C502 185 503 186 508 193

L512 199

L510 201

C505 205 483 212 462 215

C440 218 439 218 439 216

C438 215 437 214 437 214

C436 214 436 206 437 198

C438 195 441 185 443 177

C445 169 447 162 447 161

C446 160 444 160 441 160

C437 160 436 160 434 164

C433 166 431 171 430 175

C429 178 426 186 423 192

C421 198 419 204 418 206

C418 208 417 210 417 211

C416 212 415 215 414 217

C413 220 412 222 411 222

C410 222 410 222 410 221

Z

M442 201

C442 200 443 198 444 196

C444 194 445 193 445 194

C445 195 444 197 444 199

C443 201 442 202 442 201

Z

M472 198

C467 194 465 188 464 173

C464 161 466 151 471 140

C474 133 477 131 481 134

C483 134 484 135 484 136

C483 136 483 137 484 138

C484 139 485 140 488 138

C493 137 494 137 498 142

C505 151 505 152 504 163

C503 168 502 174 502 176

C502 184 499 187 497 181

C496 179 496 178 496 180

C497 181 497 183 497 185

C498 186 497 187 488 192

C481 195 477 197 476 199

L475 201

L472 198

Z

M484 189

C488 187 492 185 493 185

C494 185 494 184 493 181

C492 179 491 178 490 179

C487 180 482 179 480 178

C480 177 479 177 479 177

C478 178 475 191 475 191

C475 193 477 192 484 189

Z

M489 165

C489 164 488 163 487 162

C485 161 485 161 484 164

L482 167

L485 167

C488 167 489 167 489 165

Z

M441 197

C441 196 442 195 442 194

C443 192 443 192 443 193

C443 194 442 195 442 197

C441 198 441 198 441 197

Z

"/>

<path fill="#6a6a6a" stroke="none" d="
M411 221

C410 220 409 219 409 219

C405 219 386 194 384 186

C383 182 386 184 390 191

C392 194 396 200 398 202

L403 208

L405 204

C406 202 407 196 409 191

C410 186 412 177 414 171

C416 165 417 160 417 159

C417 158 415 158 411 158

C406 158 405 158 402 155

C400 153 399 151 399 151

C399 150 398 147 397 144

C395 141 394 138 395 137

C396 135 403 134 412 135

C417 135 421 136 422 136

C422 136 424 133 425 130

C425 127 427 123 427 121

C429 118 436 109 439 107

C441 106 446 107 446 108

C446 109 448 111 449 114

C457 122 457 126 449 134

L444 140

L448 142

C450 143 453 145 454 147

C455 148 457 149 457 148

C458 148 458 149 458 150

C459 151 459 155 460 158

C461 164 461 166 457 171

C456 172 453 179 451 185

C446 196 444 199 447 190

C449 185 449 185 446 189

C445 193 444 192 446 188

C447 186 447 185 446 185

C446 185 445 186 444 188

C444 190 443 191 443 190

C442 188 439 199 440 203

C440 205 440 205 439 204

C438 203 438 204 438 207

C438 210 439 212 439 212

C439 211 440 212 440 212

C441 215 463 212 485 207

C496 204 508 200 508 199

C508 198 507 196 505 193

C504 190 503 188 503 187

C504 187 511 196 512 198

C512 200 502 205 492 208

C481 211 460 216 450 216

C446 217 442 217 441 218

C439 218 436 213 436 209

C436 204 439 191 443 176

C445 168 447 162 447 161

C446 160 444 160 441 160

C436 160 436 160 434 164

C433 166 431 171 430 175

C429 178 426 186 424 192

C421 198 419 204 418 206

C418 208 417 210 416 211

C416 213 415 214 415 215

C415 215 414 217 413 219

C412 221 411 222 411 221

Z

M442 209

C442 208 442 208 443 209

C443 210 443 210 443 211

C442 211 442 210 442 209

Z

M440 208

C440 207 440 207 441 208

C441 209 441 209 441 210

C440 210 440 209 440 208

Z

M444 200

C444 197 444 194 444 193

C445 193 445 194 445 196

C444 199 444 199 445 198

C446 197 446 197 446 198

C446 199 445 201 445 203

C443 206 443 206 444 200

Z

M440 200

C440 199 441 198 441 197

C442 195 442 195 442 196

C442 197 441 198 441 200

C440 201 440 201 440 200

Z

M472 199

C468 195 466 190 465 178

C464 166 464 158 468 147

C471 138 474 133 477 133

C480 132 483 134 483 138

C484 140 484 140 486 139

C487 139 489 138 491 138

C493 138 494 138 498 142

C502 147 505 152 504 155

C504 156 503 163 503 169

C502 176 501 182 501 183

C501 185 498 184 497 181

L496 178

L496 181

C497 182 497 184 497 185

C498 186 495 188 488 192

C481 195 477 197 476 199

L475 201

L472 199

Z

M484 189

C488 187 492 185 493 185

C493 185 494 184 494 183

C495 182 494 181 494 182

C494 182 493 181 493 180

C492 179 491 178 487 178

C484 178 481 178 480 178

C479 177 478 178 477 184

C475 191 475 193 476 193

C476 193 480 191 484 189

Z

M488 167

C490 167 489 163 487 162

C485 161 485 161 484 164

C482 167 482 168 485 168

C486 167 487 167 488 167

Z

"/>

<path fill="#515151" stroke="none" d="
M410 220

C400 212 388 197 385 188

C382 181 385 183 389 190

C393 197 401 207 403 207

C404 207 406 202 408 193

C409 189 412 179 414 173

C415 166 417 160 417 159

C417 158 416 158 411 158

C406 158 405 158 403 155

C400 152 394 139 395 137

C396 135 405 134 417 135

L423 136

L424 130

C427 121 428 119 435 112

C441 106 442 105 445 108

C457 123 458 125 450 134

C446 137 444 140 444 140

C444 141 446 142 448 143

C456 146 458 149 460 157

L461 164

L457 171

C455 174 452 179 451 182

C451 185 449 187 449 187

C449 187 447 187 447 189

L445 191

L446 189

C447 186 448 180 448 180

C447 180 447 182 446 184

C445 186 444 188 443 189

C441 190 439 199 439 202

C440 204 440 204 439 203

C439 202 438 203 438 206

C437 214 440 215 457 212

C476 210 508 201 508 199

C508 198 507 196 505 193

C504 190 503 188 503 187

C504 187 511 198 511 199

C509 204 477 213 451 216

L440 218

L438 215

C436 212 436 211 437 204

C437 199 440 188 443 180

C445 171 447 163 447 162

C447 160 446 160 442 160

C436 160 436 160 434 164

C433 166 430 173 428 179

C423 194 418 208 416 211

C416 213 415 215 415 215

C415 216 414 217 413 219

C412 221 411 221 410 220

Z

M442 209

C442 208 442 208 443 209

C443 210 443 210 443 211

C442 211 442 210 442 209

Z

M440 208

C440 207 440 207 441 208

C441 209 441 209 441 210

C440 210 440 209 440 208

Z

M472 198

C471 198 469 196 468 194

C466 189 464 172 464 164

C465 155 470 139 474 136

C477 132 481 132 483 137

C484 139 485 140 486 139

C490 138 494 138 495 140

C503 149 505 151 504 155

C504 156 504 160 503 164

C503 168 502 174 502 177

C501 181 500 184 500 184

C499 184 498 183 498 181

C496 178 496 178 496 180

C496 182 494 182 493 180

C492 179 491 178 487 178

C484 178 481 178 480 178

C479 177 478 178 477 183

C475 189 475 193 476 193

C476 193 479 191 482 190

C484 188 488 187 491 186

C493 185 495 184 495 184

C496 183 496 183 497 184

C498 185 498 186 498 186

C498 186 494 188 490 190

C485 192 480 195 478 197

C476 199 475 200 475 200

C475 200 473 199 472 198

Z

M487 167

C490 167 490 163 487 162

C485 161 484 162 483 166

C482 168 483 168 487 167

Z

M444 194

C444 193 444 193 445 194

C445 195 445 195 445 196

C444 196 444 195 444 194

Z

"/>

<path fill="#2d2d2d" stroke="none" d="
M410 220

C400 212 388 197 385 188

C383 184 383 184 384 184

C385 184 387 187 389 190

C393 198 402 208 404 206

C404 206 407 198 410 188

C412 178 415 168 416 166

C418 158 418 158 411 158

C406 158 405 158 402 154

C400 153 399 150 399 150

C399 149 398 146 397 144

C395 141 394 138 395 138

C396 135 405 134 413 135

C423 137 423 137 425 128

C428 120 429 118 434 113

C441 106 442 105 445 108

C452 116 455 122 455 126

C455 127 453 131 450 134

C446 137 444 140 444 140

C444 141 446 142 448 143

C455 146 458 150 459 154

C459 157 460 160 460 161

C461 163 460 165 458 169

C456 173 453 178 452 181

C451 184 449 187 449 187

C449 186 448 187 447 187

C446 188 446 188 446 187

C448 183 448 180 447 180

C446 181 446 182 446 183

C446 184 445 186 444 186

C444 187 443 189 444 189

C444 190 444 190 443 190

C442 189 439 196 438 205

C437 214 439 215 454 213

C466 211 485 207 496 204

C510 199 509 200 506 193

C504 190 503 188 503 187

C503 187 505 190 508 193

C511 197 511 199 510 200

C507 205 470 215 447 217

C440 217 439 217 438 214

C436 212 436 211 437 204

C437 200 440 189 443 179

C445 169 447 161 447 161

C447 160 444 160 441 160

C436 160 436 160 434 164

C433 166 431 170 430 174

C429 178 426 185 424 191

C421 197 419 203 418 205

C418 207 417 209 416 210

C416 212 415 213 415 214

C415 215 414 217 413 219

C412 221 411 221 410 220

Z

M471 197

C468 194 466 190 465 176

C464 169 464 165 465 159

C466 151 471 139 474 135

C478 131 482 133 483 138

C483 139 484 139 486 139

C494 138 494 138 495 140

C505 150 505 151 503 161

C503 166 502 173 502 177

C501 185 500 186 498 181

C497 178 497 178 496 180

C495 182 495 182 494 180

C492 179 490 178 487 178

C484 178 481 178 480 178

C479 177 478 178 477 183

C475 189 475 193 475 193

C476 193 478 192 481 190

C485 188 489 187 491 186

C493 185 495 184 495 184

C495 182 497 183 497 185

C498 186 496 187 489 190

C483 193 478 196 477 197

C475 201 474 201 471 197

Z

M487 167

C490 167 490 163 487 162

C485 161 485 161 484 163

C481 167 482 169 487 167

Z

"/>

<path fill="#000000" stroke="none" d="
M411 220

C411 220 409 218 407 217

C403 214 394 204 388 193

C384 186 383 185 385 185

C385 185 388 188 390 192

C392 195 396 201 399 203

L404 208

L405 205

C406 204 408 197 410 190

C411 182 414 173 415 169

C418 158 418 159 411 158

C405 158 405 158 402 154

C400 152 399 150 399 149

C399 149 398 146 397 144

C394 139 395 136 400 135

C403 135 415 135 420 136

C422 137 423 137 424 133

C425 131 426 128 426 126

C427 122 434 111 439 108

C441 106 445 106 445 108

C445 108 447 111 449 113

C451 116 453 118 453 120

C455 126 455 126 450 133

C447 137 444 140 444 141

C444 141 445 142 447 142

C448 143 451 145 453 147

C455 149 457 150 457 149

C457 148 460 160 460 163

C460 164 458 167 457 171

C455 174 452 178 452 181

C450 186 447 188 448 183

C448 180 448 180 447 181

C446 183 445 184 445 184

C445 185 444 186 444 187

C443 188 441 190 441 193

C438 200 439 193 444 177

C446 168 448 161 448 160

C447 160 445 159 442 159

L436 159

L433 164

C432 167 430 172 429 174

C428 177 426 185 423 192

C420 198 418 204 418 205

C418 206 417 209 413 217

C412 220 411 221 411 220

Z

M438 215

C437 213 436 211 436 210

C436 209 436 209 437 211

C438 212 439 213 441 214

C447 215 480 210 498 204

C503 202 508 200 509 200

C509 199 508 197 507 195

L505 191

L508 194

C510 196 511 198 511 199

C511 200 500 205 492 208

C481 211 467 214 454 215

C439 217 440 217 438 215

Z

M438 198

C438 197 438 197 439 198

C439 199 439 199 439 200

C438 200 438 199 438 198

Z

M471 196

C467 192 466 184 466 169

C466 156 466 155 469 147

C471 142 473 137 474 135

C477 132 482 133 483 138

L484 141

L487 139

C490 139 491 138 491 139

C491 140 491 140 492 140

C493 140 493 139 492 139

C492 138 492 138 493 139

C496 140 503 149 504 152

C504 153 504 159 503 164

C502 170 501 177 501 180

C501 184 501 184 500 183

C499 182 498 181 498 180

C497 177 495 178 496 180

C496 182 493 181 493 179

C492 177 492 177 490 178

C487 179 482 178 480 177

C480 176 479 176 478 176

C477 177 476 184 475 189

L475 194

L478 192

C481 190 495 184 497 184

C497 184 497 185 497 186

C497 186 497 187 496 187

C494 187 480 194 477 197

L474 200

L471 196

Z

M489 165

C489 160 484 160 482 165

L481 168

L485 168

C489 168 489 167 489 165

Z

"/>

</svg>

